<?xml version="1.0" encoding="utf-8" standalone="no"?>
<!DOCTYPE svg PUBLIC "-//W3C//DTD SVG 1.1//EN"
  "http://www.w3.org/Graphics/SVG/1.1/DTD/svg11.dtd">
<svg xmlns:xlink="http://www.w3.org/1999/xlink" width="460.8pt" height="345.6pt" viewBox="0 0 460.8 345.6" xmlns="http://www.w3.org/2000/svg" version="1.1">
 <metadata>
  <rdf:RDF xmlns:dc="http://purl.org/dc/elements/1.1/" xmlns:cc="http://creativecommons.org/ns#" xmlns:rdf="http://www.w3.org/1999/02/22-rdf-syntax-ns#">
   <cc:Work>
    <dc:type rdf:resource="http://purl.org/dc/dcmitype/StillImage"/>
    <dc:date>2024-05-11T22:33:43.623116</dc:date>
    <dc:format>image/svg+xml</dc:format>
    <dc:creator>
     <cc:Agent>
      <dc:title>Matplotlib v3.8.4, https://matplotlib.org/</dc:title>
     </cc:Agent>
    </dc:creator>
   </cc:Work>
  </rdf:RDF>
 </metadata>
 <defs>
  <style type="text/css">*{stroke-linejoin: round; stroke-linecap: butt}</style>
 </defs>
 <g id="figure_1">
  <g id="patch_1">
   <path d="M 0 345.6 
L 460.8 345.6 
L 460.8 0 
L 0 0 
z
" style="fill: #ffffff"/>
  </g>
  <g id="axes_1">
   <g id="patch_2">
    <path d="M 57.6 307.584 
L 414.72 307.584 
L 414.72 41.472 
L 57.6 41.472 
z
" style="fill: #ffffff"/>
   </g>
   <g id="matplotlib.axis_1">
    <g id="xtick_1">
     <g id="line2d_1">
      <path d="M 57.6 307.584 
L 57.6 41.472 
" clip-path="url(#p77d676197e)" style="fill: none; stroke: #b0b0b0; stroke-width: 0.8; stroke-linecap: square"/>
     </g>
     <g id="line2d_2">
      <defs>
       <path id="m889a51d6ae" d="M 0 0 
L 0 3.5 
" style="stroke: #000000; stroke-width: 0.8"/>
      </defs>
      <g>
       <use xlink:href="#m889a51d6ae" x="57.6" y="307.584" style="stroke: #000000; stroke-width: 0.8"/>
      </g>
     </g>
    </g>
    <g id="xtick_2">
     <g id="line2d_3">
      <path d="M 87.36 307.584 
L 87.36 41.472 
" clip-path="url(#p77d676197e)" style="fill: none; stroke: #b0b0b0; stroke-width: 0.8; stroke-linecap: square"/>
     </g>
     <g id="line2d_4">
      <g>
       <use xlink:href="#m889a51d6ae" x="87.36" y="307.584" style="stroke: #000000; stroke-width: 0.8"/>
      </g>
     </g>
     <g id="text_1">
      <!-- 16h -->
      <g transform="translate(77.82875 322.182437) scale(0.1 -0.1)">
       <defs>
        <path id="DejaVuSans-31" d="M 794 531 
L 1825 531 
L 1825 4091 
L 703 3866 
L 703 4441 
L 1819 4666 
L 2450 4666 
L 2450 531 
L 3481 531 
L 3481 0 
L 794 0 
L 794 531 
z
" transform="scale(0.015625)"/>
        <path id="DejaVuSans-36" d="M 2113 2584 
Q 1688 2584 1439 2293 
Q 1191 2003 1191 1497 
Q 1191 994 1439 701 
Q 1688 409 2113 409 
Q 2538 409 2786 701 
Q 3034 994 3034 1497 
Q 3034 2003 2786 2293 
Q 2538 2584 2113 2584 
z
M 3366 4563 
L 3366 3988 
Q 3128 4100 2886 4159 
Q 2644 4219 2406 4219 
Q 1781 4219 1451 3797 
Q 1122 3375 1075 2522 
Q 1259 2794 1537 2939 
Q 1816 3084 2150 3084 
Q 2853 3084 3261 2657 
Q 3669 2231 3669 1497 
Q 3669 778 3244 343 
Q 2819 -91 2113 -91 
Q 1303 -91 875 529 
Q 447 1150 447 2328 
Q 447 3434 972 4092 
Q 1497 4750 2381 4750 
Q 2619 4750 2861 4703 
Q 3103 4656 3366 4563 
z
" transform="scale(0.015625)"/>
        <path id="DejaVuSans-68" d="M 3513 2113 
L 3513 0 
L 2938 0 
L 2938 2094 
Q 2938 2591 2744 2837 
Q 2550 3084 2163 3084 
Q 1697 3084 1428 2787 
Q 1159 2491 1159 1978 
L 1159 0 
L 581 0 
L 581 4863 
L 1159 4863 
L 1159 2956 
Q 1366 3272 1645 3428 
Q 1925 3584 2291 3584 
Q 2894 3584 3203 3211 
Q 3513 2838 3513 2113 
z
" transform="scale(0.015625)"/>
       </defs>
       <use xlink:href="#DejaVuSans-31"/>
       <use xlink:href="#DejaVuSans-36" x="63.623047"/>
       <use xlink:href="#DejaVuSans-68" x="127.246094"/>
      </g>
     </g>
    </g>
    <g id="xtick_3">
     <g id="line2d_5">
      <path d="M 117.12 307.584 
L 117.12 41.472 
" clip-path="url(#p77d676197e)" style="fill: none; stroke: #b0b0b0; stroke-width: 0.8; stroke-linecap: square"/>
     </g>
     <g id="line2d_6">
      <g>
       <use xlink:href="#m889a51d6ae" x="117.12" y="307.584" style="stroke: #000000; stroke-width: 0.8"/>
      </g>
     </g>
     <g id="text_2">
      <!-- 18h -->
      <g transform="translate(107.58875 322.182437) scale(0.1 -0.1)">
       <defs>
        <path id="DejaVuSans-38" d="M 2034 2216 
Q 1584 2216 1326 1975 
Q 1069 1734 1069 1313 
Q 1069 891 1326 650 
Q 1584 409 2034 409 
Q 2484 409 2743 651 
Q 3003 894 3003 1313 
Q 3003 1734 2745 1975 
Q 2488 2216 2034 2216 
z
M 1403 2484 
Q 997 2584 770 2862 
Q 544 3141 544 3541 
Q 544 4100 942 4425 
Q 1341 4750 2034 4750 
Q 2731 4750 3128 4425 
Q 3525 4100 3525 3541 
Q 3525 3141 3298 2862 
Q 3072 2584 2669 2484 
Q 3125 2378 3379 2068 
Q 3634 1759 3634 1313 
Q 3634 634 3220 271 
Q 2806 -91 2034 -91 
Q 1263 -91 848 271 
Q 434 634 434 1313 
Q 434 1759 690 2068 
Q 947 2378 1403 2484 
z
M 1172 3481 
Q 1172 3119 1398 2916 
Q 1625 2713 2034 2713 
Q 2441 2713 2670 2916 
Q 2900 3119 2900 3481 
Q 2900 3844 2670 4047 
Q 2441 4250 2034 4250 
Q 1625 4250 1398 4047 
Q 1172 3844 1172 3481 
z
" transform="scale(0.015625)"/>
       </defs>
       <use xlink:href="#DejaVuSans-31"/>
       <use xlink:href="#DejaVuSans-38" x="63.623047"/>
       <use xlink:href="#DejaVuSans-68" x="127.246094"/>
      </g>
     </g>
    </g>
    <g id="xtick_4">
     <g id="line2d_7">
      <path d="M 146.88 307.584 
L 146.88 41.472 
" clip-path="url(#p77d676197e)" style="fill: none; stroke: #b0b0b0; stroke-width: 0.8; stroke-linecap: square"/>
     </g>
     <g id="line2d_8">
      <g>
       <use xlink:href="#m889a51d6ae" x="146.88" y="307.584" style="stroke: #000000; stroke-width: 0.8"/>
      </g>
     </g>
     <g id="text_3">
      <!-- 20h -->
      <g transform="translate(137.34875 322.182437) scale(0.1 -0.1)">
       <defs>
        <path id="DejaVuSans-32" d="M 1228 531 
L 3431 531 
L 3431 0 
L 469 0 
L 469 531 
Q 828 903 1448 1529 
Q 2069 2156 2228 2338 
Q 2531 2678 2651 2914 
Q 2772 3150 2772 3378 
Q 2772 3750 2511 3984 
Q 2250 4219 1831 4219 
Q 1534 4219 1204 4116 
Q 875 4013 500 3803 
L 500 4441 
Q 881 4594 1212 4672 
Q 1544 4750 1819 4750 
Q 2544 4750 2975 4387 
Q 3406 4025 3406 3419 
Q 3406 3131 3298 2873 
Q 3191 2616 2906 2266 
Q 2828 2175 2409 1742 
Q 1991 1309 1228 531 
z
" transform="scale(0.015625)"/>
        <path id="DejaVuSans-30" d="M 2034 4250 
Q 1547 4250 1301 3770 
Q 1056 3291 1056 2328 
Q 1056 1369 1301 889 
Q 1547 409 2034 409 
Q 2525 409 2770 889 
Q 3016 1369 3016 2328 
Q 3016 3291 2770 3770 
Q 2525 4250 2034 4250 
z
M 2034 4750 
Q 2819 4750 3233 4129 
Q 3647 3509 3647 2328 
Q 3647 1150 3233 529 
Q 2819 -91 2034 -91 
Q 1250 -91 836 529 
Q 422 1150 422 2328 
Q 422 3509 836 4129 
Q 1250 4750 2034 4750 
z
" transform="scale(0.015625)"/>
       </defs>
       <use xlink:href="#DejaVuSans-32"/>
       <use xlink:href="#DejaVuSans-30" x="63.623047"/>
       <use xlink:href="#DejaVuSans-68" x="127.246094"/>
      </g>
     </g>
    </g>
    <g id="xtick_5">
     <g id="line2d_9">
      <path d="M 176.64 307.584 
L 176.64 41.472 
" clip-path="url(#p77d676197e)" style="fill: none; stroke: #b0b0b0; stroke-width: 0.8; stroke-linecap: square"/>
     </g>
     <g id="line2d_10">
      <g>
       <use xlink:href="#m889a51d6ae" x="176.64" y="307.584" style="stroke: #000000; stroke-width: 0.8"/>
      </g>
     </g>
     <g id="text_4">
      <!-- 22h -->
      <g transform="translate(167.10875 322.182437) scale(0.1 -0.1)">
       <use xlink:href="#DejaVuSans-32"/>
       <use xlink:href="#DejaVuSans-32" x="63.623047"/>
       <use xlink:href="#DejaVuSans-68" x="127.246094"/>
      </g>
     </g>
    </g>
    <g id="xtick_6">
     <g id="line2d_11">
      <path d="M 206.4 307.584 
L 206.4 41.472 
" clip-path="url(#p77d676197e)" style="fill: none; stroke: #b0b0b0; stroke-width: 0.8; stroke-linecap: square"/>
     </g>
     <g id="line2d_12">
      <g>
       <use xlink:href="#m889a51d6ae" x="206.4" y="307.584" style="stroke: #000000; stroke-width: 0.8"/>
      </g>
     </g>
     <g id="text_5">
      <!-- 00h -->
      <g transform="translate(196.86875 322.182437) scale(0.1 -0.1)">
       <use xlink:href="#DejaVuSans-30"/>
       <use xlink:href="#DejaVuSans-30" x="63.623047"/>
       <use xlink:href="#DejaVuSans-68" x="127.246094"/>
      </g>
     </g>
    </g>
    <g id="xtick_7">
     <g id="line2d_13">
      <path d="M 236.16 307.584 
L 236.16 41.472 
" clip-path="url(#p77d676197e)" style="fill: none; stroke: #b0b0b0; stroke-width: 0.8; stroke-linecap: square"/>
     </g>
     <g id="line2d_14">
      <g>
       <use xlink:href="#m889a51d6ae" x="236.16" y="307.584" style="stroke: #000000; stroke-width: 0.8"/>
      </g>
     </g>
     <g id="text_6">
      <!-- 02h -->
      <g transform="translate(226.62875 322.182437) scale(0.1 -0.1)">
       <use xlink:href="#DejaVuSans-30"/>
       <use xlink:href="#DejaVuSans-32" x="63.623047"/>
       <use xlink:href="#DejaVuSans-68" x="127.246094"/>
      </g>
     </g>
    </g>
    <g id="xtick_8">
     <g id="line2d_15">
      <path d="M 265.92 307.584 
L 265.92 41.472 
" clip-path="url(#p77d676197e)" style="fill: none; stroke: #b0b0b0; stroke-width: 0.8; stroke-linecap: square"/>
     </g>
     <g id="line2d_16">
      <g>
       <use xlink:href="#m889a51d6ae" x="265.92" y="307.584" style="stroke: #000000; stroke-width: 0.8"/>
      </g>
     </g>
     <g id="text_7">
      <!-- 04h -->
      <g transform="translate(256.38875 322.182437) scale(0.1 -0.1)">
       <defs>
        <path id="DejaVuSans-34" d="M 2419 4116 
L 825 1625 
L 2419 1625 
L 2419 4116 
z
M 2253 4666 
L 3047 4666 
L 3047 1625 
L 3713 1625 
L 3713 1100 
L 3047 1100 
L 3047 0 
L 2419 0 
L 2419 1100 
L 313 1100 
L 313 1709 
L 2253 4666 
z
" transform="scale(0.015625)"/>
       </defs>
       <use xlink:href="#DejaVuSans-30"/>
       <use xlink:href="#DejaVuSans-34" x="63.623047"/>
       <use xlink:href="#DejaVuSans-68" x="127.246094"/>
      </g>
     </g>
    </g>
    <g id="xtick_9">
     <g id="line2d_17">
      <path d="M 295.68 307.584 
L 295.68 41.472 
" clip-path="url(#p77d676197e)" style="fill: none; stroke: #b0b0b0; stroke-width: 0.8; stroke-linecap: square"/>
     </g>
     <g id="line2d_18">
      <g>
       <use xlink:href="#m889a51d6ae" x="295.68" y="307.584" style="stroke: #000000; stroke-width: 0.8"/>
      </g>
     </g>
     <g id="text_8">
      <!-- 06h -->
      <g transform="translate(286.14875 322.182437) scale(0.1 -0.1)">
       <use xlink:href="#DejaVuSans-30"/>
       <use xlink:href="#DejaVuSans-36" x="63.623047"/>
       <use xlink:href="#DejaVuSans-68" x="127.246094"/>
      </g>
     </g>
    </g>
    <g id="xtick_10">
     <g id="line2d_19">
      <path d="M 325.44 307.584 
L 325.44 41.472 
" clip-path="url(#p77d676197e)" style="fill: none; stroke: #b0b0b0; stroke-width: 0.8; stroke-linecap: square"/>
     </g>
     <g id="line2d_20">
      <g>
       <use xlink:href="#m889a51d6ae" x="325.44" y="307.584" style="stroke: #000000; stroke-width: 0.8"/>
      </g>
     </g>
     <g id="text_9">
      <!-- 08h -->
      <g transform="translate(315.90875 322.182437) scale(0.1 -0.1)">
       <use xlink:href="#DejaVuSans-30"/>
       <use xlink:href="#DejaVuSans-38" x="63.623047"/>
       <use xlink:href="#DejaVuSans-68" x="127.246094"/>
      </g>
     </g>
    </g>
    <g id="xtick_11">
     <g id="line2d_21">
      <path d="M 355.2 307.584 
L 355.2 41.472 
" clip-path="url(#p77d676197e)" style="fill: none; stroke: #b0b0b0; stroke-width: 0.8; stroke-linecap: square"/>
     </g>
     <g id="line2d_22">
      <g>
       <use xlink:href="#m889a51d6ae" x="355.2" y="307.584" style="stroke: #000000; stroke-width: 0.8"/>
      </g>
     </g>
     <g id="text_10">
      <!-- 10h -->
      <g transform="translate(345.66875 322.182437) scale(0.1 -0.1)">
       <use xlink:href="#DejaVuSans-31"/>
       <use xlink:href="#DejaVuSans-30" x="63.623047"/>
       <use xlink:href="#DejaVuSans-68" x="127.246094"/>
      </g>
     </g>
    </g>
    <g id="xtick_12">
     <g id="line2d_23">
      <path d="M 384.96 307.584 
L 384.96 41.472 
" clip-path="url(#p77d676197e)" style="fill: none; stroke: #b0b0b0; stroke-width: 0.8; stroke-linecap: square"/>
     </g>
     <g id="line2d_24">
      <g>
       <use xlink:href="#m889a51d6ae" x="384.96" y="307.584" style="stroke: #000000; stroke-width: 0.8"/>
      </g>
     </g>
     <g id="text_11">
      <!-- 12h -->
      <g transform="translate(375.42875 322.182437) scale(0.1 -0.1)">
       <use xlink:href="#DejaVuSans-31"/>
       <use xlink:href="#DejaVuSans-32" x="63.623047"/>
       <use xlink:href="#DejaVuSans-68" x="127.246094"/>
      </g>
     </g>
    </g>
    <g id="xtick_13">
     <g id="line2d_25">
      <path d="M 414.72 307.584 
L 414.72 41.472 
" clip-path="url(#p77d676197e)" style="fill: none; stroke: #b0b0b0; stroke-width: 0.8; stroke-linecap: square"/>
     </g>
     <g id="line2d_26">
      <g>
       <use xlink:href="#m889a51d6ae" x="414.72" y="307.584" style="stroke: #000000; stroke-width: 0.8"/>
      </g>
     </g>
     <g id="text_12">
      <!-- 14h -->
      <g transform="translate(405.18875 322.182437) scale(0.1 -0.1)">
       <use xlink:href="#DejaVuSans-31"/>
       <use xlink:href="#DejaVuSans-34" x="63.623047"/>
       <use xlink:href="#DejaVuSans-68" x="127.246094"/>
      </g>
     </g>
    </g>
   </g>
   <g id="matplotlib.axis_2">
    <g id="ytick_1">
     <g id="line2d_27">
      <path d="M 57.6 307.584 
L 414.72 307.584 
" clip-path="url(#p77d676197e)" style="fill: none; stroke: #b0b0b0; stroke-width: 0.8; stroke-linecap: square"/>
     </g>
     <g id="line2d_28">
      <defs>
       <path id="m4e631fe094" d="M 0 0 
L -3.5 0 
" style="stroke: #000000; stroke-width: 0.8"/>
      </defs>
      <g>
       <use xlink:href="#m4e631fe094" x="57.6" y="307.584" style="stroke: #000000; stroke-width: 0.8"/>
      </g>
     </g>
     <g id="text_13">
      <!-- 35 -->
      <g transform="translate(37.875 311.383219) scale(0.1 -0.1)">
       <defs>
        <path id="DejaVuSans-33" d="M 2597 2516 
Q 3050 2419 3304 2112 
Q 3559 1806 3559 1356 
Q 3559 666 3084 287 
Q 2609 -91 1734 -91 
Q 1441 -91 1130 -33 
Q 819 25 488 141 
L 488 750 
Q 750 597 1062 519 
Q 1375 441 1716 441 
Q 2309 441 2620 675 
Q 2931 909 2931 1356 
Q 2931 1769 2642 2001 
Q 2353 2234 1838 2234 
L 1294 2234 
L 1294 2753 
L 1863 2753 
Q 2328 2753 2575 2939 
Q 2822 3125 2822 3475 
Q 2822 3834 2567 4026 
Q 2313 4219 1838 4219 
Q 1578 4219 1281 4162 
Q 984 4106 628 3988 
L 628 4550 
Q 988 4650 1302 4700 
Q 1616 4750 1894 4750 
Q 2613 4750 3031 4423 
Q 3450 4097 3450 3541 
Q 3450 3153 3228 2886 
Q 3006 2619 2597 2516 
z
" transform="scale(0.015625)"/>
        <path id="DejaVuSans-35" d="M 691 4666 
L 3169 4666 
L 3169 4134 
L 1269 4134 
L 1269 2991 
Q 1406 3038 1543 3061 
Q 1681 3084 1819 3084 
Q 2600 3084 3056 2656 
Q 3513 2228 3513 1497 
Q 3513 744 3044 326 
Q 2575 -91 1722 -91 
Q 1428 -91 1123 -41 
Q 819 9 494 109 
L 494 744 
Q 775 591 1075 516 
Q 1375 441 1709 441 
Q 2250 441 2565 725 
Q 2881 1009 2881 1497 
Q 2881 1984 2565 2268 
Q 2250 2553 1709 2553 
Q 1456 2553 1204 2497 
Q 953 2441 691 2322 
L 691 4666 
z
" transform="scale(0.015625)"/>
       </defs>
       <use xlink:href="#DejaVuSans-33"/>
       <use xlink:href="#DejaVuSans-35" x="63.623047"/>
      </g>
     </g>
    </g>
    <g id="ytick_2">
     <g id="line2d_29">
      <path d="M 57.6 278.016 
L 414.72 278.016 
" clip-path="url(#p77d676197e)" style="fill: none; stroke: #b0b0b0; stroke-width: 0.8; stroke-linecap: square"/>
     </g>
     <g id="line2d_30">
      <g>
       <use xlink:href="#m4e631fe094" x="57.6" y="278.016" style="stroke: #000000; stroke-width: 0.8"/>
      </g>
     </g>
     <g id="text_14">
      <!-- 40 -->
      <g transform="translate(37.875 281.815219) scale(0.1 -0.1)">
       <use xlink:href="#DejaVuSans-34"/>
       <use xlink:href="#DejaVuSans-30" x="63.623047"/>
      </g>
     </g>
    </g>
    <g id="ytick_3">
     <g id="line2d_31">
      <path d="M 57.6 248.448 
L 414.72 248.448 
" clip-path="url(#p77d676197e)" style="fill: none; stroke: #b0b0b0; stroke-width: 0.8; stroke-linecap: square"/>
     </g>
     <g id="line2d_32">
      <g>
       <use xlink:href="#m4e631fe094" x="57.6" y="248.448" style="stroke: #000000; stroke-width: 0.8"/>
      </g>
     </g>
     <g id="text_15">
      <!-- 45 -->
      <g transform="translate(37.875 252.247219) scale(0.1 -0.1)">
       <use xlink:href="#DejaVuSans-34"/>
       <use xlink:href="#DejaVuSans-35" x="63.623047"/>
      </g>
     </g>
    </g>
    <g id="ytick_4">
     <g id="line2d_33">
      <path d="M 57.6 218.88 
L 414.72 218.88 
" clip-path="url(#p77d676197e)" style="fill: none; stroke: #b0b0b0; stroke-width: 0.8; stroke-linecap: square"/>
     </g>
     <g id="line2d_34">
      <g>
       <use xlink:href="#m4e631fe094" x="57.6" y="218.88" style="stroke: #000000; stroke-width: 0.8"/>
      </g>
     </g>
     <g id="text_16">
      <!-- 50 -->
      <g transform="translate(37.875 222.679219) scale(0.1 -0.1)">
       <use xlink:href="#DejaVuSans-35"/>
       <use xlink:href="#DejaVuSans-30" x="63.623047"/>
      </g>
     </g>
    </g>
    <g id="ytick_5">
     <g id="line2d_35">
      <path d="M 57.6 189.312 
L 414.72 189.312 
" clip-path="url(#p77d676197e)" style="fill: none; stroke: #b0b0b0; stroke-width: 0.8; stroke-linecap: square"/>
     </g>
     <g id="line2d_36">
      <g>
       <use xlink:href="#m4e631fe094" x="57.6" y="189.312" style="stroke: #000000; stroke-width: 0.8"/>
      </g>
     </g>
     <g id="text_17">
      <!-- 55 -->
      <g transform="translate(37.875 193.111219) scale(0.1 -0.1)">
       <use xlink:href="#DejaVuSans-35"/>
       <use xlink:href="#DejaVuSans-35" x="63.623047"/>
      </g>
     </g>
    </g>
    <g id="ytick_6">
     <g id="line2d_37">
      <path d="M 57.6 159.744 
L 414.72 159.744 
" clip-path="url(#p77d676197e)" style="fill: none; stroke: #b0b0b0; stroke-width: 0.8; stroke-linecap: square"/>
     </g>
     <g id="line2d_38">
      <g>
       <use xlink:href="#m4e631fe094" x="57.6" y="159.744" style="stroke: #000000; stroke-width: 0.8"/>
      </g>
     </g>
     <g id="text_18">
      <!-- 60 -->
      <g transform="translate(37.875 163.543219) scale(0.1 -0.1)">
       <use xlink:href="#DejaVuSans-36"/>
       <use xlink:href="#DejaVuSans-30" x="63.623047"/>
      </g>
     </g>
    </g>
    <g id="ytick_7">
     <g id="line2d_39">
      <path d="M 57.6 130.176 
L 414.72 130.176 
" clip-path="url(#p77d676197e)" style="fill: none; stroke: #b0b0b0; stroke-width: 0.8; stroke-linecap: square"/>
     </g>
     <g id="line2d_40">
      <g>
       <use xlink:href="#m4e631fe094" x="57.6" y="130.176" style="stroke: #000000; stroke-width: 0.8"/>
      </g>
     </g>
     <g id="text_19">
      <!-- 65 -->
      <g transform="translate(37.875 133.975219) scale(0.1 -0.1)">
       <use xlink:href="#DejaVuSans-36"/>
       <use xlink:href="#DejaVuSans-35" x="63.623047"/>
      </g>
     </g>
    </g>
    <g id="ytick_8">
     <g id="line2d_41">
      <path d="M 57.6 100.608 
L 414.72 100.608 
" clip-path="url(#p77d676197e)" style="fill: none; stroke: #b0b0b0; stroke-width: 0.8; stroke-linecap: square"/>
     </g>
     <g id="line2d_42">
      <g>
       <use xlink:href="#m4e631fe094" x="57.6" y="100.608" style="stroke: #000000; stroke-width: 0.8"/>
      </g>
     </g>
     <g id="text_20">
      <!-- 70 -->
      <g transform="translate(37.875 104.407219) scale(0.1 -0.1)">
       <defs>
        <path id="DejaVuSans-37" d="M 525 4666 
L 3525 4666 
L 3525 4397 
L 1831 0 
L 1172 0 
L 2766 4134 
L 525 4134 
L 525 4666 
z
" transform="scale(0.015625)"/>
       </defs>
       <use xlink:href="#DejaVuSans-37"/>
       <use xlink:href="#DejaVuSans-30" x="63.623047"/>
      </g>
     </g>
    </g>
    <g id="ytick_9">
     <g id="line2d_43">
      <path d="M 57.6 71.04 
L 414.72 71.04 
" clip-path="url(#p77d676197e)" style="fill: none; stroke: #b0b0b0; stroke-width: 0.8; stroke-linecap: square"/>
     </g>
     <g id="line2d_44">
      <g>
       <use xlink:href="#m4e631fe094" x="57.6" y="71.04" style="stroke: #000000; stroke-width: 0.8"/>
      </g>
     </g>
     <g id="text_21">
      <!-- 75 -->
      <g transform="translate(37.875 74.839219) scale(0.1 -0.1)">
       <use xlink:href="#DejaVuSans-37"/>
       <use xlink:href="#DejaVuSans-35" x="63.623047"/>
      </g>
     </g>
    </g>
    <g id="ytick_10">
     <g id="line2d_45">
      <path d="M 57.6 41.472 
L 414.72 41.472 
" clip-path="url(#p77d676197e)" style="fill: none; stroke: #b0b0b0; stroke-width: 0.8; stroke-linecap: square"/>
     </g>
     <g id="line2d_46">
      <g>
       <use xlink:href="#m4e631fe094" x="57.6" y="41.472" style="stroke: #000000; stroke-width: 0.8"/>
      </g>
     </g>
     <g id="text_22">
      <!-- 80 -->
      <g transform="translate(37.875 45.271219) scale(0.1 -0.1)">
       <use xlink:href="#DejaVuSans-38"/>
       <use xlink:href="#DejaVuSans-30" x="63.623047"/>
      </g>
     </g>
    </g>
   </g>
   <g id="line2d_47">
    <path d="M 57.6 124.032498 
L 57.6 124.405429 
L 58.110901 124.405429 
L 58.110901 122.450156 
L 58.621803 122.450156 
L 58.621803 120.858375 
L 59.132704 120.858375 
L 59.132704 118.622604 
L 59.643605 118.622604 
L 59.643605 116.202901 
L 60.154506 116.202901 
L 60.154506 114.084706 
L 60.665408 114.084706 
L 60.665408 112.863074 
L 61.176309 112.863074 
L 61.176309 112.354508 
L 62.709013 112.264031 
L 62.709013 111.987545 
L 63.219914 111.987545 
L 63.219914 111.700779 
L 64.241717 111.790536 
L 64.241717 112.31056 
L 64.752618 112.31056 
L 64.752618 113.453728 
L 65.263519 113.453728 
L 65.263519 115.010242 
L 65.774421 115.010242 
L 65.774421 116.355607 
L 66.285322 116.355607 
L 66.285322 117.922463 
L 66.796223 117.922463 
L 66.796223 120.524508 
L 67.307124 120.524508 
L 67.307124 121.89878 
L 67.818026 121.89878 
L 67.818026 123.965429 
L 68.328927 123.965429 
L 68.328927 124.148727 
L 68.839828 124.148727 
L 68.839828 119.0331 
L 69.35073 119.0331 
L 69.35073 112.402337 
L 69.861631 112.402337 
L 69.861631 109.254052 
L 70.372532 109.254052 
L 70.372532 105.525926 
L 70.883433 105.525926 
L 70.883433 100.863757 
L 71.394335 100.863757 
L 71.394335 96.75485 
L 71.905236 96.75485 
L 71.905236 75.73718 
L 72.416137 75.73718 
L 72.416137 83.195065 
L 72.927039 83.195065 
L 72.927039 84.224952 
L 73.43794 84.224952 
L 73.43794 91.892192 
L 73.948841 91.892192 
L 73.948841 93.571616 
L 74.459742 93.571616 
L 74.459742 98.770767 
L 74.970644 98.770767 
L 74.970644 100.493253 
L 75.481545 100.493253 
L 75.481545 101.49162 
L 75.992446 101.49162 
L 75.992446 99.884331 
L 76.503348 99.884331 
L 76.503348 99.103036 
L 77.014249 99.103036 
L 77.014249 102.965192 
L 77.52515 102.965192 
L 77.52515 108.190038 
L 78.036052 108.190038 
L 78.036052 113.581384 
L 78.546953 113.581384 
L 78.546953 111.230738 
L 79.057854 111.230738 
L 79.057854 113.352858 
L 79.568755 113.352858 
L 79.568755 115.113197 
L 80.079657 115.113197 
L 80.079657 115.448729 
L 80.590558 115.448729 
L 80.590558 116.061129 
L 81.101459 116.061129 
L 81.101459 119.206513 
L 81.612361 119.206513 
L 81.612361 123.724036 
L 82.123262 123.724036 
L 82.123262 128.075446 
L 82.634163 128.075446 
L 82.634163 131.385995 
L 83.145064 131.385995 
L 83.145064 132.260048 
L 83.655966 132.260048 
L 83.655966 131.091978 
L 84.166867 131.091978 
L 84.166867 129.825162 
L 84.677768 129.825162 
L 84.677768 127.759483 
L 85.18867 127.759483 
L 85.18867 121.211219 
L 85.699571 121.211219 
L 85.699571 125.155875 
L 86.210472 125.155875 
L 86.210472 112.524585 
L 86.721373 112.524585 
L 86.721373 111.436482 
L 87.232275 111.436482 
L 87.232275 120.714127 
L 87.743176 120.714127 
L 87.743176 110.582067 
L 88.254077 110.582067 
L 88.254077 115.296356 
L 88.764979 115.296356 
L 88.764979 118.841762 
L 89.27588 118.841762 
L 89.27588 116.601759 
L 89.786781 116.601759 
L 89.786781 110.216234 
L 90.297682 110.216234 
L 90.297682 122.072275 
L 90.808584 122.072275 
L 90.808584 108.607188 
L 91.319485 108.607188 
L 91.319485 111.666312 
L 91.830386 111.666312 
L 91.830386 112.842587 
L 92.341288 112.842587 
L 92.341288 113.52379 
L 92.852189 113.52379 
L 92.852189 113.168518 
L 93.36309 113.168518 
L 93.36309 112.655063 
L 93.873991 112.655063 
L 93.873991 111.912779 
L 94.384893 111.912779 
L 94.384893 110.919847 
L 94.895794 110.919847 
L 94.895794 109.949647 
L 95.406695 109.949647 
L 95.406695 108.686915 
L 95.917597 108.686915 
L 95.917597 107.331933 
L 96.428498 107.331933 
L 96.428498 108.104096 
L 96.939399 108.104096 
L 96.939399 106.234935 
L 97.961202 106.137668 
L 97.961202 105.897018 
L 98.472103 105.897018 
L 98.472103 105.647378 
L 99.493906 105.667566 
L 99.493906 106.348159 
L 100.004807 106.348159 
L 100.004807 107.221236 
L 100.515708 107.221236 
L 100.515708 107.775401 
L 101.026609 107.775401 
L 101.026609 107.321339 
L 101.537511 107.321339 
L 101.537511 105.186466 
L 102.048412 105.186466 
L 102.048412 101.7847 
L 102.559313 101.7847 
L 102.559313 97.617414 
L 103.070215 97.617414 
L 103.070215 93.201066 
L 103.581116 93.201066 
L 103.581116 89.791806 
L 104.092017 89.791806 
L 104.092017 87.277847 
L 104.602918 87.277847 
L 104.602918 82.826797 
L 105.11382 82.826797 
L 105.11382 82.357711 
L 105.624721 82.357711 
L 105.624721 80.367645 
L 106.135622 80.367645 
L 106.135622 79.407595 
L 107.157425 79.370601 
L 107.157425 80.4375 
L 107.668326 80.4375 
L 107.668326 82.512272 
L 108.179227 82.512272 
L 108.179227 85.561807 
L 108.690129 85.561807 
L 108.690129 89.575057 
L 109.20103 89.575057 
L 109.20103 94.105772 
L 109.711931 94.105772 
L 109.711931 98.746314 
L 110.222833 98.746314 
L 110.222833 103.509658 
L 110.733734 103.509658 
L 110.733734 108.294693 
L 111.244635 108.294693 
L 111.244635 113.53565 
L 111.755536 113.53565 
L 111.755536 119.667226 
L 112.266438 119.667226 
L 112.266438 125.803134 
L 112.777339 125.803134 
L 112.777339 130.994015 
L 113.28824 130.994015 
L 113.28824 134.248253 
L 113.799142 134.248253 
L 113.799142 134.481375 
L 114.310043 134.481375 
L 114.310043 132.322332 
L 114.820944 132.322332 
L 114.820944 128.877751 
L 115.331845 128.877751 
L 115.331845 124.290577 
L 115.842747 124.290577 
L 115.842747 119.275521 
L 116.353648 119.275521 
L 116.353648 114.258321 
L 116.864549 114.258321 
L 116.864549 108.301928 
L 117.375451 108.301928 
L 117.375451 103.847284 
L 117.886352 103.847284 
L 117.886352 105.098471 
L 118.397253 105.098471 
L 118.397253 108.32494 
L 118.908155 108.32494 
L 118.908155 107.16864 
L 119.419056 107.16864 
L 119.419056 104.590785 
L 119.929957 104.590785 
L 119.929957 106.46981 
L 120.440858 106.46981 
L 120.440858 110.547814 
L 120.95176 110.547814 
L 120.95176 109.725309 
L 121.462661 109.725309 
L 121.462661 113.786476 
L 121.973562 113.786476 
L 121.973562 115.60208 
L 122.484464 115.60208 
L 122.484464 118.157909 
L 122.995365 118.157909 
L 122.995365 120.400989 
L 123.506266 120.400989 
L 123.506266 121.966784 
L 124.017167 121.966784 
L 124.017167 122.347143 
L 124.528069 122.347143 
L 124.528069 122.158415 
L 125.03897 122.158415 
L 125.03897 120.766315 
L 125.549871 120.766315 
L 125.549871 118.050051 
L 126.060773 118.050051 
L 126.060773 119.950719 
L 126.571674 119.950719 
L 126.571674 125.102984 
L 127.082575 125.102984 
L 127.082575 108.616787 
L 127.593476 108.616787 
L 127.593476 124.806936 
L 128.104378 124.806936 
L 128.104378 121.963605 
L 128.615279 121.963605 
L 128.615279 122.26431 
L 129.12618 122.26431 
L 129.12618 128.894879 
L 129.637082 128.894879 
L 129.637082 128.420443 
L 130.147983 128.420443 
L 130.147983 130.573355 
L 131.169785 130.602623 
L 131.169785 130.130476 
L 131.680687 130.130476 
L 131.680687 129.498124 
L 132.191588 129.498124 
L 132.191588 129.655535 
L 132.702489 129.655535 
L 132.702489 130.16371 
L 133.213391 130.16371 
L 133.213391 130.280267 
L 133.724292 130.280267 
L 133.724292 130.010645 
L 134.235193 130.010645 
L 134.235193 129.014036 
L 134.746094 129.014036 
L 134.746094 127.519394 
L 135.256996 127.519394 
L 135.256996 126.61544 
L 135.767897 126.61544 
L 135.767897 125.065581 
L 136.278798 125.065581 
L 136.278798 120.863032 
L 136.7897 120.863032 
L 136.7897 116.307973 
L 137.300601 116.307973 
L 137.300601 114.539454 
L 137.811502 114.539454 
L 137.811502 115.041403 
L 138.322403 115.041403 
L 138.322403 116.506095 
L 138.833305 116.506095 
L 138.833305 118.781433 
L 139.344206 118.781433 
L 139.344206 121.053891 
L 139.855107 121.053891 
L 139.855107 121.48953 
L 140.366009 121.48953 
L 140.366009 121.871435 
L 140.87691 121.871435 
L 140.87691 114.430601 
L 141.387811 114.430601 
L 141.387811 109.849897 
L 141.898712 109.849897 
L 141.898712 105.047935 
L 142.409614 105.047935 
L 142.409614 101.398486 
L 142.920515 101.398486 
L 142.920515 99.395456 
L 143.431416 99.395456 
L 143.431416 98.958419 
L 143.942318 98.958419 
L 143.942318 101.452752 
L 144.453219 101.452752 
L 144.453219 108.518601 
L 144.96412 108.518601 
L 144.96412 118.501454 
L 145.475021 118.501454 
L 145.475021 127.706928 
L 145.985923 127.706928 
L 145.985923 138.53892 
L 146.496824 138.53892 
L 146.496824 143.303505 
L 147.007725 143.303505 
L 147.007725 144.541191 
L 147.518627 144.541191 
L 147.518627 147.70572 
L 148.029528 147.70572 
L 148.029528 144.671838 
L 148.540429 144.671838 
L 148.540429 143.406057 
L 149.05133 143.406057 
L 149.05133 140.058718 
L 149.562232 140.058718 
L 149.562232 141.575922 
L 150.073133 141.575922 
L 150.073133 145.518065 
L 150.584034 145.518065 
L 150.584034 125.362046 
L 151.094936 125.362046 
L 151.094936 136.651321 
L 151.605837 136.651321 
L 151.605837 134.304925 
L 152.116738 134.304925 
L 152.116738 136.714727 
L 152.627639 136.714727 
L 152.627639 136.378871 
L 153.138541 136.378871 
L 153.138541 135.409939 
L 154.160343 135.308485 
L 154.160343 135.55333 
L 154.671245 135.55333 
L 154.671245 135.755948 
L 155.182146 135.755948 
L 155.182146 136.055077 
L 155.693047 136.055077 
L 155.693047 136.495718 
L 156.203948 136.495718 
L 156.203948 137.236051 
L 156.71485 137.236051 
L 156.71485 138.500306 
L 157.225751 138.500306 
L 157.225751 139.947465 
L 157.736652 139.947465 
L 157.736652 140.950921 
L 158.247554 140.950921 
L 158.247554 141.309876 
L 158.758455 141.309876 
L 158.758455 141.433992 
L 159.269356 141.433992 
L 159.269356 140.93785 
L 159.780258 140.93785 
L 159.780258 138.249844 
L 160.291159 138.249844 
L 160.291159 136.894999 
L 160.80206 136.894999 
L 160.80206 136.01165 
L 161.312961 136.01165 
L 161.312961 136.516364 
L 161.823863 136.516364 
L 161.823863 137.951304 
L 162.845665 137.848167 
L 162.845665 142.754949 
L 163.356567 142.754949 
L 163.356567 150.037214 
L 163.867468 150.037214 
L 163.867468 143.769939 
L 164.378369 143.769939 
L 164.378369 156.715604 
L 165.400172 156.652624 
L 165.400172 157.459622 
L 165.911073 157.459622 
L 165.911073 157.938651 
L 166.421974 157.938651 
L 166.421974 158.408847 
L 166.932876 158.408847 
L 166.932876 158.12922 
L 167.443777 158.12922 
L 167.443777 157.526671 
L 167.954678 157.526671 
L 167.954678 156.102851 
L 168.465579 156.102851 
L 168.465579 153.946456 
L 168.976481 153.946456 
L 168.976481 152.984169 
L 169.487382 152.984169 
L 169.487382 149.105012 
L 169.998283 149.105012 
L 169.998283 146.834291 
L 170.509185 146.834291 
L 170.509185 144.880633 
L 171.020086 144.880633 
L 171.020086 143.333202 
L 171.530987 143.333202 
L 171.530987 141.919552 
L 172.041888 141.919552 
L 172.041888 142.874614 
L 172.55279 142.874614 
L 172.55279 145.315159 
L 173.063691 145.315159 
L 173.063691 138.804892 
L 173.574592 138.804892 
L 173.574592 145.280602 
L 174.085494 145.280602 
L 174.085494 144.289623 
L 174.596395 144.289623 
L 174.596395 144.712833 
L 175.107296 144.712833 
L 175.107296 146.008752 
L 175.618197 146.008752 
L 175.618197 148.330821 
L 176.129099 148.330821 
L 176.129099 148.972831 
L 176.64 148.972831 
L 176.64 148.71601 
L 177.150901 148.71601 
L 177.150901 156.172776 
L 177.661803 156.172776 
L 177.661803 154.976182 
L 178.172704 154.976182 
L 178.172704 155.848297 
L 178.683605 155.848297 
L 178.683605 159.809917 
L 179.194506 159.809917 
L 179.194506 158.897769 
L 179.705408 158.897769 
L 179.705408 157.071806 
L 180.216309 157.071806 
L 180.216309 155.123794 
L 180.72721 155.123794 
L 180.72721 154.189872 
L 181.238112 154.189872 
L 181.238112 154.954073 
L 181.749013 154.954073 
L 181.749013 156.833747 
L 182.259914 156.833747 
L 182.259914 159.712538 
L 182.770815 159.712538 
L 182.770815 162.704487 
L 183.281717 162.704487 
L 183.281717 162.14393 
L 183.792618 162.14393 
L 183.792618 159.344239 
L 184.303519 159.344239 
L 184.303519 166.16119 
L 184.814421 166.16119 
L 184.814421 158.252846 
L 185.325322 158.252846 
L 185.325322 162.710506 
L 185.836223 162.710506 
L 185.836223 168.480239 
L 186.347124 168.480239 
L 186.347124 165.514078 
L 186.858026 165.514078 
L 186.858026 170.040756 
L 187.368927 170.040756 
L 187.368927 181.335127 
L 187.879828 181.335127 
L 187.879828 156.688576 
L 188.39073 156.688576 
L 188.39073 187.934022 
L 188.901631 187.934022 
L 188.901631 134.016432 
L 189.412532 134.016432 
L 189.412532 198.17353 
L 189.923433 198.17353 
L 189.923433 170.170173 
L 190.434335 170.170173 
L 190.434335 173.526452 
L 190.945236 173.526452 
L 190.945236 153.108634 
L 191.456137 153.108634 
L 191.456137 173.722134 
L 191.967039 173.722134 
L 191.967039 146.865556 
L 192.47794 146.865556 
L 192.47794 163.046441 
L 192.988841 163.046441 
L 192.988841 132.71239 
L 193.499742 132.71239 
L 193.499742 164.973364 
L 194.010644 164.973364 
L 194.010644 131.559544 
L 194.521545 131.559544 
L 194.521545 149.129603 
L 195.032446 149.129603 
L 195.032446 148.568854 
L 195.543348 148.568854 
L 195.543348 134.213038 
L 196.054249 134.213038 
L 196.054249 122.162531 
L 196.56515 122.162531 
L 196.56515 178.752507 
L 197.076052 178.752507 
L 197.076052 154.944197 
L 197.586953 154.944197 
L 197.586953 162.054203 
L 198.097854 162.054203 
L 198.097854 162.776112 
L 198.608755 162.776112 
L 198.608755 151.782569 
L 199.119657 151.782569 
L 199.119657 208.048022 
L 199.630558 208.048022 
L 199.630558 203.290273 
L 200.141459 203.290273 
L 200.141459 233.770677 
L 200.652361 233.770677 
L 200.652361 177.525433 
L 201.163262 177.525433 
L 201.163262 217.904724 
L 201.674163 217.904724 
L 201.674163 234.232837 
L 202.185064 234.232837 
L 202.185064 203.305209 
L 202.695966 203.305209 
L 202.695966 188.405492 
L 203.206867 188.405492 
L 203.206867 221.496334 
L 203.717768 221.496334 
L 203.717768 197.532755 
L 204.22867 197.532755 
L 204.22867 192.870997 
L 204.739571 192.870997 
L 204.739571 189.86095 
L 205.250472 189.86095 
L 205.250472 232.182995 
L 205.761373 232.182995 
L 205.761373 210.113556 
L 206.272275 210.113556 
L 206.272275 217.196461 
L 206.783176 217.196461 
L 206.783176 171.03786 
L 207.294077 171.03786 
L 207.294077 196.39638 
L 207.804979 196.39638 
L 207.804979 193.797557 
L 208.31588 193.797557 
L 208.31588 206.516592 
L 208.826781 206.516592 
L 208.826781 210.731925 
L 209.337682 210.731925 
L 209.337682 206.217314 
L 209.848584 206.217314 
L 209.848584 257.092742 
L 210.359485 257.092742 
L 210.359485 224.244247 
L 210.870386 224.244247 
L 210.870386 212.695022 
L 211.381288 212.695022 
L 211.381288 220.417493 
L 211.892189 220.417493 
L 211.892189 222.508538 
L 212.40309 222.508538 
L 212.40309 241.530538 
L 212.913991 241.530538 
L 212.913991 170.408777 
L 213.424893 170.408777 
L 213.424893 204.353531 
L 213.935794 204.353531 
L 213.935794 213.628232 
L 214.446695 213.628232 
L 214.446695 221.208267 
L 214.957597 221.208267 
L 214.957597 220.431734 
L 215.468498 220.431734 
L 215.468498 250.268017 
L 215.979399 250.268017 
L 215.979399 241.037023 
L 216.4903 241.037023 
L 216.4903 226.85995 
L 217.001202 226.85995 
L 217.001202 198.877004 
L 217.512103 198.877004 
L 217.512103 222.253792 
L 218.023004 222.253792 
L 218.023004 194.410217 
L 218.533906 194.410217 
L 218.533906 214.820426 
L 219.044807 214.820426 
L 219.044807 213.779759 
L 219.555708 213.779759 
L 219.555708 209.144389 
L 220.066609 209.144389 
L 220.066609 228.312008 
L 220.577511 228.312008 
L 220.577511 196.475585 
L 221.088412 196.475585 
L 221.088412 262.442831 
L 221.599313 262.442831 
L 221.599313 269.081598 
L 222.110215 269.081598 
L 222.110215 176.80908 
L 222.621116 176.80908 
L 222.621116 261.861532 
L 223.132017 261.861532 
L 223.132017 252.988857 
L 223.642918 252.988857 
L 223.642918 208.484585 
L 224.15382 208.484585 
L 224.15382 206.689327 
L 224.664721 206.689327 
L 224.664721 207.445683 
L 225.175622 207.445683 
L 225.175622 239.00936 
L 225.686524 239.00936 
L 225.686524 222.869975 
L 226.197425 222.869975 
L 226.197425 191.832508 
L 226.708326 191.832508 
L 226.708326 228.317105 
L 227.219227 228.317105 
L 227.219227 179.990543 
L 227.730129 179.990543 
L 227.730129 201.632524 
L 228.24103 201.632524 
L 228.24103 203.349629 
L 228.751931 203.349629 
L 228.751931 221.145583 
L 229.262833 221.145583 
L 229.262833 245.261183 
L 229.773734 245.261183 
L 229.773734 265.25181 
L 230.284635 265.25181 
L 230.284635 253.798962 
L 230.795536 253.798962 
L 230.795536 227.59044 
L 231.306438 227.59044 
L 231.306438 239.510658 
L 231.817339 239.510658 
L 231.817339 267.191596 
L 232.32824 267.191596 
L 232.32824 197.427237 
L 232.839142 197.427237 
L 232.839142 220.621224 
L 233.350043 220.621224 
L 233.350043 218.754718 
L 233.860944 218.754718 
L 233.860944 243.705093 
L 234.371845 243.705093 
L 234.371845 206.07474 
L 234.882747 206.07474 
L 234.882747 197.466631 
L 235.393648 197.466631 
L 235.393648 184.774682 
L 235.904549 184.774682 
L 235.904549 156.564585 
L 236.415451 156.564585 
L 236.415451 201.339153 
L 236.926352 201.339153 
L 236.926352 248.793622 
L 237.437253 248.793622 
L 237.437253 195.15214 
L 237.948155 195.15214 
L 237.948155 214.435699 
L 238.459056 214.435699 
L 238.459056 212.391871 
L 238.969957 212.391871 
L 238.969957 227.367868 
L 239.480858 227.367868 
L 239.480858 211.559888 
L 239.99176 211.559888 
L 239.99176 192.619559 
L 240.502661 192.619559 
L 240.502661 202.224884 
L 241.013562 202.224884 
L 241.013562 221.597453 
L 241.524464 221.597453 
L 241.524464 247.624889 
L 242.035365 247.624889 
L 242.035365 249.262188 
L 242.546266 249.262188 
L 242.546266 246.568488 
L 243.057167 246.568488 
L 243.057167 235.023912 
L 243.568069 235.023912 
L 243.568069 190.754155 
L 244.07897 190.754155 
L 244.07897 171.62651 
L 244.589871 171.62651 
L 244.589871 194.09545 
L 245.100773 194.09545 
L 245.100773 151.526545 
L 245.611674 151.526545 
L 245.611674 184.591793 
L 246.122575 184.591793 
L 246.122575 175.67892 
L 246.633476 175.67892 
L 246.633476 171.081055 
L 247.144378 171.081055 
L 247.144378 178.523071 
L 247.655279 178.523071 
L 247.655279 164.092928 
L 248.16618 164.092928 
L 248.16618 176.584691 
L 248.677082 176.584691 
L 248.677082 174.916485 
L 249.187983 174.916485 
L 249.187983 171.920046 
L 249.698884 171.920046 
L 249.698884 181.941147 
L 250.209785 181.941147 
L 250.209785 183.975651 
L 250.720687 183.975651 
L 250.720687 272.16228 
L 251.231588 272.16228 
L 251.231588 193.699037 
L 251.742489 193.699037 
L 251.742489 206.563809 
L 252.253391 206.563809 
L 252.253391 209.628525 
L 252.764292 209.628525 
L 252.764292 215.568964 
L 253.275193 215.568964 
L 253.275193 218.28318 
L 253.786094 218.28318 
L 253.786094 209.195959 
L 254.296996 209.195959 
L 254.296996 218.40498 
L 254.807897 218.40498 
L 254.807897 200.509078 
L 255.318798 200.509078 
L 255.318798 173.163592 
L 255.8297 173.163592 
L 255.8297 237.860767 
L 256.340601 237.860767 
L 256.340601 179.052404 
L 256.851502 179.052404 
L 256.851502 175.296017 
L 257.362403 175.296017 
L 257.362403 165.119898 
L 257.873305 165.119898 
L 257.873305 166.298114 
L 258.384206 166.298114 
L 258.384206 189.543649 
L 258.895107 189.543649 
L 258.895107 176.624017 
L 259.406009 176.624017 
L 259.406009 161.561022 
L 259.91691 161.561022 
L 259.91691 184.991291 
L 260.427811 184.991291 
L 260.427811 217.424973 
L 260.938712 217.424973 
L 260.938712 201.195296 
L 261.449614 201.195296 
L 261.449614 207.107241 
L 261.960515 207.107241 
L 261.960515 172.544384 
L 262.471416 172.544384 
L 262.471416 141.082605 
L 262.982318 141.082605 
L 262.982318 208.231721 
L 263.493219 208.231721 
L 263.493219 144.584977 
L 264.00412 144.584977 
L 264.00412 157.405502 
L 264.515021 157.405502 
L 264.515021 154.665298 
L 265.025923 154.665298 
L 265.025923 174.586003 
L 265.536824 174.586003 
L 265.536824 150.87637 
L 266.047725 150.87637 
L 266.047725 175.327067 
L 266.558627 175.327067 
L 266.558627 153.82337 
L 267.069528 153.82337 
L 267.069528 175.676445 
L 267.580429 175.676445 
L 267.580429 164.976089 
L 268.09133 164.976089 
L 268.09133 163.233617 
L 268.602232 163.233617 
L 268.602232 155.862779 
L 269.113133 155.862779 
L 269.113133 159.066313 
L 269.624034 159.066313 
L 269.624034 156.835484 
L 270.134936 156.835484 
L 270.134936 160.089891 
L 270.645837 160.089891 
L 270.645837 141.459425 
L 271.156738 141.459425 
L 271.156738 172.157122 
L 271.667639 172.157122 
L 271.667639 158.555638 
L 272.178541 158.555638 
L 272.178541 152.066477 
L 272.689442 152.066477 
L 272.689442 135.49568 
L 273.200343 135.49568 
L 273.200343 126.47465 
L 273.711245 126.47465 
L 273.711245 140.371616 
L 274.222146 140.371616 
L 274.222146 115.422158 
L 274.733047 115.422158 
L 274.733047 159.349 
L 275.243948 159.349 
L 275.243948 102.383563 
L 275.75485 102.383563 
L 275.75485 165.373177 
L 276.265751 165.373177 
L 276.265751 145.143112 
L 276.776652 145.143112 
L 276.776652 125.927814 
L 277.287554 125.927814 
L 277.287554 141.629443 
L 277.798455 141.629443 
L 277.798455 194.1867 
L 278.309356 194.1867 
L 278.309356 153.119508 
L 278.820258 153.119508 
L 278.820258 130.940966 
L 279.331159 130.940966 
L 279.331159 159.273952 
L 279.84206 159.273952 
L 279.84206 218.481542 
L 280.352961 218.481542 
L 280.352961 174.887034 
L 280.863863 174.887034 
L 280.863863 183.166432 
L 281.374764 183.166432 
L 281.374764 167.698654 
L 281.885665 167.698654 
L 281.885665 168.487409 
L 282.396567 168.487409 
L 282.396567 150.767373 
L 282.907468 150.767373 
L 282.907468 125.528989 
L 283.418369 125.528989 
L 283.418369 152.811039 
L 283.92927 152.811039 
L 283.92927 108.872604 
L 284.440172 108.872604 
L 284.440172 134.50746 
L 284.951073 134.50746 
L 284.951073 169.867694 
L 285.461974 169.867694 
L 285.461974 155.520984 
L 285.972876 155.520984 
L 285.972876 171.421125 
L 286.483777 171.421125 
L 286.483777 121.159862 
L 286.994678 121.159862 
L 286.994678 185.730478 
L 287.505579 185.730478 
L 287.505579 150.390376 
L 288.016481 150.390376 
L 288.016481 197.63989 
L 288.527382 197.63989 
L 288.527382 169.138401 
L 289.038283 169.138401 
L 289.038283 140.721924 
L 289.549185 140.721924 
L 289.549185 158.200605 
L 290.060086 158.200605 
L 290.060086 160.113962 
L 290.570987 160.113962 
L 290.570987 161.682431 
L 291.081888 161.682431 
L 291.081888 152.503401 
L 291.59279 152.503401 
L 291.59279 148.707163 
L 292.103691 148.707163 
L 292.103691 146.094784 
L 292.614592 146.094784 
L 292.614592 140.811787 
L 293.125494 140.811787 
L 293.125494 135.596036 
L 293.636395 135.596036 
L 293.636395 133.32778 
L 294.147296 133.32778 
L 294.147296 133.098707 
L 294.658197 133.098707 
L 294.658197 133.415547 
L 295.169099 133.415547 
L 295.169099 134.288711 
L 295.68 134.288711 
L 295.68 135.358414 
L 296.190901 135.358414 
L 296.190901 136.172415 
L 296.701803 136.172415 
L 296.701803 137.102947 
L 297.212704 137.102947 
L 297.212704 136.61438 
L 297.723605 136.61438 
L 297.723605 132.242971 
L 298.234506 132.242971 
L 298.234506 126.206266 
L 298.745408 126.206266 
L 298.745408 122.163711 
L 299.256309 122.163711 
L 299.256309 118.683713 
L 299.76721 118.683713 
L 299.76721 113.423483 
L 300.278112 113.423483 
L 300.278112 107.890864 
L 300.789013 107.890864 
L 300.789013 103.99614 
L 301.299914 103.99614 
L 301.299914 101.904185 
L 301.810815 101.904185 
L 301.810815 101.611864 
L 302.321717 101.611864 
L 302.321717 103.080377 
L 302.832618 103.080377 
L 302.832618 106.054793 
L 303.343519 106.054793 
L 303.343519 110.349893 
L 303.854421 110.349893 
L 303.854421 114.973121 
L 304.365322 114.973121 
L 304.365322 119.118658 
L 304.876223 119.118658 
L 304.876223 125.034092 
L 305.387124 125.034092 
L 305.387124 131.72966 
L 305.898026 131.72966 
L 305.898026 125.75255 
L 306.408927 125.75255 
L 306.408927 136.345833 
L 306.919828 136.345833 
L 306.919828 132.216459 
L 307.43073 132.216459 
L 307.43073 128.128997 
L 307.941631 128.128997 
L 307.941631 125.877849 
L 308.452532 125.877849 
L 308.452532 124.824038 
L 308.963433 124.824038 
L 308.963433 122.629042 
L 309.474335 122.629042 
L 309.474335 120.081931 
L 309.985236 120.081931 
L 309.985236 118.307862 
L 310.496137 118.307862 
L 310.496137 117.047289 
L 311.007039 117.047289 
L 311.007039 115.994253 
L 311.51794 115.994253 
L 311.51794 115.31729 
L 312.028841 115.31729 
L 312.028841 115.044353 
L 313.050644 115.087041 
L 313.050644 115.484316 
L 313.561545 115.484316 
L 313.561545 115.6313 
L 314.072446 115.6313 
L 314.072446 114.988677 
L 314.583348 114.988677 
L 314.583348 113.995423 
L 315.094249 113.995423 
L 315.094249 113.079652 
L 315.60515 113.079652 
L 315.60515 113.244634 
L 316.116052 113.244634 
L 316.116052 115.463355 
L 316.626953 115.463355 
L 316.626953 119.037188 
L 317.137854 119.037188 
L 317.137854 122.874723 
L 317.648755 122.874723 
L 317.648755 125.514573 
L 318.159657 125.514573 
L 318.159657 126.800476 
L 318.670558 126.800476 
L 318.670558 127.496325 
L 319.181459 127.496325 
L 319.181459 123.460826 
L 319.692361 123.460826 
L 319.692361 116.959131 
L 320.203262 116.959131 
L 320.203262 130.409501 
L 320.714163 130.409501 
L 320.714163 117.184151 
L 321.225064 117.184151 
L 321.225064 120.309225 
L 321.735966 120.309225 
L 321.735966 120.122305 
L 322.246867 120.122305 
L 322.246867 118.526996 
L 322.757768 118.526996 
L 322.757768 116.143273 
L 323.26867 116.143273 
L 323.26867 113.004702 
L 323.779571 113.004702 
L 323.779571 109.436463 
L 324.290472 109.436463 
L 324.290472 115.113307 
L 324.801373 115.113307 
L 324.801373 109.752341 
L 325.823176 109.772646 
L 325.823176 110.020828 
L 326.334077 110.020828 
L 326.334077 118.333345 
L 326.844979 118.333345 
L 326.844979 127.158474 
L 327.35588 127.158474 
L 327.35588 125.004517 
L 327.866781 125.004517 
L 327.866781 119.40082 
L 328.377682 119.40082 
L 328.377682 122.005577 
L 328.888584 122.005577 
L 328.888584 128.225624 
L 329.399485 128.225624 
L 329.399485 131.023934 
L 329.910386 131.023934 
L 329.910386 131.988121 
L 330.421288 131.988121 
L 330.421288 132.81252 
L 330.932189 132.81252 
L 330.932189 132.673971 
L 331.953991 132.654172 
L 331.953991 132.074741 
L 332.464893 132.074741 
L 332.464893 124.026491 
L 332.975794 124.026491 
L 332.975794 122.820626 
L 333.486695 122.820626 
L 333.486695 117.545419 
L 333.997597 117.545419 
L 333.997597 114.570566 
L 334.508498 114.570566 
L 334.508498 109.079755 
L 335.019399 109.079755 
L 335.019399 112.668188 
L 335.5303 112.668188 
L 335.5303 112.111742 
L 336.041202 112.111742 
L 336.041202 111.56717 
L 336.552103 111.56717 
L 336.552103 114.089763 
L 337.063004 114.089763 
L 337.063004 118.416756 
L 337.573906 118.416756 
L 337.573906 106.71758 
L 338.084807 106.71758 
L 338.084807 118.919699 
L 338.595708 118.919699 
L 338.595708 112.857464 
L 339.106609 112.857464 
L 339.106609 113.933519 
L 339.617511 113.933519 
L 339.617511 112.643571 
L 340.128412 112.643571 
L 340.128412 113.035396 
L 340.639313 113.035396 
L 340.639313 111.493258 
L 341.150215 111.493258 
L 341.150215 109.035291 
L 341.661116 109.035291 
L 341.661116 115.508694 
L 342.172017 115.508694 
L 342.172017 106.916038 
L 342.682918 106.916038 
L 342.682918 113.413892 
L 343.19382 113.413892 
L 343.19382 110.077087 
L 343.704721 110.077087 
L 343.704721 111.661832 
L 344.726524 111.647185 
L 344.726524 112.667796 
L 345.237425 112.667796 
L 345.237425 114.448931 
L 345.748326 114.448931 
L 345.748326 110.791273 
L 346.259227 110.791273 
L 346.259227 115.924087 
L 346.770129 115.924087 
L 346.770129 117.16404 
L 347.28103 117.16404 
L 347.28103 121.449017 
L 347.791931 121.449017 
L 347.791931 120.491801 
L 348.302833 120.491801 
L 348.302833 127.229838 
L 348.813734 127.229838 
L 348.813734 129.737165 
L 349.324635 129.737165 
L 349.324635 132.617504 
L 349.835536 132.617504 
L 349.835536 135.260548 
L 350.346438 135.260548 
L 350.346438 137.021668 
L 350.857339 137.021668 
L 350.857339 135.890769 
L 351.36824 135.890769 
L 351.36824 132.411571 
L 351.879142 132.411571 
L 351.879142 131.35237 
L 352.390043 131.35237 
L 352.390043 133.269552 
L 352.900944 133.269552 
L 352.900944 120.614612 
L 353.411845 120.614612 
L 353.411845 132.450711 
L 353.922747 132.450711 
L 353.922747 129.269452 
L 354.433648 129.269452 
L 354.433648 131.703338 
L 354.944549 131.703338 
L 354.944549 133.254537 
L 355.455451 133.254537 
L 355.455451 135.149091 
L 355.966352 135.149091 
L 355.966352 138.629438 
L 356.477253 138.629438 
L 356.477253 142.251223 
L 356.988155 142.251223 
L 356.988155 132.589313 
L 357.499056 132.589313 
L 357.499056 137.784931 
L 358.009957 137.784931 
L 358.009957 131.913482 
L 358.520858 131.913482 
L 358.520858 126.646223 
L 359.03176 126.646223 
L 359.03176 122.37773 
L 359.542661 122.37773 
L 359.542661 119.299117 
L 360.053562 119.299117 
L 360.053562 111.085182 
L 360.564464 111.085182 
L 360.564464 110.95159 
L 361.075365 110.95159 
L 361.075365 108.587372 
L 362.097167 108.601068 
L 362.097167 108.922594 
L 362.608069 108.922594 
L 362.608069 109.04755 
L 363.11897 109.04755 
L 363.11897 111.508432 
L 363.629871 111.508432 
L 363.629871 108.493135 
L 364.140773 108.493135 
L 364.140773 108.28267 
L 364.651674 108.28267 
L 364.651674 107.889568 
L 365.162575 107.889568 
L 365.162575 108.140086 
L 365.673476 108.140086 
L 365.673476 108.757201 
L 366.184378 108.757201 
L 366.184378 109.524087 
L 366.695279 109.524087 
L 366.695279 110.296808 
L 367.20618 110.296808 
L 367.20618 110.839102 
L 367.717082 110.839102 
L 367.717082 111.193085 
L 368.227983 111.193085 
L 368.227983 111.536585 
L 368.738884 111.536585 
L 368.738884 111.689824 
L 369.249785 111.689824 
L 369.249785 111.509421 
L 369.760687 111.509421 
L 369.760687 111.212955 
L 370.271588 111.212955 
L 370.271588 110.978663 
L 370.782489 110.978663 
L 370.782489 111.21866 
L 371.293391 111.21866 
L 371.293391 112.345279 
L 371.804292 112.345279 
L 371.804292 114.03073 
L 372.315193 114.03073 
L 372.315193 115.803999 
L 372.826094 115.803999 
L 372.826094 117.238568 
L 373.336996 117.238568 
L 373.336996 117.879282 
L 373.847897 117.879282 
L 373.847897 117.751053 
L 374.358798 117.751053 
L 374.358798 117.02422 
L 374.8697 117.02422 
L 374.8697 115.747902 
L 375.380601 115.747902 
L 375.380601 114.23463 
L 375.891502 114.23463 
L 375.891502 112.694057 
L 376.402403 112.694057 
L 376.402403 110.118623 
L 376.913305 110.118623 
L 376.913305 106.565639 
L 377.424206 106.565639 
L 377.424206 106.922175 
L 377.935107 106.922175 
L 377.935107 105.243041 
L 378.446009 105.243041 
L 378.446009 97.377576 
L 378.95691 97.377576 
L 378.95691 102.325041 
L 379.467811 102.325041 
L 379.467811 100.796927 
L 379.978712 100.796927 
L 379.978712 101.323321 
L 380.489614 101.323321 
L 380.489614 102.83748 
L 381.000515 102.83748 
L 381.000515 105.307442 
L 381.511416 105.307442 
L 381.511416 107.931749 
L 382.022318 107.931749 
L 382.022318 110.484835 
L 382.533219 110.484835 
L 382.533219 112.938382 
L 383.04412 112.938382 
L 383.04412 114.935053 
L 383.555021 114.935053 
L 383.555021 115.955488 
L 384.065923 115.955488 
L 384.065923 116.098548 
L 384.576824 116.098548 
L 384.576824 116.293721 
L 385.598627 116.32601 
L 385.598627 113.618487 
L 386.109528 113.618487 
L 386.109528 114.176534 
L 386.620429 114.176534 
L 386.620429 112.875812 
L 387.13133 112.875812 
L 387.13133 112.527 
L 387.642232 112.527 
L 387.642232 114.076578 
L 388.153133 114.076578 
L 388.153133 117.275048 
L 388.664034 117.275048 
L 388.664034 118.746168 
L 389.685837 118.811901 
L 389.685837 128.137858 
L 390.196738 128.137858 
L 390.196738 120.929534 
L 390.707639 120.929534 
L 390.707639 125.312408 
L 391.218541 125.312408 
L 391.218541 122.81384 
L 391.729442 122.81384 
L 391.729442 122.117266 
L 392.240343 122.117266 
L 392.240343 120.121108 
L 392.751245 120.121108 
L 392.751245 117.35087 
L 393.262146 117.35087 
L 393.262146 113.147552 
L 393.773047 113.147552 
L 393.773047 112.136419 
L 394.283948 112.136419 
L 394.283948 107.512214 
L 394.79485 107.512214 
L 394.79485 102.856911 
L 395.305751 102.856911 
L 395.305751 96.143224 
L 395.816652 96.143224 
L 395.816652 116.305008 
L 396.327554 116.305008 
L 396.327554 100.140191 
L 396.838455 100.140191 
L 396.838455 108.114497 
L 397.349356 108.114497 
L 397.349356 113.347815 
L 397.860258 113.347815 
L 397.860258 117.771351 
L 398.371159 117.771351 
L 398.371159 120.710458 
L 398.88206 120.710458 
L 398.88206 123.873239 
L 399.392961 123.873239 
L 399.392961 126.970934 
L 399.903863 126.970934 
L 399.903863 128.181216 
L 400.414764 128.181216 
L 400.414764 127.671509 
L 400.925665 127.671509 
L 400.925665 130.576177 
L 401.436567 130.576177 
L 401.436567 126.081927 
L 401.947468 126.081927 
L 401.947468 123.34087 
L 402.458369 123.34087 
L 402.458369 120.205548 
L 402.96927 120.205548 
L 402.96927 119.002858 
L 403.480172 119.002858 
L 403.480172 118.225942 
L 403.991073 118.225942 
L 403.991073 120.783202 
L 404.501974 120.783202 
L 404.501974 117.092252 
L 405.012876 117.092252 
L 405.012876 115.600765 
L 405.523777 115.600765 
L 405.523777 117.843877 
L 406.034678 117.843877 
L 406.034678 117.350058 
L 406.545579 117.350058 
L 406.545579 116.828991 
L 407.056481 116.828991 
L 407.056481 116.421344 
L 407.567382 116.421344 
L 407.567382 115.974546 
L 408.078283 115.974546 
L 408.078283 115.165241 
L 408.589185 115.165241 
L 408.589185 114.184049 
L 409.100086 114.184049 
L 409.100086 112.459593 
L 409.610987 112.459593 
L 409.610987 109.684122 
L 410.121888 109.684122 
L 410.121888 108.957089 
L 410.63279 108.957089 
L 410.63279 109.595316 
L 411.143691 109.595316 
L 411.143691 98.083296 
L 411.654592 98.083296 
L 411.654592 104.350999 
L 412.165494 104.350999 
L 412.165494 100.814865 
L 412.676395 100.814865 
L 412.676395 99.581004 
L 413.187296 99.581004 
L 413.187296 99.137375 
L 413.698197 99.137375 
L 413.698197 99.407132 
L 414.72 99.303008 
L 414.72 99.303008 
" clip-path="url(#p77d676197e)" style="fill: none; stroke: #000000; stroke-width: 0.4; stroke-linecap: square"/>
   </g>
   <g id="patch_3">
    <path d="M 57.6 307.584 
L 57.6 41.472 
" style="fill: none; stroke: #000000; stroke-width: 0.8; stroke-linejoin: miter; stroke-linecap: square"/>
   </g>
   <g id="patch_4">
    <path d="M 414.72 307.584 
L 414.72 41.472 
" style="fill: none; stroke: #000000; stroke-width: 0.8; stroke-linejoin: miter; stroke-linecap: square"/>
   </g>
   <g id="patch_5">
    <path d="M 57.6 307.584 
L 414.72 307.584 
" style="fill: none; stroke: #000000; stroke-width: 0.8; stroke-linejoin: miter; stroke-linecap: square"/>
   </g>
   <g id="patch_6">
    <path d="M 57.6 41.472 
L 414.72 41.472 
" style="fill: none; stroke: #000000; stroke-width: 0.8; stroke-linejoin: miter; stroke-linecap: square"/>
   </g>
  </g>
 </g>
 <defs>
  <clipPath id="p77d676197e">
   <rect x="57.6" y="41.472" width="357.12" height="266.112"/>
  </clipPath>
 </defs>
</svg>
