<?xml version="1.0" encoding="utf-8" standalone="no"?>
<!DOCTYPE svg PUBLIC "-//W3C//DTD SVG 1.1//EN"
  "http://www.w3.org/Graphics/SVG/1.1/DTD/svg11.dtd">
<svg xmlns:xlink="http://www.w3.org/1999/xlink" width="460.8pt" height="345.6pt" viewBox="0 0 460.8 345.6" xmlns="http://www.w3.org/2000/svg" version="1.1">
 <metadata>
  <rdf:RDF xmlns:dc="http://purl.org/dc/elements/1.1/" xmlns:cc="http://creativecommons.org/ns#" xmlns:rdf="http://www.w3.org/1999/02/22-rdf-syntax-ns#">
   <cc:Work>
    <dc:type rdf:resource="http://purl.org/dc/dcmitype/StillImage"/>
    <dc:date>2024-05-11T17:13:48.929338</dc:date>
    <dc:format>image/svg+xml</dc:format>
    <dc:creator>
     <cc:Agent>
      <dc:title>Matplotlib v3.8.4, https://matplotlib.org/</dc:title>
     </cc:Agent>
    </dc:creator>
   </cc:Work>
  </rdf:RDF>
 </metadata>
 <defs>
  <style type="text/css">*{stroke-linejoin: round; stroke-linecap: butt}</style>
 </defs>
 <g id="figure_1">
  <g id="patch_1">
   <path d="M 0 345.6 
L 460.8 345.6 
L 460.8 0 
L 0 0 
z
" style="fill: #ffffff"/>
  </g>
  <g id="axes_1">
   <g id="patch_2">
    <path d="M 57.6 307.584 
L 414.72 307.584 
L 414.72 41.472 
L 57.6 41.472 
z
" style="fill: #ffffff"/>
   </g>
   <g id="matplotlib.axis_1">
    <g id="xtick_1">
     <g id="line2d_1">
      <path d="M 57.6 307.584 
L 57.6 41.472 
" clip-path="url(#p8b9236e2e0)" style="fill: none; stroke: #b0b0b0; stroke-width: 0.8; stroke-linecap: square"/>
     </g>
     <g id="line2d_2">
      <defs>
       <path id="m13a5b1d667" d="M 0 0 
L 0 3.5 
" style="stroke: #000000; stroke-width: 0.8"/>
      </defs>
      <g>
       <use xlink:href="#m13a5b1d667" x="57.6" y="307.584" style="stroke: #000000; stroke-width: 0.8"/>
      </g>
     </g>
    </g>
    <g id="xtick_2">
     <g id="line2d_3">
      <path d="M 87.36 307.584 
L 87.36 41.472 
" clip-path="url(#p8b9236e2e0)" style="fill: none; stroke: #b0b0b0; stroke-width: 0.8; stroke-linecap: square"/>
     </g>
     <g id="line2d_4">
      <g>
       <use xlink:href="#m13a5b1d667" x="87.36" y="307.584" style="stroke: #000000; stroke-width: 0.8"/>
      </g>
     </g>
     <g id="text_1">
      <!-- 16h -->
      <g transform="translate(77.82875 322.182437) scale(0.1 -0.1)">
       <defs>
        <path id="DejaVuSans-31" d="M 794 531 
L 1825 531 
L 1825 4091 
L 703 3866 
L 703 4441 
L 1819 4666 
L 2450 4666 
L 2450 531 
L 3481 531 
L 3481 0 
L 794 0 
L 794 531 
z
" transform="scale(0.015625)"/>
        <path id="DejaVuSans-36" d="M 2113 2584 
Q 1688 2584 1439 2293 
Q 1191 2003 1191 1497 
Q 1191 994 1439 701 
Q 1688 409 2113 409 
Q 2538 409 2786 701 
Q 3034 994 3034 1497 
Q 3034 2003 2786 2293 
Q 2538 2584 2113 2584 
z
M 3366 4563 
L 3366 3988 
Q 3128 4100 2886 4159 
Q 2644 4219 2406 4219 
Q 1781 4219 1451 3797 
Q 1122 3375 1075 2522 
Q 1259 2794 1537 2939 
Q 1816 3084 2150 3084 
Q 2853 3084 3261 2657 
Q 3669 2231 3669 1497 
Q 3669 778 3244 343 
Q 2819 -91 2113 -91 
Q 1303 -91 875 529 
Q 447 1150 447 2328 
Q 447 3434 972 4092 
Q 1497 4750 2381 4750 
Q 2619 4750 2861 4703 
Q 3103 4656 3366 4563 
z
" transform="scale(0.015625)"/>
        <path id="DejaVuSans-68" d="M 3513 2113 
L 3513 0 
L 2938 0 
L 2938 2094 
Q 2938 2591 2744 2837 
Q 2550 3084 2163 3084 
Q 1697 3084 1428 2787 
Q 1159 2491 1159 1978 
L 1159 0 
L 581 0 
L 581 4863 
L 1159 4863 
L 1159 2956 
Q 1366 3272 1645 3428 
Q 1925 3584 2291 3584 
Q 2894 3584 3203 3211 
Q 3513 2838 3513 2113 
z
" transform="scale(0.015625)"/>
       </defs>
       <use xlink:href="#DejaVuSans-31"/>
       <use xlink:href="#DejaVuSans-36" x="63.623047"/>
       <use xlink:href="#DejaVuSans-68" x="127.246094"/>
      </g>
     </g>
    </g>
    <g id="xtick_3">
     <g id="line2d_5">
      <path d="M 117.12 307.584 
L 117.12 41.472 
" clip-path="url(#p8b9236e2e0)" style="fill: none; stroke: #b0b0b0; stroke-width: 0.8; stroke-linecap: square"/>
     </g>
     <g id="line2d_6">
      <g>
       <use xlink:href="#m13a5b1d667" x="117.12" y="307.584" style="stroke: #000000; stroke-width: 0.8"/>
      </g>
     </g>
     <g id="text_2">
      <!-- 18h -->
      <g transform="translate(107.58875 322.182437) scale(0.1 -0.1)">
       <defs>
        <path id="DejaVuSans-38" d="M 2034 2216 
Q 1584 2216 1326 1975 
Q 1069 1734 1069 1313 
Q 1069 891 1326 650 
Q 1584 409 2034 409 
Q 2484 409 2743 651 
Q 3003 894 3003 1313 
Q 3003 1734 2745 1975 
Q 2488 2216 2034 2216 
z
M 1403 2484 
Q 997 2584 770 2862 
Q 544 3141 544 3541 
Q 544 4100 942 4425 
Q 1341 4750 2034 4750 
Q 2731 4750 3128 4425 
Q 3525 4100 3525 3541 
Q 3525 3141 3298 2862 
Q 3072 2584 2669 2484 
Q 3125 2378 3379 2068 
Q 3634 1759 3634 1313 
Q 3634 634 3220 271 
Q 2806 -91 2034 -91 
Q 1263 -91 848 271 
Q 434 634 434 1313 
Q 434 1759 690 2068 
Q 947 2378 1403 2484 
z
M 1172 3481 
Q 1172 3119 1398 2916 
Q 1625 2713 2034 2713 
Q 2441 2713 2670 2916 
Q 2900 3119 2900 3481 
Q 2900 3844 2670 4047 
Q 2441 4250 2034 4250 
Q 1625 4250 1398 4047 
Q 1172 3844 1172 3481 
z
" transform="scale(0.015625)"/>
       </defs>
       <use xlink:href="#DejaVuSans-31"/>
       <use xlink:href="#DejaVuSans-38" x="63.623047"/>
       <use xlink:href="#DejaVuSans-68" x="127.246094"/>
      </g>
     </g>
    </g>
    <g id="xtick_4">
     <g id="line2d_7">
      <path d="M 146.88 307.584 
L 146.88 41.472 
" clip-path="url(#p8b9236e2e0)" style="fill: none; stroke: #b0b0b0; stroke-width: 0.8; stroke-linecap: square"/>
     </g>
     <g id="line2d_8">
      <g>
       <use xlink:href="#m13a5b1d667" x="146.88" y="307.584" style="stroke: #000000; stroke-width: 0.8"/>
      </g>
     </g>
     <g id="text_3">
      <!-- 20h -->
      <g transform="translate(137.34875 322.182437) scale(0.1 -0.1)">
       <defs>
        <path id="DejaVuSans-32" d="M 1228 531 
L 3431 531 
L 3431 0 
L 469 0 
L 469 531 
Q 828 903 1448 1529 
Q 2069 2156 2228 2338 
Q 2531 2678 2651 2914 
Q 2772 3150 2772 3378 
Q 2772 3750 2511 3984 
Q 2250 4219 1831 4219 
Q 1534 4219 1204 4116 
Q 875 4013 500 3803 
L 500 4441 
Q 881 4594 1212 4672 
Q 1544 4750 1819 4750 
Q 2544 4750 2975 4387 
Q 3406 4025 3406 3419 
Q 3406 3131 3298 2873 
Q 3191 2616 2906 2266 
Q 2828 2175 2409 1742 
Q 1991 1309 1228 531 
z
" transform="scale(0.015625)"/>
        <path id="DejaVuSans-30" d="M 2034 4250 
Q 1547 4250 1301 3770 
Q 1056 3291 1056 2328 
Q 1056 1369 1301 889 
Q 1547 409 2034 409 
Q 2525 409 2770 889 
Q 3016 1369 3016 2328 
Q 3016 3291 2770 3770 
Q 2525 4250 2034 4250 
z
M 2034 4750 
Q 2819 4750 3233 4129 
Q 3647 3509 3647 2328 
Q 3647 1150 3233 529 
Q 2819 -91 2034 -91 
Q 1250 -91 836 529 
Q 422 1150 422 2328 
Q 422 3509 836 4129 
Q 1250 4750 2034 4750 
z
" transform="scale(0.015625)"/>
       </defs>
       <use xlink:href="#DejaVuSans-32"/>
       <use xlink:href="#DejaVuSans-30" x="63.623047"/>
       <use xlink:href="#DejaVuSans-68" x="127.246094"/>
      </g>
     </g>
    </g>
    <g id="xtick_5">
     <g id="line2d_9">
      <path d="M 176.64 307.584 
L 176.64 41.472 
" clip-path="url(#p8b9236e2e0)" style="fill: none; stroke: #b0b0b0; stroke-width: 0.8; stroke-linecap: square"/>
     </g>
     <g id="line2d_10">
      <g>
       <use xlink:href="#m13a5b1d667" x="176.64" y="307.584" style="stroke: #000000; stroke-width: 0.8"/>
      </g>
     </g>
     <g id="text_4">
      <!-- 22h -->
      <g transform="translate(167.10875 322.182437) scale(0.1 -0.1)">
       <use xlink:href="#DejaVuSans-32"/>
       <use xlink:href="#DejaVuSans-32" x="63.623047"/>
       <use xlink:href="#DejaVuSans-68" x="127.246094"/>
      </g>
     </g>
    </g>
    <g id="xtick_6">
     <g id="line2d_11">
      <path d="M 206.4 307.584 
L 206.4 41.472 
" clip-path="url(#p8b9236e2e0)" style="fill: none; stroke: #b0b0b0; stroke-width: 0.8; stroke-linecap: square"/>
     </g>
     <g id="line2d_12">
      <g>
       <use xlink:href="#m13a5b1d667" x="206.4" y="307.584" style="stroke: #000000; stroke-width: 0.8"/>
      </g>
     </g>
     <g id="text_5">
      <!-- 00h -->
      <g transform="translate(196.86875 322.182437) scale(0.1 -0.1)">
       <use xlink:href="#DejaVuSans-30"/>
       <use xlink:href="#DejaVuSans-30" x="63.623047"/>
       <use xlink:href="#DejaVuSans-68" x="127.246094"/>
      </g>
     </g>
    </g>
    <g id="xtick_7">
     <g id="line2d_13">
      <path d="M 236.16 307.584 
L 236.16 41.472 
" clip-path="url(#p8b9236e2e0)" style="fill: none; stroke: #b0b0b0; stroke-width: 0.8; stroke-linecap: square"/>
     </g>
     <g id="line2d_14">
      <g>
       <use xlink:href="#m13a5b1d667" x="236.16" y="307.584" style="stroke: #000000; stroke-width: 0.8"/>
      </g>
     </g>
     <g id="text_6">
      <!-- 02h -->
      <g transform="translate(226.62875 322.182437) scale(0.1 -0.1)">
       <use xlink:href="#DejaVuSans-30"/>
       <use xlink:href="#DejaVuSans-32" x="63.623047"/>
       <use xlink:href="#DejaVuSans-68" x="127.246094"/>
      </g>
     </g>
    </g>
    <g id="xtick_8">
     <g id="line2d_15">
      <path d="M 265.92 307.584 
L 265.92 41.472 
" clip-path="url(#p8b9236e2e0)" style="fill: none; stroke: #b0b0b0; stroke-width: 0.8; stroke-linecap: square"/>
     </g>
     <g id="line2d_16">
      <g>
       <use xlink:href="#m13a5b1d667" x="265.92" y="307.584" style="stroke: #000000; stroke-width: 0.8"/>
      </g>
     </g>
     <g id="text_7">
      <!-- 04h -->
      <g transform="translate(256.38875 322.182437) scale(0.1 -0.1)">
       <defs>
        <path id="DejaVuSans-34" d="M 2419 4116 
L 825 1625 
L 2419 1625 
L 2419 4116 
z
M 2253 4666 
L 3047 4666 
L 3047 1625 
L 3713 1625 
L 3713 1100 
L 3047 1100 
L 3047 0 
L 2419 0 
L 2419 1100 
L 313 1100 
L 313 1709 
L 2253 4666 
z
" transform="scale(0.015625)"/>
       </defs>
       <use xlink:href="#DejaVuSans-30"/>
       <use xlink:href="#DejaVuSans-34" x="63.623047"/>
       <use xlink:href="#DejaVuSans-68" x="127.246094"/>
      </g>
     </g>
    </g>
    <g id="xtick_9">
     <g id="line2d_17">
      <path d="M 295.68 307.584 
L 295.68 41.472 
" clip-path="url(#p8b9236e2e0)" style="fill: none; stroke: #b0b0b0; stroke-width: 0.8; stroke-linecap: square"/>
     </g>
     <g id="line2d_18">
      <g>
       <use xlink:href="#m13a5b1d667" x="295.68" y="307.584" style="stroke: #000000; stroke-width: 0.8"/>
      </g>
     </g>
     <g id="text_8">
      <!-- 06h -->
      <g transform="translate(286.14875 322.182437) scale(0.1 -0.1)">
       <use xlink:href="#DejaVuSans-30"/>
       <use xlink:href="#DejaVuSans-36" x="63.623047"/>
       <use xlink:href="#DejaVuSans-68" x="127.246094"/>
      </g>
     </g>
    </g>
    <g id="xtick_10">
     <g id="line2d_19">
      <path d="M 325.44 307.584 
L 325.44 41.472 
" clip-path="url(#p8b9236e2e0)" style="fill: none; stroke: #b0b0b0; stroke-width: 0.8; stroke-linecap: square"/>
     </g>
     <g id="line2d_20">
      <g>
       <use xlink:href="#m13a5b1d667" x="325.44" y="307.584" style="stroke: #000000; stroke-width: 0.8"/>
      </g>
     </g>
     <g id="text_9">
      <!-- 08h -->
      <g transform="translate(315.90875 322.182437) scale(0.1 -0.1)">
       <use xlink:href="#DejaVuSans-30"/>
       <use xlink:href="#DejaVuSans-38" x="63.623047"/>
       <use xlink:href="#DejaVuSans-68" x="127.246094"/>
      </g>
     </g>
    </g>
    <g id="xtick_11">
     <g id="line2d_21">
      <path d="M 355.2 307.584 
L 355.2 41.472 
" clip-path="url(#p8b9236e2e0)" style="fill: none; stroke: #b0b0b0; stroke-width: 0.8; stroke-linecap: square"/>
     </g>
     <g id="line2d_22">
      <g>
       <use xlink:href="#m13a5b1d667" x="355.2" y="307.584" style="stroke: #000000; stroke-width: 0.8"/>
      </g>
     </g>
     <g id="text_10">
      <!-- 10h -->
      <g transform="translate(345.66875 322.182437) scale(0.1 -0.1)">
       <use xlink:href="#DejaVuSans-31"/>
       <use xlink:href="#DejaVuSans-30" x="63.623047"/>
       <use xlink:href="#DejaVuSans-68" x="127.246094"/>
      </g>
     </g>
    </g>
    <g id="xtick_12">
     <g id="line2d_23">
      <path d="M 384.96 307.584 
L 384.96 41.472 
" clip-path="url(#p8b9236e2e0)" style="fill: none; stroke: #b0b0b0; stroke-width: 0.8; stroke-linecap: square"/>
     </g>
     <g id="line2d_24">
      <g>
       <use xlink:href="#m13a5b1d667" x="384.96" y="307.584" style="stroke: #000000; stroke-width: 0.8"/>
      </g>
     </g>
     <g id="text_11">
      <!-- 12h -->
      <g transform="translate(375.42875 322.182437) scale(0.1 -0.1)">
       <use xlink:href="#DejaVuSans-31"/>
       <use xlink:href="#DejaVuSans-32" x="63.623047"/>
       <use xlink:href="#DejaVuSans-68" x="127.246094"/>
      </g>
     </g>
    </g>
    <g id="xtick_13">
     <g id="line2d_25">
      <path d="M 414.72 307.584 
L 414.72 41.472 
" clip-path="url(#p8b9236e2e0)" style="fill: none; stroke: #b0b0b0; stroke-width: 0.8; stroke-linecap: square"/>
     </g>
     <g id="line2d_26">
      <g>
       <use xlink:href="#m13a5b1d667" x="414.72" y="307.584" style="stroke: #000000; stroke-width: 0.8"/>
      </g>
     </g>
     <g id="text_12">
      <!-- 14h -->
      <g transform="translate(405.18875 322.182437) scale(0.1 -0.1)">
       <use xlink:href="#DejaVuSans-31"/>
       <use xlink:href="#DejaVuSans-34" x="63.623047"/>
       <use xlink:href="#DejaVuSans-68" x="127.246094"/>
      </g>
     </g>
    </g>
   </g>
   <g id="matplotlib.axis_2">
    <g id="ytick_1">
     <g id="line2d_27">
      <path d="M 57.6 307.584 
L 414.72 307.584 
" clip-path="url(#p8b9236e2e0)" style="fill: none; stroke: #b0b0b0; stroke-width: 0.8; stroke-linecap: square"/>
     </g>
     <g id="line2d_28">
      <defs>
       <path id="mb6cc32d5b8" d="M 0 0 
L -3.5 0 
" style="stroke: #000000; stroke-width: 0.8"/>
      </defs>
      <g>
       <use xlink:href="#mb6cc32d5b8" x="57.6" y="307.584" style="stroke: #000000; stroke-width: 0.8"/>
      </g>
     </g>
     <g id="text_13">
      <!-- 40 -->
      <g transform="translate(37.875 311.383219) scale(0.1 -0.1)">
       <use xlink:href="#DejaVuSans-34"/>
       <use xlink:href="#DejaVuSans-30" x="63.623047"/>
      </g>
     </g>
    </g>
    <g id="ytick_2">
     <g id="line2d_29">
      <path d="M 57.6 274.32 
L 414.72 274.32 
" clip-path="url(#p8b9236e2e0)" style="fill: none; stroke: #b0b0b0; stroke-width: 0.8; stroke-linecap: square"/>
     </g>
     <g id="line2d_30">
      <g>
       <use xlink:href="#mb6cc32d5b8" x="57.6" y="274.32" style="stroke: #000000; stroke-width: 0.8"/>
      </g>
     </g>
     <g id="text_14">
      <!-- 45 -->
      <g transform="translate(37.875 278.119219) scale(0.1 -0.1)">
       <defs>
        <path id="DejaVuSans-35" d="M 691 4666 
L 3169 4666 
L 3169 4134 
L 1269 4134 
L 1269 2991 
Q 1406 3038 1543 3061 
Q 1681 3084 1819 3084 
Q 2600 3084 3056 2656 
Q 3513 2228 3513 1497 
Q 3513 744 3044 326 
Q 2575 -91 1722 -91 
Q 1428 -91 1123 -41 
Q 819 9 494 109 
L 494 744 
Q 775 591 1075 516 
Q 1375 441 1709 441 
Q 2250 441 2565 725 
Q 2881 1009 2881 1497 
Q 2881 1984 2565 2268 
Q 2250 2553 1709 2553 
Q 1456 2553 1204 2497 
Q 953 2441 691 2322 
L 691 4666 
z
" transform="scale(0.015625)"/>
       </defs>
       <use xlink:href="#DejaVuSans-34"/>
       <use xlink:href="#DejaVuSans-35" x="63.623047"/>
      </g>
     </g>
    </g>
    <g id="ytick_3">
     <g id="line2d_31">
      <path d="M 57.6 241.056 
L 414.72 241.056 
" clip-path="url(#p8b9236e2e0)" style="fill: none; stroke: #b0b0b0; stroke-width: 0.8; stroke-linecap: square"/>
     </g>
     <g id="line2d_32">
      <g>
       <use xlink:href="#mb6cc32d5b8" x="57.6" y="241.056" style="stroke: #000000; stroke-width: 0.8"/>
      </g>
     </g>
     <g id="text_15">
      <!-- 50 -->
      <g transform="translate(37.875 244.855219) scale(0.1 -0.1)">
       <use xlink:href="#DejaVuSans-35"/>
       <use xlink:href="#DejaVuSans-30" x="63.623047"/>
      </g>
     </g>
    </g>
    <g id="ytick_4">
     <g id="line2d_33">
      <path d="M 57.6 207.792 
L 414.72 207.792 
" clip-path="url(#p8b9236e2e0)" style="fill: none; stroke: #b0b0b0; stroke-width: 0.8; stroke-linecap: square"/>
     </g>
     <g id="line2d_34">
      <g>
       <use xlink:href="#mb6cc32d5b8" x="57.6" y="207.792" style="stroke: #000000; stroke-width: 0.8"/>
      </g>
     </g>
     <g id="text_16">
      <!-- 55 -->
      <g transform="translate(37.875 211.591219) scale(0.1 -0.1)">
       <use xlink:href="#DejaVuSans-35"/>
       <use xlink:href="#DejaVuSans-35" x="63.623047"/>
      </g>
     </g>
    </g>
    <g id="ytick_5">
     <g id="line2d_35">
      <path d="M 57.6 174.528 
L 414.72 174.528 
" clip-path="url(#p8b9236e2e0)" style="fill: none; stroke: #b0b0b0; stroke-width: 0.8; stroke-linecap: square"/>
     </g>
     <g id="line2d_36">
      <g>
       <use xlink:href="#mb6cc32d5b8" x="57.6" y="174.528" style="stroke: #000000; stroke-width: 0.8"/>
      </g>
     </g>
     <g id="text_17">
      <!-- 60 -->
      <g transform="translate(37.875 178.327219) scale(0.1 -0.1)">
       <use xlink:href="#DejaVuSans-36"/>
       <use xlink:href="#DejaVuSans-30" x="63.623047"/>
      </g>
     </g>
    </g>
    <g id="ytick_6">
     <g id="line2d_37">
      <path d="M 57.6 141.264 
L 414.72 141.264 
" clip-path="url(#p8b9236e2e0)" style="fill: none; stroke: #b0b0b0; stroke-width: 0.8; stroke-linecap: square"/>
     </g>
     <g id="line2d_38">
      <g>
       <use xlink:href="#mb6cc32d5b8" x="57.6" y="141.264" style="stroke: #000000; stroke-width: 0.8"/>
      </g>
     </g>
     <g id="text_18">
      <!-- 65 -->
      <g transform="translate(37.875 145.063219) scale(0.1 -0.1)">
       <use xlink:href="#DejaVuSans-36"/>
       <use xlink:href="#DejaVuSans-35" x="63.623047"/>
      </g>
     </g>
    </g>
    <g id="ytick_7">
     <g id="line2d_39">
      <path d="M 57.6 108 
L 414.72 108 
" clip-path="url(#p8b9236e2e0)" style="fill: none; stroke: #b0b0b0; stroke-width: 0.8; stroke-linecap: square"/>
     </g>
     <g id="line2d_40">
      <g>
       <use xlink:href="#mb6cc32d5b8" x="57.6" y="108" style="stroke: #000000; stroke-width: 0.8"/>
      </g>
     </g>
     <g id="text_19">
      <!-- 70 -->
      <g transform="translate(37.875 111.799219) scale(0.1 -0.1)">
       <defs>
        <path id="DejaVuSans-37" d="M 525 4666 
L 3525 4666 
L 3525 4397 
L 1831 0 
L 1172 0 
L 2766 4134 
L 525 4134 
L 525 4666 
z
" transform="scale(0.015625)"/>
       </defs>
       <use xlink:href="#DejaVuSans-37"/>
       <use xlink:href="#DejaVuSans-30" x="63.623047"/>
      </g>
     </g>
    </g>
    <g id="ytick_8">
     <g id="line2d_41">
      <path d="M 57.6 74.736 
L 414.72 74.736 
" clip-path="url(#p8b9236e2e0)" style="fill: none; stroke: #b0b0b0; stroke-width: 0.8; stroke-linecap: square"/>
     </g>
     <g id="line2d_42">
      <g>
       <use xlink:href="#mb6cc32d5b8" x="57.6" y="74.736" style="stroke: #000000; stroke-width: 0.8"/>
      </g>
     </g>
     <g id="text_20">
      <!-- 75 -->
      <g transform="translate(37.875 78.535219) scale(0.1 -0.1)">
       <use xlink:href="#DejaVuSans-37"/>
       <use xlink:href="#DejaVuSans-35" x="63.623047"/>
      </g>
     </g>
    </g>
    <g id="ytick_9">
     <g id="line2d_43">
      <path d="M 57.6 41.472 
L 414.72 41.472 
" clip-path="url(#p8b9236e2e0)" style="fill: none; stroke: #b0b0b0; stroke-width: 0.8; stroke-linecap: square"/>
     </g>
     <g id="line2d_44">
      <g>
       <use xlink:href="#mb6cc32d5b8" x="57.6" y="41.472" style="stroke: #000000; stroke-width: 0.8"/>
      </g>
     </g>
     <g id="text_21">
      <!-- 80 -->
      <g transform="translate(37.875 45.271219) scale(0.1 -0.1)">
       <use xlink:href="#DejaVuSans-38"/>
       <use xlink:href="#DejaVuSans-30" x="63.623047"/>
      </g>
     </g>
    </g>
   </g>
   <g id="line2d_45">
    <path d="M 57.6 114.412773 
L 57.6 127.051799 
L 58.110901 127.051799 
L 58.110901 114.613008 
L 58.621803 114.613008 
L 58.621803 117.685765 
L 59.132704 117.685765 
L 59.132704 118.462933 
L 59.643605 118.462933 
L 59.643605 118.67702 
L 60.665408 118.650744 
L 60.665408 120.887016 
L 61.176309 120.887016 
L 61.176309 123.029933 
L 61.68721 123.029933 
L 61.68721 126.116087 
L 62.198112 126.116087 
L 62.198112 128.481951 
L 62.709013 128.481951 
L 62.709013 129.182154 
L 63.219914 129.182154 
L 63.219914 128.798391 
L 63.730815 128.798391 
L 63.730815 128.208463 
L 64.752618 128.165782 
L 64.752618 129.446514 
L 65.263519 129.446514 
L 65.263519 131.35767 
L 65.774421 131.35767 
L 65.774421 133.435789 
L 66.285322 133.435789 
L 66.285322 135.538712 
L 66.796223 135.538712 
L 66.796223 134.859904 
L 67.307124 134.859904 
L 67.307124 131.903333 
L 67.818026 131.903333 
L 67.818026 137.213501 
L 68.328927 137.213501 
L 68.328927 127.818202 
L 68.839828 127.818202 
L 68.839828 124.023684 
L 69.35073 124.023684 
L 69.35073 117.439099 
L 69.861631 117.439099 
L 69.861631 110.583469 
L 70.372532 110.583469 
L 70.372532 105.12553 
L 70.883433 105.12553 
L 70.883433 100.8947 
L 71.394335 100.8947 
L 71.394335 98.099473 
L 71.905236 98.099473 
L 71.905236 106.173132 
L 72.416137 106.173132 
L 72.416137 101.459637 
L 72.927039 101.459637 
L 72.927039 104.258272 
L 73.43794 104.258272 
L 73.43794 105.575072 
L 73.948841 105.575072 
L 73.948841 106.415985 
L 74.459742 106.415985 
L 74.459742 108.273997 
L 74.970644 108.273997 
L 74.970644 113.953248 
L 75.481545 113.953248 
L 75.481545 120.635492 
L 75.992446 120.635492 
L 75.992446 125.568926 
L 76.503348 125.568926 
L 76.503348 129.573291 
L 77.014249 129.573291 
L 77.014249 127.68013 
L 77.52515 127.68013 
L 77.52515 135.427516 
L 78.036052 135.427516 
L 78.036052 133.249556 
L 78.546953 133.249556 
L 78.546953 131.446396 
L 79.057854 131.446396 
L 79.057854 133.081049 
L 79.568755 133.081049 
L 79.568755 136.785786 
L 80.079657 136.785786 
L 80.079657 140.575402 
L 80.590558 140.575402 
L 80.590558 143.218602 
L 81.101459 143.218602 
L 81.101459 142.321555 
L 81.612361 142.321555 
L 81.612361 140.371734 
L 82.123262 140.371734 
L 82.123262 141.657266 
L 82.634163 141.657266 
L 82.634163 143.526789 
L 83.145064 143.526789 
L 83.145064 142.329369 
L 83.655966 142.329369 
L 83.655966 139.482801 
L 84.166867 139.482801 
L 84.166867 136.201129 
L 84.677768 136.201129 
L 84.677768 133.452841 
L 85.18867 133.452841 
L 85.18867 133.924041 
L 85.699571 133.924041 
L 85.699571 135.33425 
L 86.210472 135.33425 
L 86.210472 131.31575 
L 86.721373 131.31575 
L 86.721373 124.586405 
L 87.232275 124.586405 
L 87.232275 128.944063 
L 87.743176 128.944063 
L 87.743176 121.766857 
L 88.254077 121.766857 
L 88.254077 120.90875 
L 88.764979 120.90875 
L 88.764979 120.069285 
L 89.27588 120.069285 
L 89.27588 123.11331 
L 89.786781 123.11331 
L 89.786781 128.309776 
L 90.297682 128.309776 
L 90.297682 134.14465 
L 90.808584 134.14465 
L 90.808584 138.806078 
L 91.319485 138.806078 
L 91.319485 140.305267 
L 91.830386 140.305267 
L 91.830386 139.302873 
L 92.341288 139.302873 
L 92.341288 137.030419 
L 92.852189 137.030419 
L 92.852189 134.614035 
L 93.36309 134.614035 
L 93.36309 133.29155 
L 93.873991 133.29155 
L 93.873991 132.727568 
L 94.384893 132.727568 
L 94.384893 132.189273 
L 94.895794 132.189273 
L 94.895794 130.956632 
L 95.406695 130.956632 
L 95.406695 128.708376 
L 95.917597 128.708376 
L 95.917597 126.055137 
L 96.428498 126.055137 
L 96.428498 121.882394 
L 96.939399 121.882394 
L 96.939399 117.650548 
L 97.4503 117.650548 
L 97.4503 120.370689 
L 97.961202 120.370689 
L 97.961202 125.418507 
L 98.472103 125.418507 
L 98.472103 112.712591 
L 98.983004 112.712591 
L 98.983004 119.396133 
L 99.493906 119.396133 
L 99.493906 118.564058 
L 100.004807 118.564058 
L 100.004807 120.949776 
L 100.515708 120.949776 
L 100.515708 137.619449 
L 101.026609 137.619449 
L 101.026609 129.784724 
L 101.537511 129.784724 
L 101.537511 130.85151 
L 102.048412 130.85151 
L 102.048412 126.161655 
L 102.559313 126.161655 
L 102.559313 118.4798 
L 103.070215 118.4798 
L 103.070215 109.747994 
L 103.581116 109.747994 
L 103.581116 104.814214 
L 104.092017 104.814214 
L 104.092017 101.41743 
L 104.602918 101.41743 
L 104.602918 94.536406 
L 105.11382 94.536406 
L 105.11382 88.083413 
L 105.624721 88.083413 
L 105.624721 87.899028 
L 106.135622 87.899028 
L 106.135622 90.708829 
L 106.646524 90.708829 
L 106.646524 91.866945 
L 107.157425 91.866945 
L 107.157425 93.001699 
L 107.668326 93.001699 
L 107.668326 94.692097 
L 108.179227 94.692097 
L 108.179227 100.139235 
L 108.690129 100.139235 
L 108.690129 103.299843 
L 109.20103 103.299843 
L 109.20103 105.993186 
L 109.711931 105.993186 
L 109.711931 108.10182 
L 110.222833 108.10182 
L 110.222833 109.58846 
L 110.733734 109.58846 
L 110.733734 110.406652 
L 111.244635 110.406652 
L 111.244635 110.977507 
L 111.755536 110.977507 
L 111.755536 111.647299 
L 112.266438 111.647299 
L 112.266438 112.39975 
L 112.777339 112.39975 
L 112.777339 113.77713 
L 113.28824 113.77713 
L 113.28824 115.477049 
L 113.799142 115.477049 
L 113.799142 115.095373 
L 114.310043 115.095373 
L 114.310043 113.381207 
L 114.820944 113.381207 
L 114.820944 119.658969 
L 115.331845 119.658969 
L 115.331845 112.8975 
L 115.842747 112.8975 
L 115.842747 120.093188 
L 116.353648 120.093188 
L 116.353648 126.507239 
L 116.864549 126.507239 
L 116.864549 124.770163 
L 117.375451 124.770163 
L 117.375451 120.373273 
L 117.886352 120.373273 
L 117.886352 122.574253 
L 118.397253 122.574253 
L 118.397253 128.064098 
L 118.908155 128.064098 
L 118.908155 131.142036 
L 119.419056 131.142036 
L 119.419056 132.398417 
L 119.929957 132.398417 
L 119.929957 135.213925 
L 120.440858 135.213925 
L 120.440858 134.056326 
L 120.95176 134.056326 
L 120.95176 134.364216 
L 121.462661 134.364216 
L 121.462661 134.845544 
L 121.973562 134.845544 
L 121.973562 136.758451 
L 122.484464 136.758451 
L 122.484464 139.467781 
L 122.995365 139.467781 
L 122.995365 142.321643 
L 123.506266 142.321643 
L 123.506266 144.562668 
L 124.017167 144.562668 
L 124.017167 145.217807 
L 124.528069 145.217807 
L 124.528069 144.941702 
L 125.03897 144.941702 
L 125.03897 144.470244 
L 125.549871 144.470244 
L 125.549871 143.337769 
L 126.571674 143.314518 
L 126.571674 145.165914 
L 127.082575 145.165914 
L 127.082575 138.659601 
L 127.593476 138.659601 
L 127.593476 149.223649 
L 128.104378 149.223649 
L 128.104378 147.530347 
L 128.615279 147.530347 
L 128.615279 146.069162 
L 130.147983 146.178577 
L 130.147983 143.811757 
L 130.658884 143.811757 
L 130.658884 140.724011 
L 131.169785 140.724011 
L 131.169785 139.72913 
L 131.680687 139.72913 
L 131.680687 139.614358 
L 132.191588 139.614358 
L 132.191588 138.752173 
L 132.702489 138.752173 
L 132.702489 138.013685 
L 133.213391 138.013685 
L 133.213391 137.205834 
L 133.724292 137.205834 
L 133.724292 135.945603 
L 134.235193 135.945603 
L 134.235193 139.638479 
L 134.746094 139.638479 
L 134.746094 135.683882 
L 135.256996 135.683882 
L 135.256996 136.49393 
L 135.767897 136.49393 
L 135.767897 137.420591 
L 136.278798 137.420591 
L 136.278798 142.310028 
L 136.7897 142.310028 
L 136.7897 144.116734 
L 137.300601 144.116734 
L 137.300601 149.14728 
L 137.811502 149.14728 
L 137.811502 153.366369 
L 138.322403 153.366369 
L 138.322403 153.84786 
L 138.833305 153.84786 
L 138.833305 150.993584 
L 139.344206 150.993584 
L 139.344206 160.145065 
L 139.855107 160.145065 
L 139.855107 146.345073 
L 140.366009 146.345073 
L 140.366009 144.679899 
L 140.87691 144.679899 
L 140.87691 142.412416 
L 141.387811 142.412416 
L 141.387811 124.453641 
L 141.898712 124.453641 
L 141.898712 108.80994 
L 142.409614 108.80994 
L 142.409614 135.82816 
L 142.920515 135.82816 
L 142.920515 107.462625 
L 143.431416 107.462625 
L 143.431416 110.024348 
L 143.942318 110.024348 
L 143.942318 107.947085 
L 144.453219 107.947085 
L 144.453219 112.822635 
L 144.96412 112.822635 
L 144.96412 120.591951 
L 145.475021 120.591951 
L 145.475021 128.981521 
L 145.985923 128.981521 
L 145.985923 136.604414 
L 146.496824 136.604414 
L 146.496824 141.622915 
L 147.007725 141.622915 
L 147.007725 144.316932 
L 147.518627 144.316932 
L 147.518627 145.579343 
L 148.029528 145.579343 
L 148.029528 145.781729 
L 148.540429 145.781729 
L 148.540429 145.551045 
L 149.05133 145.551045 
L 149.05133 145.007495 
L 149.562232 145.007495 
L 149.562232 144.001257 
L 150.073133 144.001257 
L 150.073133 143.150168 
L 150.584034 143.150168 
L 150.584034 142.994023 
L 151.094936 142.994023 
L 151.094936 143.463052 
L 151.605837 143.463052 
L 151.605837 144.471156 
L 152.116738 144.471156 
L 152.116738 145.303532 
L 152.627639 145.303532 
L 152.627639 145.417717 
L 153.138541 145.417717 
L 153.138541 145.237483 
L 153.649442 145.237483 
L 153.649442 144.399349 
L 154.160343 144.399349 
L 154.160343 144.157993 
L 154.671245 144.157993 
L 154.671245 147.811548 
L 155.182146 147.811548 
L 155.182146 152.159338 
L 155.693047 152.159338 
L 155.693047 150.748941 
L 156.203948 150.748941 
L 156.203948 148.658827 
L 156.71485 148.658827 
L 156.71485 154.308972 
L 157.225751 154.308972 
L 157.225751 161.647788 
L 157.736652 161.647788 
L 157.736652 162.790444 
L 158.247554 162.790444 
L 158.247554 158.14336 
L 158.758455 158.14336 
L 158.758455 158.937266 
L 159.269356 158.937266 
L 159.269356 160.424798 
L 159.780258 160.424798 
L 159.780258 158.709024 
L 160.291159 158.709024 
L 160.291159 155.205917 
L 160.80206 155.205917 
L 160.80206 151.832862 
L 161.312961 151.832862 
L 161.312961 149.417219 
L 161.823863 149.417219 
L 161.823863 148.706531 
L 162.334764 148.706531 
L 162.334764 149.721803 
L 162.845665 149.721803 
L 162.845665 152.554799 
L 163.356567 152.554799 
L 163.356567 155.944186 
L 163.867468 155.944186 
L 163.867468 158.591681 
L 164.378369 158.591681 
L 164.378369 164.215678 
L 164.88927 164.215678 
L 164.88927 164.904105 
L 165.400172 164.904105 
L 165.400172 195.262065 
L 165.911073 195.262065 
L 165.911073 172.841925 
L 166.421974 172.841925 
L 166.421974 161.701554 
L 166.932876 161.701554 
L 166.932876 154.773595 
L 167.443777 154.773595 
L 167.443777 162.304828 
L 167.954678 162.304828 
L 167.954678 185.954877 
L 168.465579 185.954877 
L 168.465579 157.36256 
L 168.976481 157.36256 
L 168.976481 188.423788 
L 169.487382 188.423788 
L 169.487382 159.842498 
L 169.998283 159.842498 
L 169.998283 164.253877 
L 170.509185 164.253877 
L 170.509185 163.899587 
L 171.020086 163.899587 
L 171.020086 163.29489 
L 171.530987 163.29489 
L 171.530987 164.677603 
L 172.041888 164.677603 
L 172.041888 171.61927 
L 172.55279 171.61927 
L 172.55279 136.228676 
L 173.063691 136.228676 
L 173.063691 194.799755 
L 173.574592 194.799755 
L 173.574592 130.101594 
L 174.085494 130.101594 
L 174.085494 126.992996 
L 174.596395 126.992996 
L 174.596395 132.574196 
L 175.107296 132.574196 
L 175.107296 134.755545 
L 175.618197 134.755545 
L 175.618197 140.050736 
L 176.129099 140.050736 
L 176.129099 178.564404 
L 176.64 178.564404 
L 176.64 182.822214 
L 177.150901 182.822214 
L 177.150901 185.574058 
L 177.661803 185.574058 
L 177.661803 172.870949 
L 178.172704 172.870949 
L 178.172704 196.802942 
L 178.683605 196.802942 
L 178.683605 173.873096 
L 179.194506 173.873096 
L 179.194506 193.517315 
L 179.705408 193.517315 
L 179.705408 212.630159 
L 180.216309 212.630159 
L 180.216309 216.088567 
L 180.72721 216.088567 
L 180.72721 206.402333 
L 181.238112 206.402333 
L 181.238112 220.847828 
L 181.749013 220.847828 
L 181.749013 210.882184 
L 182.259914 210.882184 
L 182.259914 184.186356 
L 182.770815 184.186356 
L 182.770815 144.734775 
L 183.281717 144.734775 
L 183.281717 184.954467 
L 183.792618 184.954467 
L 183.792618 149.438391 
L 184.303519 149.438391 
L 184.303519 165.541574 
L 184.814421 165.541574 
L 184.814421 164.91051 
L 185.325322 164.91051 
L 185.325322 183.678306 
L 185.836223 183.678306 
L 185.836223 204.16372 
L 186.347124 204.16372 
L 186.347124 210.115342 
L 186.858026 210.115342 
L 186.858026 227.641504 
L 187.368927 227.641504 
L 187.368927 201.527804 
L 187.879828 201.527804 
L 187.879828 177.902369 
L 188.39073 177.902369 
L 188.39073 180.741627 
L 188.901631 180.741627 
L 188.901631 212.64132 
L 189.412532 212.64132 
L 189.412532 245.004314 
L 189.923433 245.004314 
L 189.923433 222.073704 
L 190.434335 222.073704 
L 190.434335 214.32844 
L 190.945236 214.32844 
L 190.945236 197.022923 
L 191.456137 197.022923 
L 191.456137 197.712299 
L 191.967039 197.712299 
L 191.967039 212.924761 
L 192.47794 212.924761 
L 192.47794 192.701997 
L 192.988841 192.701997 
L 192.988841 169.781418 
L 193.499742 169.781418 
L 193.499742 181.487016 
L 194.010644 181.487016 
L 194.010644 197.510189 
L 194.521545 197.510189 
L 194.521545 202.030757 
L 195.032446 202.030757 
L 195.032446 153.234881 
L 195.543348 153.234881 
L 195.543348 165.62933 
L 196.054249 165.62933 
L 196.054249 180.963439 
L 196.56515 180.963439 
L 196.56515 231.31069 
L 197.076052 231.31069 
L 197.076052 159.516714 
L 197.586953 159.516714 
L 197.586953 182.409523 
L 198.097854 182.409523 
L 198.097854 192.571922 
L 198.608755 192.571922 
L 198.608755 168.30944 
L 199.119657 168.30944 
L 199.119657 171.770828 
L 199.630558 171.770828 
L 199.630558 189.184911 
L 200.141459 189.184911 
L 200.141459 211.760786 
L 200.652361 211.760786 
L 200.652361 190.495341 
L 201.163262 190.495341 
L 201.163262 203.812332 
L 201.674163 203.812332 
L 201.674163 197.868891 
L 202.185064 197.868891 
L 202.185064 188.687124 
L 202.695966 188.687124 
L 202.695966 191.786807 
L 203.206867 191.786807 
L 203.206867 200.493071 
L 203.717768 200.493071 
L 203.717768 206.398035 
L 204.22867 206.398035 
L 204.22867 207.937838 
L 204.739571 207.937838 
L 204.739571 226.879459 
L 205.250472 226.879459 
L 205.250472 213.548477 
L 205.761373 213.548477 
L 205.761373 215.720464 
L 206.272275 215.720464 
L 206.272275 217.262569 
L 206.783176 217.262569 
L 206.783176 227.551142 
L 207.294077 227.551142 
L 207.294077 241.145668 
L 207.804979 241.145668 
L 207.804979 246.547778 
L 208.31588 246.547778 
L 208.31588 268.712313 
L 208.826781 268.712313 
L 208.826781 248.103862 
L 209.337682 248.103862 
L 209.337682 213.276202 
L 209.848584 213.276202 
L 209.848584 256.314793 
L 210.359485 256.314793 
L 210.359485 215.700756 
L 210.870386 215.700756 
L 210.870386 218.478302 
L 211.381288 218.478302 
L 211.381288 237.40369 
L 211.892189 237.40369 
L 211.892189 238.839775 
L 212.40309 238.839775 
L 212.40309 239.649979 
L 212.913991 239.649979 
L 212.913991 245.35864 
L 213.424893 245.35864 
L 213.424893 252.762921 
L 213.935794 252.762921 
L 213.935794 256.685972 
L 214.446695 256.685972 
L 214.446695 257.999918 
L 214.957597 257.999918 
L 214.957597 255.745117 
L 215.468498 255.745117 
L 215.468498 253.233254 
L 215.979399 253.233254 
L 215.979399 258.418294 
L 216.4903 258.418294 
L 216.4903 264.957704 
L 217.001202 264.957704 
L 217.001202 257.636429 
L 217.512103 257.636429 
L 217.512103 245.253171 
L 218.023004 245.253171 
L 218.023004 250.99548 
L 218.533906 250.99548 
L 218.533906 233.884778 
L 219.044807 233.884778 
L 219.044807 238.541585 
L 219.555708 238.541585 
L 219.555708 243.39833 
L 220.066609 243.39833 
L 220.066609 242.663802 
L 220.577511 242.663802 
L 220.577511 240.669122 
L 221.088412 240.669122 
L 221.088412 246.685054 
L 221.599313 246.685054 
L 221.599313 253.840315 
L 222.110215 253.840315 
L 222.110215 252.168131 
L 222.621116 252.168131 
L 222.621116 244.424945 
L 223.132017 244.424945 
L 223.132017 238.093175 
L 223.642918 238.093175 
L 223.642918 241.201002 
L 224.15382 241.201002 
L 224.15382 221.442381 
L 224.664721 221.442381 
L 224.664721 264.925888 
L 225.175622 264.925888 
L 225.175622 227.913096 
L 225.686524 227.913096 
L 225.686524 189.882409 
L 226.197425 189.882409 
L 226.197425 212.749981 
L 226.708326 212.749981 
L 226.708326 261.090528 
L 227.219227 261.090528 
L 227.219227 244.522886 
L 227.730129 244.522886 
L 227.730129 246.602494 
L 228.24103 246.602494 
L 228.24103 259.678015 
L 228.751931 259.678015 
L 228.751931 256.807201 
L 229.262833 256.807201 
L 229.262833 258.490503 
L 229.773734 258.490503 
L 229.773734 261.1826 
L 230.284635 261.1826 
L 230.284635 247.034517 
L 230.795536 247.034517 
L 230.795536 234.321085 
L 231.306438 234.321085 
L 231.306438 235.181525 
L 231.817339 235.181525 
L 231.817339 240.512577 
L 232.32824 240.512577 
L 232.32824 263.828553 
L 232.839142 263.828553 
L 232.839142 240.463206 
L 233.350043 240.463206 
L 233.350043 243.348256 
L 233.860944 243.348256 
L 233.860944 242.267592 
L 234.371845 242.267592 
L 234.371845 235.233636 
L 234.882747 235.233636 
L 234.882747 225.72581 
L 235.393648 225.72581 
L 235.393648 227.549143 
L 235.904549 227.549143 
L 235.904549 247.461236 
L 236.415451 247.461236 
L 236.415451 210.583941 
L 236.926352 210.583941 
L 236.926352 243.25178 
L 237.437253 243.25178 
L 237.437253 220.383279 
L 237.948155 220.383279 
L 237.948155 208.537048 
L 238.459056 208.537048 
L 238.459056 191.470834 
L 238.969957 191.470834 
L 238.969957 233.266365 
L 239.480858 233.266365 
L 239.480858 232.090637 
L 239.99176 232.090637 
L 239.99176 212.951807 
L 240.502661 212.951807 
L 240.502661 236.78997 
L 241.013562 236.78997 
L 241.013562 230.342814 
L 241.524464 230.342814 
L 241.524464 244.292158 
L 242.035365 244.292158 
L 242.035365 245.681031 
L 242.546266 245.681031 
L 242.546266 221.80265 
L 243.057167 221.80265 
L 243.057167 192.736217 
L 243.568069 192.736217 
L 243.568069 186.694105 
L 244.07897 186.694105 
L 244.07897 203.539774 
L 244.589871 203.539774 
L 244.589871 199.798738 
L 245.100773 199.798738 
L 245.100773 190.37497 
L 245.611674 190.37497 
L 245.611674 201.695241 
L 246.122575 201.695241 
L 246.122575 217.410542 
L 246.633476 217.410542 
L 246.633476 202.28731 
L 247.144378 202.28731 
L 247.144378 216.002422 
L 247.655279 216.002422 
L 247.655279 248.583587 
L 248.16618 248.583587 
L 248.16618 230.234956 
L 248.677082 230.234956 
L 248.677082 232.53863 
L 249.187983 232.53863 
L 249.187983 230.31674 
L 249.698884 230.31674 
L 249.698884 222.108012 
L 250.209785 222.108012 
L 250.209785 225.117642 
L 250.720687 225.117642 
L 250.720687 259.542185 
L 251.231588 259.542185 
L 251.231588 262.667409 
L 251.742489 262.667409 
L 251.742489 252.681694 
L 252.253391 252.681694 
L 252.253391 220.342731 
L 252.764292 220.342731 
L 252.764292 266.13113 
L 253.275193 266.13113 
L 253.275193 214.568082 
L 253.786094 214.568082 
L 253.786094 216.112398 
L 254.296996 216.112398 
L 254.296996 199.185222 
L 254.807897 199.185222 
L 254.807897 223.906222 
L 255.318798 223.906222 
L 255.318798 206.577788 
L 255.8297 206.577788 
L 255.8297 195.981356 
L 256.340601 195.981356 
L 256.340601 209.102663 
L 256.851502 209.102663 
L 256.851502 230.810758 
L 257.362403 230.810758 
L 257.362403 253.326091 
L 257.873305 253.326091 
L 257.873305 228.115666 
L 258.384206 228.115666 
L 258.384206 192.1649 
L 258.895107 192.1649 
L 258.895107 210.914547 
L 259.406009 210.914547 
L 259.406009 241.967094 
L 259.91691 241.967094 
L 259.91691 214.163037 
L 260.427811 214.163037 
L 260.427811 190.136178 
L 260.938712 190.136178 
L 260.938712 171.032753 
L 261.449614 171.032753 
L 261.449614 221.666092 
L 261.960515 221.666092 
L 261.960515 227.650962 
L 262.471416 227.650962 
L 262.471416 241.080553 
L 262.982318 241.080553 
L 262.982318 233.138294 
L 263.493219 233.138294 
L 263.493219 210.538766 
L 264.00412 210.538766 
L 264.00412 204.116617 
L 264.515021 204.116617 
L 264.515021 151.117553 
L 265.025923 151.117553 
L 265.025923 169.687411 
L 265.536824 169.687411 
L 265.536824 251.173515 
L 266.047725 251.173515 
L 266.047725 232.190455 
L 266.558627 232.190455 
L 266.558627 204.23167 
L 267.069528 204.23167 
L 267.069528 164.324864 
L 267.580429 164.324864 
L 267.580429 220.232302 
L 268.09133 220.232302 
L 268.09133 213.643312 
L 268.602232 213.643312 
L 268.602232 206.905331 
L 269.113133 206.905331 
L 269.113133 201.539601 
L 269.624034 201.539601 
L 269.624034 179.947732 
L 270.134936 179.947732 
L 270.134936 216.91631 
L 270.645837 216.91631 
L 270.645837 163.758251 
L 271.156738 163.758251 
L 271.156738 198.551112 
L 271.667639 198.551112 
L 271.667639 223.600858 
L 272.178541 223.600858 
L 272.178541 207.18925 
L 272.689442 207.18925 
L 272.689442 169.721127 
L 273.200343 169.721127 
L 273.200343 200.029576 
L 273.711245 200.029576 
L 273.711245 167.749646 
L 274.222146 167.749646 
L 274.222146 178.004682 
L 274.733047 178.004682 
L 274.733047 133.97524 
L 275.243948 133.97524 
L 275.243948 142.67978 
L 275.75485 142.67978 
L 275.75485 190.353306 
L 276.265751 190.353306 
L 276.265751 152.614501 
L 276.776652 152.614501 
L 276.776652 178.963737 
L 277.287554 178.963737 
L 277.287554 200.936359 
L 277.798455 200.936359 
L 277.798455 132.14384 
L 278.309356 132.14384 
L 278.309356 165.817186 
L 278.820258 165.817186 
L 278.820258 145.492196 
L 279.331159 145.492196 
L 279.331159 153.465119 
L 279.84206 153.465119 
L 279.84206 155.687348 
L 280.352961 155.687348 
L 280.352961 146.213422 
L 280.863863 146.213422 
L 280.863863 155.459525 
L 281.374764 155.459525 
L 281.374764 168.0295 
L 281.885665 168.0295 
L 281.885665 126.032039 
L 282.396567 126.032039 
L 282.396567 164.110618 
L 282.907468 164.110618 
L 282.907468 138.205007 
L 283.418369 138.205007 
L 283.418369 163.300238 
L 283.92927 163.300238 
L 283.92927 138.992367 
L 284.440172 138.992367 
L 284.440172 158.588586 
L 284.951073 158.588586 
L 284.951073 145.542653 
L 285.461974 145.542653 
L 285.461974 149.626874 
L 285.972876 149.626874 
L 285.972876 150.096738 
L 286.483777 150.096738 
L 286.483777 149.324052 
L 286.994678 149.324052 
L 286.994678 146.666609 
L 287.505579 146.666609 
L 287.505579 145.215651 
L 288.016481 145.215651 
L 288.016481 144.791241 
L 288.527382 144.791241 
L 288.527382 138.635284 
L 289.038283 138.635284 
L 289.038283 133.548516 
L 289.549185 133.548516 
L 289.549185 151.512322 
L 290.060086 151.512322 
L 290.060086 157.526056 
L 290.570987 157.526056 
L 290.570987 158.021099 
L 291.081888 158.021099 
L 291.081888 150.152684 
L 291.59279 150.152684 
L 291.59279 147.531302 
L 292.103691 147.531302 
L 292.103691 146.122309 
L 292.614592 146.122309 
L 292.614592 140.264654 
L 293.125494 140.264654 
L 293.125494 134.390848 
L 293.636395 134.390848 
L 293.636395 133.599112 
L 294.147296 133.599112 
L 294.147296 136.085265 
L 294.658197 136.085265 
L 294.658197 139.324158 
L 295.169099 139.324158 
L 295.169099 141.907788 
L 295.68 141.907788 
L 295.68 142.261351 
L 296.190901 142.261351 
L 296.190901 140.987828 
L 296.701803 140.987828 
L 296.701803 139.092847 
L 297.212704 139.092847 
L 297.212704 137.310741 
L 298.234506 137.215471 
L 298.234506 138.181678 
L 298.745408 138.181678 
L 298.745408 136.452966 
L 299.256309 136.452966 
L 299.256309 138.2639 
L 299.76721 138.2639 
L 299.76721 136.935278 
L 300.278112 136.935278 
L 300.278112 135.644187 
L 300.789013 135.644187 
L 300.789013 134.826229 
L 301.299914 134.826229 
L 301.299914 134.081322 
L 301.810815 134.081322 
L 301.810815 133.314068 
L 302.321717 133.314068 
L 302.321717 132.565353 
L 302.832618 132.565353 
L 302.832618 130.741431 
L 303.343519 130.741431 
L 303.343519 130.460192 
L 303.854421 130.460192 
L 303.854421 135.274334 
L 304.365322 135.274334 
L 304.365322 141.400555 
L 304.876223 141.400555 
L 304.876223 144.105785 
L 305.387124 144.105785 
L 305.387124 142.672907 
L 305.898026 142.672907 
L 305.898026 136.935422 
L 306.408927 136.935422 
L 306.408927 129.07935 
L 306.919828 129.07935 
L 306.919828 122.252011 
L 307.43073 122.252011 
L 307.43073 117.795877 
L 307.941631 117.795877 
L 307.941631 116.278963 
L 308.452532 116.278963 
L 308.452532 117.451678 
L 308.963433 117.451678 
L 308.963433 120.783901 
L 309.474335 120.783901 
L 309.474335 124.26096 
L 309.985236 124.26096 
L 309.985236 125.51184 
L 310.496137 125.51184 
L 310.496137 125.126176 
L 311.007039 125.126176 
L 311.007039 124.323088 
L 311.51794 124.323088 
L 311.51794 123.609216 
L 312.539742 123.523143 
L 312.539742 123.76438 
L 313.050644 123.76438 
L 313.050644 124.01743 
L 313.561545 124.01743 
L 313.561545 123.812052 
L 314.072446 123.812052 
L 314.072446 122.188992 
L 314.583348 122.188992 
L 314.583348 120.191318 
L 315.094249 120.191318 
L 315.094249 119.598369 
L 315.60515 119.598369 
L 315.60515 119.288806 
L 316.116052 119.288806 
L 316.116052 117.831838 
L 316.626953 117.831838 
L 316.626953 116.049739 
L 317.137854 116.049739 
L 317.137854 114.796327 
L 317.648755 114.796327 
L 317.648755 115.193156 
L 318.159657 115.193156 
L 318.159657 118.105515 
L 318.670558 118.105515 
L 318.670558 122.566742 
L 319.181459 122.566742 
L 319.181459 127.701956 
L 319.692361 127.701956 
L 319.692361 131.237903 
L 320.203262 131.237903 
L 320.203262 130.490988 
L 320.714163 130.490988 
L 320.714163 127.242564 
L 321.225064 127.242564 
L 321.225064 124.299524 
L 321.735966 124.299524 
L 321.735966 122.450127 
L 322.246867 122.450127 
L 322.246867 122.168582 
L 322.757768 122.168582 
L 322.757768 123.393135 
L 323.26867 123.393135 
L 323.26867 125.742777 
L 323.779571 125.742777 
L 323.779571 128.254794 
L 324.290472 128.254794 
L 324.290472 129.85756 
L 324.801373 129.85756 
L 324.801373 130.784671 
L 325.312275 130.784671 
L 325.312275 131.553376 
L 325.823176 131.553376 
L 325.823176 132.781664 
L 326.334077 132.781664 
L 326.334077 134.448647 
L 326.844979 134.448647 
L 326.844979 135.971165 
L 327.35588 135.971165 
L 327.35588 138.788675 
L 327.866781 138.788675 
L 327.866781 141.112612 
L 328.377682 141.112612 
L 328.377682 133.258739 
L 328.888584 133.258739 
L 328.888584 139.093013 
L 329.399485 139.093013 
L 329.399485 127.264386 
L 329.910386 127.264386 
L 329.910386 129.858345 
L 330.421288 129.858345 
L 330.421288 126.802124 
L 331.44309 126.782781 
L 331.44309 127.580156 
L 331.953991 127.580156 
L 331.953991 129.170617 
L 332.464893 129.170617 
L 332.464893 130.968643 
L 332.975794 130.968643 
L 332.975794 132.974501 
L 333.486695 132.974501 
L 333.486695 134.836256 
L 333.997597 134.836256 
L 333.997597 136.16664 
L 334.508498 136.16664 
L 334.508498 139.05549 
L 335.019399 139.05549 
L 335.019399 142.799978 
L 335.5303 142.799978 
L 335.5303 137.428094 
L 336.041202 137.428094 
L 336.041202 144.487578 
L 336.552103 144.487578 
L 336.552103 143.843357 
L 337.063004 143.843357 
L 337.063004 144.380521 
L 337.573906 144.380521 
L 337.573906 145.190455 
L 338.084807 145.190455 
L 338.084807 145.949098 
L 338.595708 145.949098 
L 338.595708 145.772854 
L 339.106609 145.772854 
L 339.106609 144.663414 
L 339.617511 144.663414 
L 339.617511 142.828286 
L 340.128412 142.828286 
L 340.128412 141.79332 
L 340.639313 141.79332 
L 340.639313 140.508829 
L 341.150215 140.508829 
L 341.150215 144.977513 
L 341.661116 144.977513 
L 341.661116 141.521018 
L 342.172017 141.521018 
L 342.172017 136.160799 
L 342.682918 136.160799 
L 342.682918 132.089522 
L 343.19382 132.089522 
L 343.19382 129.666626 
L 343.704721 129.666626 
L 343.704721 126.3407 
L 344.215622 126.3407 
L 344.215622 128.26619 
L 344.726524 128.26619 
L 344.726524 123.696435 
L 345.237425 123.696435 
L 345.237425 119.312843 
L 345.748326 119.312843 
L 345.748326 117.526719 
L 346.259227 117.526719 
L 346.259227 118.070683 
L 346.770129 118.070683 
L 346.770129 116.40764 
L 347.28103 116.40764 
L 347.28103 113.841079 
L 347.791931 113.841079 
L 347.791931 122.265972 
L 348.302833 122.265972 
L 348.302833 117.209812 
L 348.813734 117.209812 
L 348.813734 120.822905 
L 349.324635 120.822905 
L 349.324635 123.25379 
L 349.835536 123.25379 
L 349.835536 125.672152 
L 350.346438 125.672152 
L 350.346438 127.616266 
L 350.857339 127.616266 
L 350.857339 129.693351 
L 351.36824 129.693351 
L 351.36824 131.692791 
L 351.879142 131.692791 
L 351.879142 132.55185 
L 352.390043 132.55185 
L 352.390043 133.37767 
L 352.900944 133.37767 
L 352.900944 136.361164 
L 353.411845 136.361164 
L 353.411845 139.152257 
L 353.922747 139.152257 
L 353.922747 138.134467 
L 354.433648 138.134467 
L 354.433648 135.398108 
L 354.944549 135.398108 
L 354.944549 133.767701 
L 355.455451 133.767701 
L 355.455451 131.988097 
L 355.966352 131.988097 
L 355.966352 130.332579 
L 356.477253 130.332579 
L 356.477253 129.141863 
L 356.988155 129.141863 
L 356.988155 120.40754 
L 357.499056 120.40754 
L 357.499056 123.354717 
L 358.009957 123.354717 
L 358.009957 119.054782 
L 358.520858 119.054782 
L 358.520858 115.259121 
L 359.03176 115.259121 
L 359.03176 110.705799 
L 359.542661 110.705799 
L 359.542661 106.076354 
L 360.053562 106.076354 
L 360.053562 101.61562 
L 360.564464 101.61562 
L 360.564464 97.908779 
L 361.075365 97.908779 
L 361.075365 95.750305 
L 361.586266 95.750305 
L 361.586266 95.099804 
L 362.097167 95.099804 
L 362.097167 95.533829 
L 362.608069 95.533829 
L 362.608069 97.3782 
L 363.11897 97.3782 
L 363.11897 100.967719 
L 363.629871 100.967719 
L 363.629871 105.545027 
L 364.140773 105.545027 
L 364.140773 110.17527 
L 364.651674 110.17527 
L 364.651674 114.276803 
L 365.162575 114.276803 
L 365.162575 117.410398 
L 365.673476 117.410398 
L 365.673476 119.453896 
L 366.184378 119.453896 
L 366.184378 120.484927 
L 366.695279 120.484927 
L 366.695279 120.977574 
L 367.20618 120.977574 
L 367.20618 121.216769 
L 368.227983 121.296181 
L 368.227983 121.988131 
L 368.738884 121.988131 
L 368.738884 122.214479 
L 369.249785 122.214479 
L 369.249785 119.743445 
L 369.760687 119.743445 
L 369.760687 117.104102 
L 370.271588 117.104102 
L 370.271588 118.118297 
L 370.782489 118.118297 
L 370.782489 120.741547 
L 371.293391 120.741547 
L 371.293391 121.768957 
L 372.315193 121.821556 
L 372.315193 122.086149 
L 372.826094 122.086149 
L 372.826094 122.396278 
L 373.336996 122.396278 
L 373.336996 121.290876 
L 373.847897 121.290876 
L 373.847897 118.43268 
L 374.358798 118.43268 
L 374.358798 118.776893 
L 374.8697 118.776893 
L 374.8697 120.346289 
L 375.380601 120.346289 
L 375.380601 104.04423 
L 375.891502 104.04423 
L 375.891502 107.124726 
L 376.402403 107.124726 
L 376.402403 110.631395 
L 376.913305 110.631395 
L 376.913305 118.474724 
L 377.424206 118.474724 
L 377.424206 113.149858 
L 377.935107 113.149858 
L 377.935107 105.764542 
L 378.446009 105.764542 
L 378.446009 107.522614 
L 378.95691 107.522614 
L 378.95691 113.557295 
L 379.467811 113.557295 
L 379.467811 114.720569 
L 379.978712 114.720569 
L 379.978712 114.377132 
L 380.489614 114.377132 
L 380.489614 117.64019 
L 381.000515 117.64019 
L 381.000515 122.178973 
L 381.511416 122.178973 
L 381.511416 124.497266 
L 382.022318 124.497266 
L 382.022318 126.075684 
L 382.533219 126.075684 
L 382.533219 129.281227 
L 383.04412 129.281227 
L 383.04412 132.4922 
L 383.555021 132.4922 
L 383.555021 133.468734 
L 384.065923 133.468734 
L 384.065923 133.044439 
L 384.576824 133.044439 
L 384.576824 132.480984 
L 385.087725 132.480984 
L 385.087725 131.570043 
L 385.598627 131.570043 
L 385.598627 130.289912 
L 386.109528 130.289912 
L 386.109528 128.801145 
L 386.620429 128.801145 
L 386.620429 126.662623 
L 387.13133 126.662623 
L 387.13133 124.832793 
L 387.642232 124.832793 
L 387.642232 125.087342 
L 388.153133 125.087342 
L 388.153133 125.771857 
L 388.664034 125.771857 
L 388.664034 124.3278 
L 389.174936 124.3278 
L 389.174936 122.395886 
L 389.685837 122.395886 
L 389.685837 121.98155 
L 390.196738 121.98155 
L 390.196738 122.311948 
L 390.707639 122.311948 
L 390.707639 124.43024 
L 391.218541 124.43024 
L 391.218541 122.614874 
L 391.729442 122.614874 
L 391.729442 125.639765 
L 392.240343 125.639765 
L 392.240343 128.65847 
L 392.751245 128.65847 
L 392.751245 128.408752 
L 393.262146 128.408752 
L 393.262146 127.536101 
L 393.773047 127.536101 
L 393.773047 130.84898 
L 394.283948 130.84898 
L 394.283948 134.832636 
L 394.79485 134.832636 
L 394.79485 138.798071 
L 395.305751 138.798071 
L 395.305751 141.709634 
L 395.816652 141.709634 
L 395.816652 143.540036 
L 396.327554 143.540036 
L 396.327554 144.387512 
L 397.349356 144.330569 
L 397.349356 143.770381 
L 397.860258 143.770381 
L 397.860258 144.260074 
L 398.371159 144.260074 
L 398.371159 145.184184 
L 398.88206 145.184184 
L 398.88206 141.590218 
L 399.392961 141.590218 
L 399.392961 142.937516 
L 399.903863 142.937516 
L 399.903863 139.876749 
L 400.414764 139.876749 
L 400.414764 136.627753 
L 400.925665 136.627753 
L 400.925665 133.281376 
L 401.436567 133.281376 
L 401.436567 129.704695 
L 401.947468 129.704695 
L 401.947468 125.513495 
L 402.458369 125.513495 
L 402.458369 121.218058 
L 402.96927 121.218058 
L 402.96927 117.593712 
L 403.480172 117.593712 
L 403.480172 115.803291 
L 403.991073 115.803291 
L 403.991073 115.553508 
L 404.501974 115.553508 
L 404.501974 116.505663 
L 405.012876 116.505663 
L 405.012876 123.453379 
L 405.523777 123.453379 
L 405.523777 122.743431 
L 406.034678 122.743431 
L 406.034678 124.770824 
L 407.056481 124.846197 
L 407.056481 124.305569 
L 407.567382 124.305569 
L 407.567382 123.822971 
L 408.078283 123.822971 
L 408.078283 124.620608 
L 408.589185 124.620608 
L 408.589185 125.70424 
L 409.100086 125.70424 
L 409.100086 128.006587 
L 409.610987 128.006587 
L 409.610987 128.73141 
L 410.121888 128.73141 
L 410.121888 129.511154 
L 410.63279 129.511154 
L 410.63279 129.630611 
L 411.143691 129.630611 
L 411.143691 129.334371 
L 411.654592 129.334371 
L 411.654592 129.099765 
L 412.165494 129.099765 
L 412.165494 129.80737 
L 412.676395 129.80737 
L 412.676395 130.758805 
L 413.698197 130.761038 
L 413.698197 130.394874 
L 414.209099 130.394874 
L 414.209099 130.58155 
L 414.72 130.58155 
L 414.72 130.58155 
" clip-path="url(#p8b9236e2e0)" style="fill: none; stroke: #000000; stroke-width: 0.4; stroke-linecap: square"/>
   </g>
   <g id="patch_3">
    <path d="M 57.6 307.584 
L 57.6 41.472 
" style="fill: none; stroke: #000000; stroke-width: 0.8; stroke-linejoin: miter; stroke-linecap: square"/>
   </g>
   <g id="patch_4">
    <path d="M 414.72 307.584 
L 414.72 41.472 
" style="fill: none; stroke: #000000; stroke-width: 0.8; stroke-linejoin: miter; stroke-linecap: square"/>
   </g>
   <g id="patch_5">
    <path d="M 57.6 307.584 
L 414.72 307.584 
" style="fill: none; stroke: #000000; stroke-width: 0.8; stroke-linejoin: miter; stroke-linecap: square"/>
   </g>
   <g id="patch_6">
    <path d="M 57.6 41.472 
L 414.72 41.472 
" style="fill: none; stroke: #000000; stroke-width: 0.8; stroke-linejoin: miter; stroke-linecap: square"/>
   </g>
  </g>
 </g>
 <defs>
  <clipPath id="p8b9236e2e0">
   <rect x="57.6" y="41.472" width="357.12" height="266.112"/>
  </clipPath>
 </defs>
</svg>
