<?xml version="1.0" encoding="utf-8" standalone="no"?>
<!DOCTYPE svg PUBLIC "-//W3C//DTD SVG 1.1//EN"
  "http://www.w3.org/Graphics/SVG/1.1/DTD/svg11.dtd">
<svg xmlns:xlink="http://www.w3.org/1999/xlink" width="460.8pt" height="345.6pt" viewBox="0 0 460.8 345.6" xmlns="http://www.w3.org/2000/svg" version="1.1">
 <metadata>
  <rdf:RDF xmlns:dc="http://purl.org/dc/elements/1.1/" xmlns:cc="http://creativecommons.org/ns#" xmlns:rdf="http://www.w3.org/1999/02/22-rdf-syntax-ns#">
   <cc:Work>
    <dc:type rdf:resource="http://purl.org/dc/dcmitype/StillImage"/>
    <dc:date>2024-05-11T17:13:46.262024</dc:date>
    <dc:format>image/svg+xml</dc:format>
    <dc:creator>
     <cc:Agent>
      <dc:title>Matplotlib v3.8.4, https://matplotlib.org/</dc:title>
     </cc:Agent>
    </dc:creator>
   </cc:Work>
  </rdf:RDF>
 </metadata>
 <defs>
  <style type="text/css">*{stroke-linejoin: round; stroke-linecap: butt}</style>
 </defs>
 <g id="figure_1">
  <g id="patch_1">
   <path d="M 0 345.6 
L 460.8 345.6 
L 460.8 0 
L 0 0 
z
" style="fill: #ffffff"/>
  </g>
  <g id="axes_1">
   <g id="patch_2">
    <path d="M 57.6 307.584 
L 414.72 307.584 
L 414.72 41.472 
L 57.6 41.472 
z
" style="fill: #ffffff"/>
   </g>
   <g id="matplotlib.axis_1">
    <g id="xtick_1">
     <g id="line2d_1">
      <path d="M 57.6 307.584 
L 57.6 41.472 
" clip-path="url(#p7b145c9bd0)" style="fill: none; stroke: #b0b0b0; stroke-width: 0.8; stroke-linecap: square"/>
     </g>
     <g id="line2d_2">
      <defs>
       <path id="m19bf4bfe8c" d="M 0 0 
L 0 3.5 
" style="stroke: #000000; stroke-width: 0.8"/>
      </defs>
      <g>
       <use xlink:href="#m19bf4bfe8c" x="57.6" y="307.584" style="stroke: #000000; stroke-width: 0.8"/>
      </g>
     </g>
    </g>
    <g id="xtick_2">
     <g id="line2d_3">
      <path d="M 87.189943 307.584 
L 87.189943 41.472 
" clip-path="url(#p7b145c9bd0)" style="fill: none; stroke: #b0b0b0; stroke-width: 0.8; stroke-linecap: square"/>
     </g>
     <g id="line2d_4">
      <g>
       <use xlink:href="#m19bf4bfe8c" x="87.189943" y="307.584" style="stroke: #000000; stroke-width: 0.8"/>
      </g>
     </g>
     <g id="text_1">
      <!-- 16h -->
      <g transform="translate(77.658693 322.182437) scale(0.1 -0.1)">
       <defs>
        <path id="DejaVuSans-31" d="M 794 531 
L 1825 531 
L 1825 4091 
L 703 3866 
L 703 4441 
L 1819 4666 
L 2450 4666 
L 2450 531 
L 3481 531 
L 3481 0 
L 794 0 
L 794 531 
z
" transform="scale(0.015625)"/>
        <path id="DejaVuSans-36" d="M 2113 2584 
Q 1688 2584 1439 2293 
Q 1191 2003 1191 1497 
Q 1191 994 1439 701 
Q 1688 409 2113 409 
Q 2538 409 2786 701 
Q 3034 994 3034 1497 
Q 3034 2003 2786 2293 
Q 2538 2584 2113 2584 
z
M 3366 4563 
L 3366 3988 
Q 3128 4100 2886 4159 
Q 2644 4219 2406 4219 
Q 1781 4219 1451 3797 
Q 1122 3375 1075 2522 
Q 1259 2794 1537 2939 
Q 1816 3084 2150 3084 
Q 2853 3084 3261 2657 
Q 3669 2231 3669 1497 
Q 3669 778 3244 343 
Q 2819 -91 2113 -91 
Q 1303 -91 875 529 
Q 447 1150 447 2328 
Q 447 3434 972 4092 
Q 1497 4750 2381 4750 
Q 2619 4750 2861 4703 
Q 3103 4656 3366 4563 
z
" transform="scale(0.015625)"/>
        <path id="DejaVuSans-68" d="M 3513 2113 
L 3513 0 
L 2938 0 
L 2938 2094 
Q 2938 2591 2744 2837 
Q 2550 3084 2163 3084 
Q 1697 3084 1428 2787 
Q 1159 2491 1159 1978 
L 1159 0 
L 581 0 
L 581 4863 
L 1159 4863 
L 1159 2956 
Q 1366 3272 1645 3428 
Q 1925 3584 2291 3584 
Q 2894 3584 3203 3211 
Q 3513 2838 3513 2113 
z
" transform="scale(0.015625)"/>
       </defs>
       <use xlink:href="#DejaVuSans-31"/>
       <use xlink:href="#DejaVuSans-36" x="63.623047"/>
       <use xlink:href="#DejaVuSans-68" x="127.246094"/>
      </g>
     </g>
    </g>
    <g id="xtick_3">
     <g id="line2d_5">
      <path d="M 116.779886 307.584 
L 116.779886 41.472 
" clip-path="url(#p7b145c9bd0)" style="fill: none; stroke: #b0b0b0; stroke-width: 0.8; stroke-linecap: square"/>
     </g>
     <g id="line2d_6">
      <g>
       <use xlink:href="#m19bf4bfe8c" x="116.779886" y="307.584" style="stroke: #000000; stroke-width: 0.8"/>
      </g>
     </g>
     <g id="text_2">
      <!-- 18h -->
      <g transform="translate(107.248636 322.182437) scale(0.1 -0.1)">
       <defs>
        <path id="DejaVuSans-38" d="M 2034 2216 
Q 1584 2216 1326 1975 
Q 1069 1734 1069 1313 
Q 1069 891 1326 650 
Q 1584 409 2034 409 
Q 2484 409 2743 651 
Q 3003 894 3003 1313 
Q 3003 1734 2745 1975 
Q 2488 2216 2034 2216 
z
M 1403 2484 
Q 997 2584 770 2862 
Q 544 3141 544 3541 
Q 544 4100 942 4425 
Q 1341 4750 2034 4750 
Q 2731 4750 3128 4425 
Q 3525 4100 3525 3541 
Q 3525 3141 3298 2862 
Q 3072 2584 2669 2484 
Q 3125 2378 3379 2068 
Q 3634 1759 3634 1313 
Q 3634 634 3220 271 
Q 2806 -91 2034 -91 
Q 1263 -91 848 271 
Q 434 634 434 1313 
Q 434 1759 690 2068 
Q 947 2378 1403 2484 
z
M 1172 3481 
Q 1172 3119 1398 2916 
Q 1625 2713 2034 2713 
Q 2441 2713 2670 2916 
Q 2900 3119 2900 3481 
Q 2900 3844 2670 4047 
Q 2441 4250 2034 4250 
Q 1625 4250 1398 4047 
Q 1172 3844 1172 3481 
z
" transform="scale(0.015625)"/>
       </defs>
       <use xlink:href="#DejaVuSans-31"/>
       <use xlink:href="#DejaVuSans-38" x="63.623047"/>
       <use xlink:href="#DejaVuSans-68" x="127.246094"/>
      </g>
     </g>
    </g>
    <g id="xtick_4">
     <g id="line2d_7">
      <path d="M 146.369829 307.584 
L 146.369829 41.472 
" clip-path="url(#p7b145c9bd0)" style="fill: none; stroke: #b0b0b0; stroke-width: 0.8; stroke-linecap: square"/>
     </g>
     <g id="line2d_8">
      <g>
       <use xlink:href="#m19bf4bfe8c" x="146.369829" y="307.584" style="stroke: #000000; stroke-width: 0.8"/>
      </g>
     </g>
     <g id="text_3">
      <!-- 20h -->
      <g transform="translate(136.838579 322.182437) scale(0.1 -0.1)">
       <defs>
        <path id="DejaVuSans-32" d="M 1228 531 
L 3431 531 
L 3431 0 
L 469 0 
L 469 531 
Q 828 903 1448 1529 
Q 2069 2156 2228 2338 
Q 2531 2678 2651 2914 
Q 2772 3150 2772 3378 
Q 2772 3750 2511 3984 
Q 2250 4219 1831 4219 
Q 1534 4219 1204 4116 
Q 875 4013 500 3803 
L 500 4441 
Q 881 4594 1212 4672 
Q 1544 4750 1819 4750 
Q 2544 4750 2975 4387 
Q 3406 4025 3406 3419 
Q 3406 3131 3298 2873 
Q 3191 2616 2906 2266 
Q 2828 2175 2409 1742 
Q 1991 1309 1228 531 
z
" transform="scale(0.015625)"/>
        <path id="DejaVuSans-30" d="M 2034 4250 
Q 1547 4250 1301 3770 
Q 1056 3291 1056 2328 
Q 1056 1369 1301 889 
Q 1547 409 2034 409 
Q 2525 409 2770 889 
Q 3016 1369 3016 2328 
Q 3016 3291 2770 3770 
Q 2525 4250 2034 4250 
z
M 2034 4750 
Q 2819 4750 3233 4129 
Q 3647 3509 3647 2328 
Q 3647 1150 3233 529 
Q 2819 -91 2034 -91 
Q 1250 -91 836 529 
Q 422 1150 422 2328 
Q 422 3509 836 4129 
Q 1250 4750 2034 4750 
z
" transform="scale(0.015625)"/>
       </defs>
       <use xlink:href="#DejaVuSans-32"/>
       <use xlink:href="#DejaVuSans-30" x="63.623047"/>
       <use xlink:href="#DejaVuSans-68" x="127.246094"/>
      </g>
     </g>
    </g>
    <g id="xtick_5">
     <g id="line2d_9">
      <path d="M 175.959771 307.584 
L 175.959771 41.472 
" clip-path="url(#p7b145c9bd0)" style="fill: none; stroke: #b0b0b0; stroke-width: 0.8; stroke-linecap: square"/>
     </g>
     <g id="line2d_10">
      <g>
       <use xlink:href="#m19bf4bfe8c" x="175.959771" y="307.584" style="stroke: #000000; stroke-width: 0.8"/>
      </g>
     </g>
     <g id="text_4">
      <!-- 22h -->
      <g transform="translate(166.428521 322.182437) scale(0.1 -0.1)">
       <use xlink:href="#DejaVuSans-32"/>
       <use xlink:href="#DejaVuSans-32" x="63.623047"/>
       <use xlink:href="#DejaVuSans-68" x="127.246094"/>
      </g>
     </g>
    </g>
    <g id="xtick_6">
     <g id="line2d_11">
      <path d="M 205.549714 307.584 
L 205.549714 41.472 
" clip-path="url(#p7b145c9bd0)" style="fill: none; stroke: #b0b0b0; stroke-width: 0.8; stroke-linecap: square"/>
     </g>
     <g id="line2d_12">
      <g>
       <use xlink:href="#m19bf4bfe8c" x="205.549714" y="307.584" style="stroke: #000000; stroke-width: 0.8"/>
      </g>
     </g>
     <g id="text_5">
      <!-- 00h -->
      <g transform="translate(196.018464 322.182437) scale(0.1 -0.1)">
       <use xlink:href="#DejaVuSans-30"/>
       <use xlink:href="#DejaVuSans-30" x="63.623047"/>
       <use xlink:href="#DejaVuSans-68" x="127.246094"/>
      </g>
     </g>
    </g>
    <g id="xtick_7">
     <g id="line2d_13">
      <path d="M 235.139657 307.584 
L 235.139657 41.472 
" clip-path="url(#p7b145c9bd0)" style="fill: none; stroke: #b0b0b0; stroke-width: 0.8; stroke-linecap: square"/>
     </g>
     <g id="line2d_14">
      <g>
       <use xlink:href="#m19bf4bfe8c" x="235.139657" y="307.584" style="stroke: #000000; stroke-width: 0.8"/>
      </g>
     </g>
     <g id="text_6">
      <!-- 02h -->
      <g transform="translate(225.608407 322.182437) scale(0.1 -0.1)">
       <use xlink:href="#DejaVuSans-30"/>
       <use xlink:href="#DejaVuSans-32" x="63.623047"/>
       <use xlink:href="#DejaVuSans-68" x="127.246094"/>
      </g>
     </g>
    </g>
    <g id="xtick_8">
     <g id="line2d_15">
      <path d="M 264.7296 307.584 
L 264.7296 41.472 
" clip-path="url(#p7b145c9bd0)" style="fill: none; stroke: #b0b0b0; stroke-width: 0.8; stroke-linecap: square"/>
     </g>
     <g id="line2d_16">
      <g>
       <use xlink:href="#m19bf4bfe8c" x="264.7296" y="307.584" style="stroke: #000000; stroke-width: 0.8"/>
      </g>
     </g>
     <g id="text_7">
      <!-- 04h -->
      <g transform="translate(255.19835 322.182437) scale(0.1 -0.1)">
       <defs>
        <path id="DejaVuSans-34" d="M 2419 4116 
L 825 1625 
L 2419 1625 
L 2419 4116 
z
M 2253 4666 
L 3047 4666 
L 3047 1625 
L 3713 1625 
L 3713 1100 
L 3047 1100 
L 3047 0 
L 2419 0 
L 2419 1100 
L 313 1100 
L 313 1709 
L 2253 4666 
z
" transform="scale(0.015625)"/>
       </defs>
       <use xlink:href="#DejaVuSans-30"/>
       <use xlink:href="#DejaVuSans-34" x="63.623047"/>
       <use xlink:href="#DejaVuSans-68" x="127.246094"/>
      </g>
     </g>
    </g>
    <g id="xtick_9">
     <g id="line2d_17">
      <path d="M 294.319543 307.584 
L 294.319543 41.472 
" clip-path="url(#p7b145c9bd0)" style="fill: none; stroke: #b0b0b0; stroke-width: 0.8; stroke-linecap: square"/>
     </g>
     <g id="line2d_18">
      <g>
       <use xlink:href="#m19bf4bfe8c" x="294.319543" y="307.584" style="stroke: #000000; stroke-width: 0.8"/>
      </g>
     </g>
     <g id="text_8">
      <!-- 06h -->
      <g transform="translate(284.788293 322.182437) scale(0.1 -0.1)">
       <use xlink:href="#DejaVuSans-30"/>
       <use xlink:href="#DejaVuSans-36" x="63.623047"/>
       <use xlink:href="#DejaVuSans-68" x="127.246094"/>
      </g>
     </g>
    </g>
    <g id="xtick_10">
     <g id="line2d_19">
      <path d="M 323.909486 307.584 
L 323.909486 41.472 
" clip-path="url(#p7b145c9bd0)" style="fill: none; stroke: #b0b0b0; stroke-width: 0.8; stroke-linecap: square"/>
     </g>
     <g id="line2d_20">
      <g>
       <use xlink:href="#m19bf4bfe8c" x="323.909486" y="307.584" style="stroke: #000000; stroke-width: 0.8"/>
      </g>
     </g>
     <g id="text_9">
      <!-- 08h -->
      <g transform="translate(314.378236 322.182437) scale(0.1 -0.1)">
       <use xlink:href="#DejaVuSans-30"/>
       <use xlink:href="#DejaVuSans-38" x="63.623047"/>
       <use xlink:href="#DejaVuSans-68" x="127.246094"/>
      </g>
     </g>
    </g>
    <g id="xtick_11">
     <g id="line2d_21">
      <path d="M 353.499429 307.584 
L 353.499429 41.472 
" clip-path="url(#p7b145c9bd0)" style="fill: none; stroke: #b0b0b0; stroke-width: 0.8; stroke-linecap: square"/>
     </g>
     <g id="line2d_22">
      <g>
       <use xlink:href="#m19bf4bfe8c" x="353.499429" y="307.584" style="stroke: #000000; stroke-width: 0.8"/>
      </g>
     </g>
     <g id="text_10">
      <!-- 10h -->
      <g transform="translate(343.968179 322.182437) scale(0.1 -0.1)">
       <use xlink:href="#DejaVuSans-31"/>
       <use xlink:href="#DejaVuSans-30" x="63.623047"/>
       <use xlink:href="#DejaVuSans-68" x="127.246094"/>
      </g>
     </g>
    </g>
    <g id="xtick_12">
     <g id="line2d_23">
      <path d="M 383.089371 307.584 
L 383.089371 41.472 
" clip-path="url(#p7b145c9bd0)" style="fill: none; stroke: #b0b0b0; stroke-width: 0.8; stroke-linecap: square"/>
     </g>
     <g id="line2d_24">
      <g>
       <use xlink:href="#m19bf4bfe8c" x="383.089371" y="307.584" style="stroke: #000000; stroke-width: 0.8"/>
      </g>
     </g>
     <g id="text_11">
      <!-- 12h -->
      <g transform="translate(373.558121 322.182437) scale(0.1 -0.1)">
       <use xlink:href="#DejaVuSans-31"/>
       <use xlink:href="#DejaVuSans-32" x="63.623047"/>
       <use xlink:href="#DejaVuSans-68" x="127.246094"/>
      </g>
     </g>
    </g>
    <g id="xtick_13">
     <g id="line2d_25">
      <path d="M 412.679314 307.584 
L 412.679314 41.472 
" clip-path="url(#p7b145c9bd0)" style="fill: none; stroke: #b0b0b0; stroke-width: 0.8; stroke-linecap: square"/>
     </g>
     <g id="line2d_26">
      <g>
       <use xlink:href="#m19bf4bfe8c" x="412.679314" y="307.584" style="stroke: #000000; stroke-width: 0.8"/>
      </g>
     </g>
     <g id="text_12">
      <!-- 14h -->
      <g transform="translate(403.148064 322.182437) scale(0.1 -0.1)">
       <use xlink:href="#DejaVuSans-31"/>
       <use xlink:href="#DejaVuSans-34" x="63.623047"/>
       <use xlink:href="#DejaVuSans-68" x="127.246094"/>
      </g>
     </g>
    </g>
   </g>
   <g id="matplotlib.axis_2">
    <g id="ytick_1">
     <g id="line2d_27">
      <path d="M 57.6 307.584 
L 414.72 307.584 
" clip-path="url(#p7b145c9bd0)" style="fill: none; stroke: #b0b0b0; stroke-width: 0.8; stroke-linecap: square"/>
     </g>
     <g id="line2d_28">
      <defs>
       <path id="mcbd841322e" d="M 0 0 
L -3.5 0 
" style="stroke: #000000; stroke-width: 0.8"/>
      </defs>
      <g>
       <use xlink:href="#mcbd841322e" x="57.6" y="307.584" style="stroke: #000000; stroke-width: 0.8"/>
      </g>
     </g>
     <g id="text_13">
      <!-- 40 -->
      <g transform="translate(37.875 311.383219) scale(0.1 -0.1)">
       <use xlink:href="#DejaVuSans-34"/>
       <use xlink:href="#DejaVuSans-30" x="63.623047"/>
      </g>
     </g>
    </g>
    <g id="ytick_2">
     <g id="line2d_29">
      <path d="M 57.6 274.32 
L 414.72 274.32 
" clip-path="url(#p7b145c9bd0)" style="fill: none; stroke: #b0b0b0; stroke-width: 0.8; stroke-linecap: square"/>
     </g>
     <g id="line2d_30">
      <g>
       <use xlink:href="#mcbd841322e" x="57.6" y="274.32" style="stroke: #000000; stroke-width: 0.8"/>
      </g>
     </g>
     <g id="text_14">
      <!-- 45 -->
      <g transform="translate(37.875 278.119219) scale(0.1 -0.1)">
       <defs>
        <path id="DejaVuSans-35" d="M 691 4666 
L 3169 4666 
L 3169 4134 
L 1269 4134 
L 1269 2991 
Q 1406 3038 1543 3061 
Q 1681 3084 1819 3084 
Q 2600 3084 3056 2656 
Q 3513 2228 3513 1497 
Q 3513 744 3044 326 
Q 2575 -91 1722 -91 
Q 1428 -91 1123 -41 
Q 819 9 494 109 
L 494 744 
Q 775 591 1075 516 
Q 1375 441 1709 441 
Q 2250 441 2565 725 
Q 2881 1009 2881 1497 
Q 2881 1984 2565 2268 
Q 2250 2553 1709 2553 
Q 1456 2553 1204 2497 
Q 953 2441 691 2322 
L 691 4666 
z
" transform="scale(0.015625)"/>
       </defs>
       <use xlink:href="#DejaVuSans-34"/>
       <use xlink:href="#DejaVuSans-35" x="63.623047"/>
      </g>
     </g>
    </g>
    <g id="ytick_3">
     <g id="line2d_31">
      <path d="M 57.6 241.056 
L 414.72 241.056 
" clip-path="url(#p7b145c9bd0)" style="fill: none; stroke: #b0b0b0; stroke-width: 0.8; stroke-linecap: square"/>
     </g>
     <g id="line2d_32">
      <g>
       <use xlink:href="#mcbd841322e" x="57.6" y="241.056" style="stroke: #000000; stroke-width: 0.8"/>
      </g>
     </g>
     <g id="text_15">
      <!-- 50 -->
      <g transform="translate(37.875 244.855219) scale(0.1 -0.1)">
       <use xlink:href="#DejaVuSans-35"/>
       <use xlink:href="#DejaVuSans-30" x="63.623047"/>
      </g>
     </g>
    </g>
    <g id="ytick_4">
     <g id="line2d_33">
      <path d="M 57.6 207.792 
L 414.72 207.792 
" clip-path="url(#p7b145c9bd0)" style="fill: none; stroke: #b0b0b0; stroke-width: 0.8; stroke-linecap: square"/>
     </g>
     <g id="line2d_34">
      <g>
       <use xlink:href="#mcbd841322e" x="57.6" y="207.792" style="stroke: #000000; stroke-width: 0.8"/>
      </g>
     </g>
     <g id="text_16">
      <!-- 55 -->
      <g transform="translate(37.875 211.591219) scale(0.1 -0.1)">
       <use xlink:href="#DejaVuSans-35"/>
       <use xlink:href="#DejaVuSans-35" x="63.623047"/>
      </g>
     </g>
    </g>
    <g id="ytick_5">
     <g id="line2d_35">
      <path d="M 57.6 174.528 
L 414.72 174.528 
" clip-path="url(#p7b145c9bd0)" style="fill: none; stroke: #b0b0b0; stroke-width: 0.8; stroke-linecap: square"/>
     </g>
     <g id="line2d_36">
      <g>
       <use xlink:href="#mcbd841322e" x="57.6" y="174.528" style="stroke: #000000; stroke-width: 0.8"/>
      </g>
     </g>
     <g id="text_17">
      <!-- 60 -->
      <g transform="translate(37.875 178.327219) scale(0.1 -0.1)">
       <use xlink:href="#DejaVuSans-36"/>
       <use xlink:href="#DejaVuSans-30" x="63.623047"/>
      </g>
     </g>
    </g>
    <g id="ytick_6">
     <g id="line2d_37">
      <path d="M 57.6 141.264 
L 414.72 141.264 
" clip-path="url(#p7b145c9bd0)" style="fill: none; stroke: #b0b0b0; stroke-width: 0.8; stroke-linecap: square"/>
     </g>
     <g id="line2d_38">
      <g>
       <use xlink:href="#mcbd841322e" x="57.6" y="141.264" style="stroke: #000000; stroke-width: 0.8"/>
      </g>
     </g>
     <g id="text_18">
      <!-- 65 -->
      <g transform="translate(37.875 145.063219) scale(0.1 -0.1)">
       <use xlink:href="#DejaVuSans-36"/>
       <use xlink:href="#DejaVuSans-35" x="63.623047"/>
      </g>
     </g>
    </g>
    <g id="ytick_7">
     <g id="line2d_39">
      <path d="M 57.6 108 
L 414.72 108 
" clip-path="url(#p7b145c9bd0)" style="fill: none; stroke: #b0b0b0; stroke-width: 0.8; stroke-linecap: square"/>
     </g>
     <g id="line2d_40">
      <g>
       <use xlink:href="#mcbd841322e" x="57.6" y="108" style="stroke: #000000; stroke-width: 0.8"/>
      </g>
     </g>
     <g id="text_19">
      <!-- 70 -->
      <g transform="translate(37.875 111.799219) scale(0.1 -0.1)">
       <defs>
        <path id="DejaVuSans-37" d="M 525 4666 
L 3525 4666 
L 3525 4397 
L 1831 0 
L 1172 0 
L 2766 4134 
L 525 4134 
L 525 4666 
z
" transform="scale(0.015625)"/>
       </defs>
       <use xlink:href="#DejaVuSans-37"/>
       <use xlink:href="#DejaVuSans-30" x="63.623047"/>
      </g>
     </g>
    </g>
    <g id="ytick_8">
     <g id="line2d_41">
      <path d="M 57.6 74.736 
L 414.72 74.736 
" clip-path="url(#p7b145c9bd0)" style="fill: none; stroke: #b0b0b0; stroke-width: 0.8; stroke-linecap: square"/>
     </g>
     <g id="line2d_42">
      <g>
       <use xlink:href="#mcbd841322e" x="57.6" y="74.736" style="stroke: #000000; stroke-width: 0.8"/>
      </g>
     </g>
     <g id="text_20">
      <!-- 75 -->
      <g transform="translate(37.875 78.535219) scale(0.1 -0.1)">
       <use xlink:href="#DejaVuSans-37"/>
       <use xlink:href="#DejaVuSans-35" x="63.623047"/>
      </g>
     </g>
    </g>
    <g id="ytick_9">
     <g id="line2d_43">
      <path d="M 57.6 41.472 
L 414.72 41.472 
" clip-path="url(#p7b145c9bd0)" style="fill: none; stroke: #b0b0b0; stroke-width: 0.8; stroke-linecap: square"/>
     </g>
     <g id="line2d_44">
      <g>
       <use xlink:href="#mcbd841322e" x="57.6" y="41.472" style="stroke: #000000; stroke-width: 0.8"/>
      </g>
     </g>
     <g id="text_21">
      <!-- 80 -->
      <g transform="translate(37.875 45.271219) scale(0.1 -0.1)">
       <use xlink:href="#DejaVuSans-38"/>
       <use xlink:href="#DejaVuSans-30" x="63.623047"/>
      </g>
     </g>
    </g>
   </g>
   <g id="line2d_45">
    <path d="M 57.6 114.061146 
L 58.110171 137.0633 
L 58.620343 112.905562 
L 59.130514 114.007628 
L 59.640686 109.347648 
L 60.150857 123.103655 
L 60.661029 117.216518 
L 61.1712 130.340918 
L 61.681371 110.226673 
L 62.191543 130.654273 
L 62.701714 133.703251 
L 63.211886 127.319793 
L 63.722057 133.851757 
L 64.232229 127.223768 
L 64.7424 123.126995 
L 65.252571 125.025523 
L 65.762743 125.395989 
L 66.272914 136.951404 
L 66.783086 141.49669 
L 67.293257 138.197879 
L 67.803429 127.963173 
L 68.3136 147.770607 
L 68.823771 127.359286 
L 69.333943 123.840582 
L 69.844114 111.58983 
L 70.354286 108.315063 
L 70.864457 101.68226 
L 71.374629 97.23734 
L 71.8848 95.022575 
L 72.394971 117.681934 
L 72.905143 100.524049 
L 73.415314 95.59756 
L 73.925486 116.924193 
L 74.435657 98.591572 
L 74.945829 106.491909 
L 75.456 120.578701 
L 75.966171 125.652104 
L 76.476343 125.012151 
L 76.986514 133.114439 
L 77.496686 118.310815 
L 78.006857 140.431713 
L 78.517029 139.277638 
L 79.0272 127.645707 
L 79.537371 118.87255 
L 80.047543 138.692488 
L 80.557714 135.244096 
L 81.067886 151.815782 
L 81.578057 142.730608 
L 82.088229 135.66418 
L 82.5984 144.86502 
L 83.108571 146.207243 
L 83.618743 149.224183 
L 84.128914 142.971709 
L 84.639086 132.582988 
L 85.149257 130.985133 
L 85.659429 130.719925 
L 86.1696 138.266239 
L 86.679771 135.387348 
L 87.189943 109.41914 
L 87.700114 134.768268 
L 88.210286 124.834645 
L 89.230629 115.64793 
L 89.7408 124.39062 
L 90.250971 125.604516 
L 90.761143 133.387258 
L 91.271314 143.182343 
L 91.781486 147.281869 
L 92.291657 145.826904 
L 92.801829 128.180971 
L 93.312 128.330058 
L 93.822171 136.044341 
L 94.332343 138.101642 
L 94.842514 124.552412 
L 95.352686 131.464211 
L 95.862857 134.34414 
L 96.373029 122.10546 
L 96.8832 118.722457 
L 97.393371 117.05628 
L 97.903543 124.575862 
L 98.413714 137.427181 
L 98.923886 106.240943 
L 99.434057 118.392803 
L 99.944229 118.06709 
L 100.4544 107.102321 
L 100.964571 142.044944 
L 101.474743 124.875819 
L 101.984914 140.389658 
L 102.495086 130.236406 
L 103.005257 117.108584 
L 103.515429 110.740262 
L 104.0256 101.460864 
L 104.535771 106.452276 
L 105.045943 96.599066 
L 105.556114 81.04618 
L 106.066286 81.099201 
L 106.576457 98.933197 
L 107.086629 91.748617 
L 107.5968 101.496162 
L 108.106971 83.488978 
L 109.127314 110.049044 
L 109.637486 98.405195 
L 110.147657 111.889971 
L 110.657829 114.695897 
L 111.168 109.822627 
L 111.678171 103.462923 
L 112.188343 113.828127 
L 112.698514 110.531273 
L 113.208686 123.763785 
L 113.718857 113.656193 
L 114.229029 117.929038 
L 114.7392 103.758301 
L 115.249371 124.457682 
L 115.759543 105.014614 
L 116.269714 126.057747 
L 116.779886 125.933255 
L 117.290057 128.466269 
L 117.800229 118.602757 
L 118.3104 111.91387 
L 118.820571 131.500987 
L 119.330743 138.881722 
L 119.840914 132.731759 
L 120.351086 143.934725 
L 120.861257 121.599944 
L 121.371429 137.437373 
L 121.8816 133.233084 
L 122.901943 137.149276 
L 123.412114 138.706784 
L 123.922286 151.339805 
L 124.432457 152.660024 
L 124.942629 139.155096 
L 125.4528 145.112281 
L 125.962971 147.992963 
L 126.473143 139.467718 
L 126.983314 146.836749 
L 127.493486 124.651512 
L 128.003657 149.021345 
L 128.513829 156.658852 
L 129.024 152.212844 
L 129.534171 143.666546 
L 130.044343 146.746621 
L 130.554514 144.83848 
L 131.064686 130.222477 
L 131.574857 141.226467 
L 132.085029 139.585032 
L 132.5952 146.665011 
L 133.105371 134.921371 
L 133.615543 136.952177 
L 134.125714 133.339211 
L 134.635886 151.8405 
L 135.146057 133.314795 
L 135.656229 138.658463 
L 136.1664 127.237504 
L 136.676571 146.04991 
L 137.186743 131.752654 
L 137.696914 154.232702 
L 138.717257 145.247783 
L 139.227429 156.850139 
L 139.7376 177.521238 
L 140.247771 145.640618 
L 140.757943 142.870189 
L 141.268114 147.720098 
L 141.778286 114.029017 
L 142.288457 107.767926 
L 142.798629 147.696282 
L 143.3088 106.819518 
L 143.818971 107.850592 
L 144.329143 100.873645 
L 144.839314 107.173095 
L 145.349486 115.243955 
L 145.859657 135.019804 
L 146.88 139.196358 
L 147.390171 140.582492 
L 147.900343 153.523581 
L 148.410514 145.278434 
L 148.920686 153.360421 
L 149.430857 142.126581 
L 149.941029 151.992193 
L 150.4512 145.301559 
L 150.961371 142.929389 
L 151.471543 130.816255 
L 151.981714 143.135927 
L 152.491886 144.251863 
L 153.002057 140.303335 
L 153.512229 148.589366 
L 154.0224 149.142652 
L 154.532571 136.574415 
L 155.042743 150.692527 
L 155.552914 157.277516 
L 156.063086 154.005909 
L 156.573257 139.93498 
L 157.083429 159.031219 
L 157.5936 160.285581 
L 158.103771 173.794002 
L 158.613943 150.647651 
L 159.124114 158.909594 
L 159.634286 159.996474 
L 160.144457 169.353067 
L 161.1648 139.08074 
L 161.674971 141.117097 
L 162.695314 156.356589 
L 163.205486 148.668683 
L 163.715657 163.148348 
L 164.225829 153.05726 
L 164.736 170.488652 
L 165.246171 160.438946 
L 165.756343 209.671595 
L 166.266514 170.524195 
L 166.776686 172.174807 
L 167.286857 141.108822 
L 167.797029 154.923771 
L 168.3072 191.486491 
L 168.817371 151.610829 
L 169.327543 195.789742 
L 169.837714 148.942158 
L 170.858057 170.409222 
L 171.368229 163.275361 
L 171.8784 162.89296 
L 172.388571 181.98351 
L 172.898743 130.860984 
L 173.408914 205.708267 
L 173.919086 128.919153 
L 174.429257 115.753963 
L 174.939429 137.206504 
L 175.4496 134.415476 
L 175.959771 127.558811 
L 176.469943 188.761342 
L 176.980114 193.263721 
L 177.490286 182.491671 
L 178.000457 163.829856 
L 178.510629 199.580405 
L 179.0208 170.26274 
L 179.530971 185.784294 
L 180.041143 216.475147 
L 180.551314 226.758644 
L 181.061486 194.420742 
L 181.571657 230.314968 
L 182.081829 215.919084 
L 182.592 189.139043 
L 183.102171 135.519363 
L 183.612343 191.377137 
L 184.122514 145.671572 
L 184.632686 170.974768 
L 185.142857 146.1926 
L 185.653029 184.368936 
L 186.1632 209.576148 
L 186.673371 206.336693 
L 187.183543 234.569017 
L 187.693714 195.508767 
L 188.714057 170.03658 
L 189.7344 259.552186 
L 190.244571 218.962278 
L 190.754743 224.733713 
L 191.264914 194.329019 
L 191.775086 186.679257 
L 192.285257 217.173054 
L 192.795429 195.721297 
L 193.3056 165.272003 
L 193.815771 168.117459 
L 194.325943 200.92448 
L 194.836114 211.086814 
L 195.346286 139.076313 
L 195.856457 171.480121 
L 196.366629 182.239986 
L 196.8768 246.089803 
L 197.386971 149.601932 
L 197.897143 191.523289 
L 198.407314 196.584608 
L 198.917486 154.436806 
L 199.427657 160.088563 
L 199.937829 195.680848 
L 200.448 218.553721 
L 200.958171 186.550904 
L 201.468343 207.145719 
L 201.978514 208.425335 
L 202.488686 181.930186 
L 202.998857 184.595278 
L 203.509029 204.161025 
L 204.0192 204.559387 
L 204.529371 209.200014 
L 205.039543 236.807193 
L 205.549714 203.637606 
L 206.059886 216.513648 
L 206.570057 212.363184 
L 207.080229 219.660659 
L 207.5904 252.314934 
L 208.100571 245.338749 
L 208.610743 281.516771 
L 209.120914 251.262704 
L 209.631086 204.114138 
L 210.141257 258.076726 
L 210.651429 207.384563 
L 211.1616 203.492239 
L 211.671771 243.000083 
L 212.181943 241.535128 
L 212.692114 240.6649 
L 213.202286 258.16809 
L 213.712457 253.335877 
L 214.222629 257.909717 
L 214.7328 254.482503 
L 215.242971 258.766917 
L 215.753143 244.479968 
L 216.263314 265.02707 
L 216.773486 274.070435 
L 217.283657 249.779652 
L 217.793829 239.519294 
L 218.304 253.705915 
L 218.814171 225.9774 
L 219.324343 227.440283 
L 219.834514 250.584372 
L 220.344686 248.678461 
L 220.854857 237.566848 
L 221.365029 246.58802 
L 221.8752 263.183721 
L 222.385371 258.939822 
L 222.895543 244.884045 
L 223.405714 226.597419 
L 223.915886 249.32524 
L 224.426057 216.838857 
L 224.936229 276.437769 
L 225.4464 218.592608 
L 225.956571 176.800838 
L 226.466743 213.414741 
L 226.976914 269.505867 
L 227.487086 239.342194 
L 227.997257 245.549831 
L 228.507429 268.403692 
L 229.0176 255.074984 
L 229.527771 251.881515 
L 230.037943 273.856124 
L 230.548114 248.832758 
L 231.568457 218.427461 
L 232.078629 235.087946 
L 232.5888 272.274426 
L 233.098971 236.328066 
L 233.609143 256.132796 
L 234.119314 240.662056 
L 234.629486 238.180667 
L 235.139657 225.743626 
L 235.649829 218.059008 
L 236.16 259.106597 
L 236.670171 205.370262 
L 237.180343 244.794454 
L 237.690514 226.749903 
L 238.710857 176.795529 
L 239.221029 237.038085 
L 239.7312 240.984279 
L 240.241371 196.773725 
L 240.751543 243.407033 
L 241.261714 236.107951 
L 241.771886 245.449266 
L 242.282057 257.227985 
L 242.792229 214.570571 
L 243.812571 176.60265 
L 244.322743 215.153265 
L 244.832914 193.497119 
L 245.343086 178.266616 
L 245.853257 208.869103 
L 246.363429 225.98992 
L 246.8736 195.205775 
L 247.383771 212.030613 
L 247.893943 259.382072 
L 248.404114 231.601484 
L 248.914286 234.122868 
L 249.424457 231.083635 
L 249.934629 205.550921 
L 250.4448 218.280152 
L 250.954971 269.97592 
L 251.465143 268.150433 
L 251.975314 252.21807 
L 252.485486 222.81334 
L 252.995657 274.358485 
L 253.505829 202.437037 
L 254.016 221.811326 
L 254.526171 192.273053 
L 255.036343 232.420684 
L 255.546514 201.856772 
L 256.056686 180.941836 
L 257.5872 261.363757 
L 258.607543 187.764081 
L 259.117714 214.410529 
L 259.627886 249.861594 
L 260.138057 208.135871 
L 260.648229 194.401718 
L 261.1584 158.959943 
L 261.668571 227.254978 
L 262.178743 218.53225 
L 262.688914 247.71062 
L 263.199086 239.098364 
L 263.709257 209.031241 
L 264.219429 210.25826 
L 264.7296 140.239186 
L 265.239771 155.410147 
L 265.749943 262.955038 
L 266.260114 231.811385 
L 266.770286 217.657602 
L 267.280457 155.984026 
L 267.790629 220.71787 
L 268.3008 216.978871 
L 268.810971 204.87683 
L 269.321143 210.672767 
L 269.831314 170.243551 
L 270.341486 219.016384 
L 270.851657 147.088584 
L 271.361829 206.804275 
L 271.872 231.158898 
L 272.892343 168.287284 
L 273.402514 210.261825 
L 273.912686 163.386039 
L 274.422857 185.00367 
L 274.933029 123.850597 
L 275.4432 130.145401 
L 275.953371 205.941194 
L 276.463543 151.247328 
L 277.483886 207.99601 
L 277.994057 118.975277 
L 278.504229 170.347217 
L 279.0144 139.166552 
L 279.524571 156.846366 
L 280.034743 155.633763 
L 280.544914 138.561148 
L 281.055086 164.587372 
L 281.565257 180.693546 
L 282.075429 112.7553 
L 282.5856 165.326994 
L 283.095771 129.120594 
L 283.605943 172.366999 
L 284.116114 132.299874 
L 284.626286 167.702837 
L 285.136457 141.174203 
L 285.646629 147.475074 
L 286.1568 162.043928 
L 286.666971 149.36239 
L 287.177143 143.659975 
L 287.687314 144.724466 
L 288.197486 131.447769 
L 288.707657 138.133718 
L 289.217829 124.932278 
L 289.728 164.50019 
L 290.238171 160.853272 
L 290.748343 164.094563 
L 291.258514 151.91015 
L 291.768686 144.070179 
L 292.278857 149.933005 
L 292.789029 132.332767 
L 293.2992 132.999221 
L 294.319543 135.441854 
L 294.829714 138.774341 
L 295.339886 146.22169 
L 295.850057 142.658793 
L 296.360229 144.763677 
L 296.8704 134.575882 
L 297.380571 130.008708 
L 297.890743 142.082348 
L 298.400914 137.354252 
L 298.911086 126.844463 
L 299.421257 144.062945 
L 299.931429 143.378691 
L 300.4416 143.795449 
L 300.951771 130.150691 
L 301.461943 139.746044 
L 301.972114 127.757033 
L 302.482286 128.664585 
L 302.992457 132.189752 
L 303.502629 117.011764 
L 304.0128 138.3435 
L 304.522971 142.151188 
L 305.033143 156.723978 
L 305.543314 144.67954 
L 306.053486 138.571418 
L 306.563657 123.04793 
L 307.073829 123.407203 
L 307.584 111.279721 
L 308.094171 121.827273 
L 308.604343 114.230839 
L 309.114514 110.687544 
L 309.624686 128.980471 
L 310.134857 127.897186 
L 310.645029 120.110369 
L 311.1552 129.346854 
L 311.665371 128.301811 
L 312.175543 128.259732 
L 312.685714 121.331471 
L 313.195886 124.945078 
L 313.706057 127.654036 
L 314.216229 129.217045 
L 314.7264 106.038301 
L 315.236571 120.235658 
L 315.746743 116.663948 
L 316.256914 116.968828 
L 317.277257 110.263284 
L 317.787429 111.735277 
L 318.2976 121.599891 
L 318.807771 121.375249 
L 319.317943 139.496432 
L 319.828114 131.027266 
L 320.338286 137.982338 
L 320.848457 118.250391 
L 321.358629 128.382075 
L 321.8688 127.939982 
L 322.378971 118.430959 
L 322.889143 124.825567 
L 323.399314 120.204639 
L 323.909486 130.475727 
L 324.419657 119.889753 
L 324.929829 130.547489 
L 325.44 131.153458 
L 325.950171 127.861339 
L 326.460343 132.001169 
L 326.970514 148.407645 
L 327.480686 136.552323 
L 327.990857 148.968378 
L 328.501029 126.037297 
L 329.0112 149.666702 
L 329.521371 123.836816 
L 330.031543 142.018234 
L 330.541714 120.262959 
L 331.051886 121.589136 
L 331.562057 124.848804 
L 332.072229 119.529445 
L 333.092571 139.600457 
L 333.602743 130.293098 
L 334.112914 138.157785 
L 334.623086 135.989574 
L 335.133257 147.081093 
L 335.643429 129.246739 
L 336.1536 152.103404 
L 336.663771 148.421416 
L 337.173943 152.031585 
L 337.684114 145.572872 
L 338.194286 147.45785 
L 338.704457 140.063527 
L 339.214629 146.975671 
L 339.7248 133.632284 
L 340.234971 141.46262 
L 340.745143 129.166918 
L 341.255314 152.884529 
L 341.765486 147.066712 
L 342.275657 135.051789 
L 343.296 128.727441 
L 343.806171 119.514335 
L 344.316343 144.752386 
L 344.826514 118.034616 
L 345.336686 116.608594 
L 345.846857 118.437242 
L 346.357029 124.28215 
L 346.8672 116.181323 
L 347.377371 105.058039 
L 347.887543 127.567355 
L 348.397714 112.573062 
L 348.907886 121.45285 
L 349.418057 123.760749 
L 349.928229 123.270191 
L 350.4384 131.841553 
L 350.948571 129.336252 
L 351.458743 133.01052 
L 351.968914 132.843841 
L 352.479086 127.935638 
L 352.989257 138.009918 
L 353.499429 143.060243 
L 354.519771 135.584878 
L 355.029943 125.705865 
L 355.540114 128.810928 
L 356.050286 125.924961 
L 356.560457 141.53431 
L 357.070629 117.376929 
L 357.5808 128.399504 
L 358.090971 128.283563 
L 359.111314 107.15812 
L 359.621486 99.947213 
L 360.131657 99.307198 
L 360.641829 91.00461 
L 361.152 100.419915 
L 361.662171 93.112061 
L 362.172343 94.800422 
L 362.682514 87.389445 
L 363.702857 117.576077 
L 364.213029 106.732135 
L 364.7232 112.226757 
L 365.233371 126.470862 
L 365.743543 126.948158 
L 366.253714 112.994247 
L 366.763886 121.014419 
L 367.274057 121.395756 
L 367.784229 118.046544 
L 368.2944 130.625366 
L 368.804571 117.059635 
L 369.314743 114.240602 
L 369.824914 110.064618 
L 370.335086 111.972687 
L 370.845257 122.155344 
L 371.8656 128.677739 
L 372.375771 127.15703 
L 372.885943 117.042226 
L 373.906286 126.445542 
L 374.416457 120.441226 
L 374.926629 126.972679 
L 375.4368 91.170712 
L 375.946971 105.019011 
L 376.457143 104.875789 
L 376.967314 129.098807 
L 377.477486 104.914326 
L 377.987657 104.424438 
L 378.497829 103.55379 
L 379.008 125.241856 
L 379.518171 109.563823 
L 380.028343 113.647522 
L 380.538514 115.566015 
L 381.048686 130.610237 
L 381.558857 126.284874 
L 382.069029 119.350394 
L 382.5792 131.741616 
L 383.089371 130.470918 
L 383.599543 141.094103 
L 384.109714 133.354312 
L 384.619886 131.142001 
L 385.130057 129.857445 
L 385.640229 124.045267 
L 386.1504 122.703513 
L 386.660571 133.663272 
L 387.170743 120.855258 
L 387.680914 118.199174 
L 388.191086 134.447584 
L 388.701257 132.04952 
L 389.211429 118.108936 
L 389.7216 123.748074 
L 390.231771 120.247744 
L 390.741943 136.032763 
L 391.252114 119.882395 
L 391.762286 115.471081 
L 392.272457 136.493848 
L 392.782629 130.953607 
L 393.2928 112.371623 
L 393.802971 133.801493 
L 394.313143 132.890966 
L 394.823314 143.347815 
L 395.333486 134.607416 
L 395.843657 147.370996 
L 396.353829 149.507494 
L 396.864 148.163633 
L 397.374171 140.656195 
L 397.884343 144.766572 
L 398.394514 150.004197 
L 398.904686 131.503104 
L 399.414857 142.237065 
L 399.925029 148.499819 
L 400.4352 131.4542 
L 400.945371 135.140344 
L 401.455543 129.992099 
L 401.965714 119.709252 
L 402.475886 127.529211 
L 402.986057 119.873469 
L 404.0064 107.660655 
L 404.516571 106.582177 
L 405.026743 134.667915 
L 405.536914 128.998471 
L 406.557257 125.519309 
L 407.067429 121.310548 
L 407.5776 120.768884 
L 408.087771 132.758629 
L 408.597943 114.62793 
L 409.108114 136.009654 
L 409.618286 129.517773 
L 410.128457 118.727469 
L 410.638629 129.690734 
L 411.1488 130.562491 
L 411.658971 129.309455 
L 412.169143 128.609099 
L 412.679314 142.608564 
L 413.189486 130.293546 
L 413.699657 124.615908 
L 414.209829 131.119451 
L 414.209829 131.119451 
" clip-path="url(#p7b145c9bd0)" style="fill: none; stroke: #000000; stroke-width: 0.4; stroke-linecap: square"/>
   </g>
   <g id="patch_3">
    <path d="M 57.6 307.584 
L 57.6 41.472 
" style="fill: none; stroke: #000000; stroke-width: 0.8; stroke-linejoin: miter; stroke-linecap: square"/>
   </g>
   <g id="patch_4">
    <path d="M 414.72 307.584 
L 414.72 41.472 
" style="fill: none; stroke: #000000; stroke-width: 0.8; stroke-linejoin: miter; stroke-linecap: square"/>
   </g>
   <g id="patch_5">
    <path d="M 57.6 307.584 
L 414.72 307.584 
" style="fill: none; stroke: #000000; stroke-width: 0.8; stroke-linejoin: miter; stroke-linecap: square"/>
   </g>
   <g id="patch_6">
    <path d="M 57.6 41.472 
L 414.72 41.472 
" style="fill: none; stroke: #000000; stroke-width: 0.8; stroke-linejoin: miter; stroke-linecap: square"/>
   </g>
   <g id="legend_1"/>
  </g>
 </g>
 <defs>
  <clipPath id="p7b145c9bd0">
   <rect x="57.6" y="41.472" width="357.12" height="266.112"/>
  </clipPath>
 </defs>
</svg>
