<?xml version="1.0" encoding="utf-8" standalone="no"?>
<!DOCTYPE svg PUBLIC "-//W3C//DTD SVG 1.1//EN"
  "http://www.w3.org/Graphics/SVG/1.1/DTD/svg11.dtd">
<svg xmlns:xlink="http://www.w3.org/1999/xlink" width="460.8pt" height="345.6pt" viewBox="0 0 460.8 345.6" xmlns="http://www.w3.org/2000/svg" version="1.1">
 <metadata>
  <rdf:RDF xmlns:dc="http://purl.org/dc/elements/1.1/" xmlns:cc="http://creativecommons.org/ns#" xmlns:rdf="http://www.w3.org/1999/02/22-rdf-syntax-ns#">
   <cc:Work>
    <dc:type rdf:resource="http://purl.org/dc/dcmitype/StillImage"/>
    <dc:date>2024-05-14T18:59:46.746956</dc:date>
    <dc:format>image/svg+xml</dc:format>
    <dc:creator>
     <cc:Agent>
      <dc:title>Matplotlib v3.8.4, https://matplotlib.org/</dc:title>
     </cc:Agent>
    </dc:creator>
   </cc:Work>
  </rdf:RDF>
 </metadata>
 <defs>
  <style type="text/css">*{stroke-linejoin: round; stroke-linecap: butt}</style>
 </defs>
 <g id="figure_1">
  <g id="patch_1">
   <path d="M 0 345.6 
L 460.8 345.6 
L 460.8 0 
L 0 0 
z
" style="fill: #ffffff"/>
  </g>
  <g id="axes_1">
   <g id="patch_2">
    <path d="M 57.6 307.584 
L 414.72 307.584 
L 414.72 41.472 
L 57.6 41.472 
z
" style="fill: #ffffff"/>
   </g>
   <g id="matplotlib.axis_1">
    <g id="xtick_1">
     <g id="line2d_1">
      <path d="M 57.6 307.584 
L 57.6 41.472 
" clip-path="url(#pfbc64161fd)" style="fill: none; stroke: #b0b0b0; stroke-width: 0.8; stroke-linecap: square"/>
     </g>
     <g id="line2d_2">
      <defs>
       <path id="m38155609b5" d="M 0 0 
L 0 3.5 
" style="stroke: #000000; stroke-width: 0.8"/>
      </defs>
      <g>
       <use xlink:href="#m38155609b5" x="57.6" y="307.584" style="stroke: #000000; stroke-width: 0.8"/>
      </g>
     </g>
     <g id="text_1">
      <!-- 0.0 -->
      <g transform="translate(49.648438 322.182437) scale(0.1 -0.1)">
       <defs>
        <path id="DejaVuSans-30" d="M 2034 4250 
Q 1547 4250 1301 3770 
Q 1056 3291 1056 2328 
Q 1056 1369 1301 889 
Q 1547 409 2034 409 
Q 2525 409 2770 889 
Q 3016 1369 3016 2328 
Q 3016 3291 2770 3770 
Q 2525 4250 2034 4250 
z
M 2034 4750 
Q 2819 4750 3233 4129 
Q 3647 3509 3647 2328 
Q 3647 1150 3233 529 
Q 2819 -91 2034 -91 
Q 1250 -91 836 529 
Q 422 1150 422 2328 
Q 422 3509 836 4129 
Q 1250 4750 2034 4750 
z
" transform="scale(0.015625)"/>
        <path id="DejaVuSans-2e" d="M 684 794 
L 1344 794 
L 1344 0 
L 684 0 
L 684 794 
z
" transform="scale(0.015625)"/>
       </defs>
       <use xlink:href="#DejaVuSans-30"/>
       <use xlink:href="#DejaVuSans-2e" x="63.623047"/>
       <use xlink:href="#DejaVuSans-30" x="95.410156"/>
      </g>
     </g>
    </g>
    <g id="xtick_2">
     <g id="line2d_3">
      <path d="M 129.024 307.584 
L 129.024 41.472 
" clip-path="url(#pfbc64161fd)" style="fill: none; stroke: #b0b0b0; stroke-width: 0.8; stroke-linecap: square"/>
     </g>
     <g id="line2d_4">
      <g>
       <use xlink:href="#m38155609b5" x="129.024" y="307.584" style="stroke: #000000; stroke-width: 0.8"/>
      </g>
     </g>
     <g id="text_2">
      <!-- 0.2 -->
      <g transform="translate(121.072438 322.182437) scale(0.1 -0.1)">
       <defs>
        <path id="DejaVuSans-32" d="M 1228 531 
L 3431 531 
L 3431 0 
L 469 0 
L 469 531 
Q 828 903 1448 1529 
Q 2069 2156 2228 2338 
Q 2531 2678 2651 2914 
Q 2772 3150 2772 3378 
Q 2772 3750 2511 3984 
Q 2250 4219 1831 4219 
Q 1534 4219 1204 4116 
Q 875 4013 500 3803 
L 500 4441 
Q 881 4594 1212 4672 
Q 1544 4750 1819 4750 
Q 2544 4750 2975 4387 
Q 3406 4025 3406 3419 
Q 3406 3131 3298 2873 
Q 3191 2616 2906 2266 
Q 2828 2175 2409 1742 
Q 1991 1309 1228 531 
z
" transform="scale(0.015625)"/>
       </defs>
       <use xlink:href="#DejaVuSans-30"/>
       <use xlink:href="#DejaVuSans-2e" x="63.623047"/>
       <use xlink:href="#DejaVuSans-32" x="95.410156"/>
      </g>
     </g>
    </g>
    <g id="xtick_3">
     <g id="line2d_5">
      <path d="M 200.448 307.584 
L 200.448 41.472 
" clip-path="url(#pfbc64161fd)" style="fill: none; stroke: #b0b0b0; stroke-width: 0.8; stroke-linecap: square"/>
     </g>
     <g id="line2d_6">
      <g>
       <use xlink:href="#m38155609b5" x="200.448" y="307.584" style="stroke: #000000; stroke-width: 0.8"/>
      </g>
     </g>
     <g id="text_3">
      <!-- 0.4 -->
      <g transform="translate(192.496438 322.182437) scale(0.1 -0.1)">
       <defs>
        <path id="DejaVuSans-34" d="M 2419 4116 
L 825 1625 
L 2419 1625 
L 2419 4116 
z
M 2253 4666 
L 3047 4666 
L 3047 1625 
L 3713 1625 
L 3713 1100 
L 3047 1100 
L 3047 0 
L 2419 0 
L 2419 1100 
L 313 1100 
L 313 1709 
L 2253 4666 
z
" transform="scale(0.015625)"/>
       </defs>
       <use xlink:href="#DejaVuSans-30"/>
       <use xlink:href="#DejaVuSans-2e" x="63.623047"/>
       <use xlink:href="#DejaVuSans-34" x="95.410156"/>
      </g>
     </g>
    </g>
    <g id="xtick_4">
     <g id="line2d_7">
      <path d="M 271.872 307.584 
L 271.872 41.472 
" clip-path="url(#pfbc64161fd)" style="fill: none; stroke: #b0b0b0; stroke-width: 0.8; stroke-linecap: square"/>
     </g>
     <g id="line2d_8">
      <g>
       <use xlink:href="#m38155609b5" x="271.872" y="307.584" style="stroke: #000000; stroke-width: 0.8"/>
      </g>
     </g>
     <g id="text_4">
      <!-- 0.6 -->
      <g transform="translate(263.920438 322.182437) scale(0.1 -0.1)">
       <defs>
        <path id="DejaVuSans-36" d="M 2113 2584 
Q 1688 2584 1439 2293 
Q 1191 2003 1191 1497 
Q 1191 994 1439 701 
Q 1688 409 2113 409 
Q 2538 409 2786 701 
Q 3034 994 3034 1497 
Q 3034 2003 2786 2293 
Q 2538 2584 2113 2584 
z
M 3366 4563 
L 3366 3988 
Q 3128 4100 2886 4159 
Q 2644 4219 2406 4219 
Q 1781 4219 1451 3797 
Q 1122 3375 1075 2522 
Q 1259 2794 1537 2939 
Q 1816 3084 2150 3084 
Q 2853 3084 3261 2657 
Q 3669 2231 3669 1497 
Q 3669 778 3244 343 
Q 2819 -91 2113 -91 
Q 1303 -91 875 529 
Q 447 1150 447 2328 
Q 447 3434 972 4092 
Q 1497 4750 2381 4750 
Q 2619 4750 2861 4703 
Q 3103 4656 3366 4563 
z
" transform="scale(0.015625)"/>
       </defs>
       <use xlink:href="#DejaVuSans-30"/>
       <use xlink:href="#DejaVuSans-2e" x="63.623047"/>
       <use xlink:href="#DejaVuSans-36" x="95.410156"/>
      </g>
     </g>
    </g>
    <g id="xtick_5">
     <g id="line2d_9">
      <path d="M 343.296 307.584 
L 343.296 41.472 
" clip-path="url(#pfbc64161fd)" style="fill: none; stroke: #b0b0b0; stroke-width: 0.8; stroke-linecap: square"/>
     </g>
     <g id="line2d_10">
      <g>
       <use xlink:href="#m38155609b5" x="343.296" y="307.584" style="stroke: #000000; stroke-width: 0.8"/>
      </g>
     </g>
     <g id="text_5">
      <!-- 0.8 -->
      <g transform="translate(335.344438 322.182437) scale(0.1 -0.1)">
       <defs>
        <path id="DejaVuSans-38" d="M 2034 2216 
Q 1584 2216 1326 1975 
Q 1069 1734 1069 1313 
Q 1069 891 1326 650 
Q 1584 409 2034 409 
Q 2484 409 2743 651 
Q 3003 894 3003 1313 
Q 3003 1734 2745 1975 
Q 2488 2216 2034 2216 
z
M 1403 2484 
Q 997 2584 770 2862 
Q 544 3141 544 3541 
Q 544 4100 942 4425 
Q 1341 4750 2034 4750 
Q 2731 4750 3128 4425 
Q 3525 4100 3525 3541 
Q 3525 3141 3298 2862 
Q 3072 2584 2669 2484 
Q 3125 2378 3379 2068 
Q 3634 1759 3634 1313 
Q 3634 634 3220 271 
Q 2806 -91 2034 -91 
Q 1263 -91 848 271 
Q 434 634 434 1313 
Q 434 1759 690 2068 
Q 947 2378 1403 2484 
z
M 1172 3481 
Q 1172 3119 1398 2916 
Q 1625 2713 2034 2713 
Q 2441 2713 2670 2916 
Q 2900 3119 2900 3481 
Q 2900 3844 2670 4047 
Q 2441 4250 2034 4250 
Q 1625 4250 1398 4047 
Q 1172 3844 1172 3481 
z
" transform="scale(0.015625)"/>
       </defs>
       <use xlink:href="#DejaVuSans-30"/>
       <use xlink:href="#DejaVuSans-2e" x="63.623047"/>
       <use xlink:href="#DejaVuSans-38" x="95.410156"/>
      </g>
     </g>
    </g>
    <g id="xtick_6">
     <g id="line2d_11">
      <path d="M 414.72 307.584 
L 414.72 41.472 
" clip-path="url(#pfbc64161fd)" style="fill: none; stroke: #b0b0b0; stroke-width: 0.8; stroke-linecap: square"/>
     </g>
     <g id="line2d_12">
      <g>
       <use xlink:href="#m38155609b5" x="414.72" y="307.584" style="stroke: #000000; stroke-width: 0.8"/>
      </g>
     </g>
     <g id="text_6">
      <!-- 1.0 -->
      <g transform="translate(406.768438 322.182437) scale(0.1 -0.1)">
       <defs>
        <path id="DejaVuSans-31" d="M 794 531 
L 1825 531 
L 1825 4091 
L 703 3866 
L 703 4441 
L 1819 4666 
L 2450 4666 
L 2450 531 
L 3481 531 
L 3481 0 
L 794 0 
L 794 531 
z
" transform="scale(0.015625)"/>
       </defs>
       <use xlink:href="#DejaVuSans-31"/>
       <use xlink:href="#DejaVuSans-2e" x="63.623047"/>
       <use xlink:href="#DejaVuSans-30" x="95.410156"/>
      </g>
     </g>
    </g>
   </g>
   <g id="matplotlib.axis_2">
    <g id="ytick_1">
     <g id="line2d_13">
      <path d="M 57.6 307.584 
L 414.72 307.584 
" clip-path="url(#pfbc64161fd)" style="fill: none; stroke: #b0b0b0; stroke-width: 0.8; stroke-linecap: square"/>
     </g>
     <g id="line2d_14">
      <defs>
       <path id="m3cbed99d3c" d="M 0 0 
L -3.5 0 
" style="stroke: #000000; stroke-width: 0.8"/>
      </defs>
      <g>
       <use xlink:href="#m3cbed99d3c" x="57.6" y="307.584" style="stroke: #000000; stroke-width: 0.8"/>
      </g>
     </g>
     <g id="text_7">
      <!-- 35 -->
      <g transform="translate(37.875 311.383219) scale(0.1 -0.1)">
       <defs>
        <path id="DejaVuSans-33" d="M 2597 2516 
Q 3050 2419 3304 2112 
Q 3559 1806 3559 1356 
Q 3559 666 3084 287 
Q 2609 -91 1734 -91 
Q 1441 -91 1130 -33 
Q 819 25 488 141 
L 488 750 
Q 750 597 1062 519 
Q 1375 441 1716 441 
Q 2309 441 2620 675 
Q 2931 909 2931 1356 
Q 2931 1769 2642 2001 
Q 2353 2234 1838 2234 
L 1294 2234 
L 1294 2753 
L 1863 2753 
Q 2328 2753 2575 2939 
Q 2822 3125 2822 3475 
Q 2822 3834 2567 4026 
Q 2313 4219 1838 4219 
Q 1578 4219 1281 4162 
Q 984 4106 628 3988 
L 628 4550 
Q 988 4650 1302 4700 
Q 1616 4750 1894 4750 
Q 2613 4750 3031 4423 
Q 3450 4097 3450 3541 
Q 3450 3153 3228 2886 
Q 3006 2619 2597 2516 
z
" transform="scale(0.015625)"/>
        <path id="DejaVuSans-35" d="M 691 4666 
L 3169 4666 
L 3169 4134 
L 1269 4134 
L 1269 2991 
Q 1406 3038 1543 3061 
Q 1681 3084 1819 3084 
Q 2600 3084 3056 2656 
Q 3513 2228 3513 1497 
Q 3513 744 3044 326 
Q 2575 -91 1722 -91 
Q 1428 -91 1123 -41 
Q 819 9 494 109 
L 494 744 
Q 775 591 1075 516 
Q 1375 441 1709 441 
Q 2250 441 2565 725 
Q 2881 1009 2881 1497 
Q 2881 1984 2565 2268 
Q 2250 2553 1709 2553 
Q 1456 2553 1204 2497 
Q 953 2441 691 2322 
L 691 4666 
z
" transform="scale(0.015625)"/>
       </defs>
       <use xlink:href="#DejaVuSans-33"/>
       <use xlink:href="#DejaVuSans-35" x="63.623047"/>
      </g>
     </g>
    </g>
    <g id="ytick_2">
     <g id="line2d_15">
      <path d="M 57.6 278.016 
L 414.72 278.016 
" clip-path="url(#pfbc64161fd)" style="fill: none; stroke: #b0b0b0; stroke-width: 0.8; stroke-linecap: square"/>
     </g>
     <g id="line2d_16">
      <g>
       <use xlink:href="#m3cbed99d3c" x="57.6" y="278.016" style="stroke: #000000; stroke-width: 0.8"/>
      </g>
     </g>
     <g id="text_8">
      <!-- 40 -->
      <g transform="translate(37.875 281.815219) scale(0.1 -0.1)">
       <use xlink:href="#DejaVuSans-34"/>
       <use xlink:href="#DejaVuSans-30" x="63.623047"/>
      </g>
     </g>
    </g>
    <g id="ytick_3">
     <g id="line2d_17">
      <path d="M 57.6 248.448 
L 414.72 248.448 
" clip-path="url(#pfbc64161fd)" style="fill: none; stroke: #b0b0b0; stroke-width: 0.8; stroke-linecap: square"/>
     </g>
     <g id="line2d_18">
      <g>
       <use xlink:href="#m3cbed99d3c" x="57.6" y="248.448" style="stroke: #000000; stroke-width: 0.8"/>
      </g>
     </g>
     <g id="text_9">
      <!-- 45 -->
      <g transform="translate(37.875 252.247219) scale(0.1 -0.1)">
       <use xlink:href="#DejaVuSans-34"/>
       <use xlink:href="#DejaVuSans-35" x="63.623047"/>
      </g>
     </g>
    </g>
    <g id="ytick_4">
     <g id="line2d_19">
      <path d="M 57.6 218.88 
L 414.72 218.88 
" clip-path="url(#pfbc64161fd)" style="fill: none; stroke: #b0b0b0; stroke-width: 0.8; stroke-linecap: square"/>
     </g>
     <g id="line2d_20">
      <g>
       <use xlink:href="#m3cbed99d3c" x="57.6" y="218.88" style="stroke: #000000; stroke-width: 0.8"/>
      </g>
     </g>
     <g id="text_10">
      <!-- 50 -->
      <g transform="translate(37.875 222.679219) scale(0.1 -0.1)">
       <use xlink:href="#DejaVuSans-35"/>
       <use xlink:href="#DejaVuSans-30" x="63.623047"/>
      </g>
     </g>
    </g>
    <g id="ytick_5">
     <g id="line2d_21">
      <path d="M 57.6 189.312 
L 414.72 189.312 
" clip-path="url(#pfbc64161fd)" style="fill: none; stroke: #b0b0b0; stroke-width: 0.8; stroke-linecap: square"/>
     </g>
     <g id="line2d_22">
      <g>
       <use xlink:href="#m3cbed99d3c" x="57.6" y="189.312" style="stroke: #000000; stroke-width: 0.8"/>
      </g>
     </g>
     <g id="text_11">
      <!-- 55 -->
      <g transform="translate(37.875 193.111219) scale(0.1 -0.1)">
       <use xlink:href="#DejaVuSans-35"/>
       <use xlink:href="#DejaVuSans-35" x="63.623047"/>
      </g>
     </g>
    </g>
    <g id="ytick_6">
     <g id="line2d_23">
      <path d="M 57.6 159.744 
L 414.72 159.744 
" clip-path="url(#pfbc64161fd)" style="fill: none; stroke: #b0b0b0; stroke-width: 0.8; stroke-linecap: square"/>
     </g>
     <g id="line2d_24">
      <g>
       <use xlink:href="#m3cbed99d3c" x="57.6" y="159.744" style="stroke: #000000; stroke-width: 0.8"/>
      </g>
     </g>
     <g id="text_12">
      <!-- 60 -->
      <g transform="translate(37.875 163.543219) scale(0.1 -0.1)">
       <use xlink:href="#DejaVuSans-36"/>
       <use xlink:href="#DejaVuSans-30" x="63.623047"/>
      </g>
     </g>
    </g>
    <g id="ytick_7">
     <g id="line2d_25">
      <path d="M 57.6 130.176 
L 414.72 130.176 
" clip-path="url(#pfbc64161fd)" style="fill: none; stroke: #b0b0b0; stroke-width: 0.8; stroke-linecap: square"/>
     </g>
     <g id="line2d_26">
      <g>
       <use xlink:href="#m3cbed99d3c" x="57.6" y="130.176" style="stroke: #000000; stroke-width: 0.8"/>
      </g>
     </g>
     <g id="text_13">
      <!-- 65 -->
      <g transform="translate(37.875 133.975219) scale(0.1 -0.1)">
       <use xlink:href="#DejaVuSans-36"/>
       <use xlink:href="#DejaVuSans-35" x="63.623047"/>
      </g>
     </g>
    </g>
    <g id="ytick_8">
     <g id="line2d_27">
      <path d="M 57.6 100.608 
L 414.72 100.608 
" clip-path="url(#pfbc64161fd)" style="fill: none; stroke: #b0b0b0; stroke-width: 0.8; stroke-linecap: square"/>
     </g>
     <g id="line2d_28">
      <g>
       <use xlink:href="#m3cbed99d3c" x="57.6" y="100.608" style="stroke: #000000; stroke-width: 0.8"/>
      </g>
     </g>
     <g id="text_14">
      <!-- 70 -->
      <g transform="translate(37.875 104.407219) scale(0.1 -0.1)">
       <defs>
        <path id="DejaVuSans-37" d="M 525 4666 
L 3525 4666 
L 3525 4397 
L 1831 0 
L 1172 0 
L 2766 4134 
L 525 4134 
L 525 4666 
z
" transform="scale(0.015625)"/>
       </defs>
       <use xlink:href="#DejaVuSans-37"/>
       <use xlink:href="#DejaVuSans-30" x="63.623047"/>
      </g>
     </g>
    </g>
    <g id="ytick_9">
     <g id="line2d_29">
      <path d="M 57.6 71.04 
L 414.72 71.04 
" clip-path="url(#pfbc64161fd)" style="fill: none; stroke: #b0b0b0; stroke-width: 0.8; stroke-linecap: square"/>
     </g>
     <g id="line2d_30">
      <g>
       <use xlink:href="#m3cbed99d3c" x="57.6" y="71.04" style="stroke: #000000; stroke-width: 0.8"/>
      </g>
     </g>
     <g id="text_15">
      <!-- 75 -->
      <g transform="translate(37.875 74.839219) scale(0.1 -0.1)">
       <use xlink:href="#DejaVuSans-37"/>
       <use xlink:href="#DejaVuSans-35" x="63.623047"/>
      </g>
     </g>
    </g>
    <g id="ytick_10">
     <g id="line2d_31">
      <path d="M 57.6 41.472 
L 414.72 41.472 
" clip-path="url(#pfbc64161fd)" style="fill: none; stroke: #b0b0b0; stroke-width: 0.8; stroke-linecap: square"/>
     </g>
     <g id="line2d_32">
      <g>
       <use xlink:href="#m3cbed99d3c" x="57.6" y="41.472" style="stroke: #000000; stroke-width: 0.8"/>
      </g>
     </g>
     <g id="text_16">
      <!-- 80 -->
      <g transform="translate(37.875 45.271219) scale(0.1 -0.1)">
       <use xlink:href="#DejaVuSans-38"/>
       <use xlink:href="#DejaVuSans-30" x="63.623047"/>
      </g>
     </g>
    </g>
   </g>
   <g id="line2d_33">
    <path d="M 57.6 114.535981 
L 57.6 119.972493 
L 58.028973 119.972493 
L 58.028973 125.90015 
L 58.457946 125.90015 
L 58.457946 122.818953 
L 58.886919 122.818953 
L 58.886919 115.115309 
L 59.315892 115.115309 
L 59.315892 109.556331 
L 59.744865 109.556331 
L 59.744865 106.369705 
L 60.173838 106.369705 
L 60.173838 105.506137 
L 60.602811 105.506137 
L 60.602811 106.558339 
L 61.031784 106.558339 
L 61.031784 108.495982 
L 61.460757 108.495982 
L 61.460757 111.292683 
L 61.88973 111.292683 
L 61.88973 113.658444 
L 62.318703 113.658444 
L 62.318703 115.667686 
L 62.747676 115.667686 
L 62.747676 120.653457 
L 63.176649 120.653457 
L 63.176649 123.764865 
L 63.605622 123.764865 
L 63.605622 115.691051 
L 64.034595 115.691051 
L 64.034595 105.875656 
L 64.463568 105.875656 
L 64.463568 108.896338 
L 64.892541 108.896338 
L 64.892541 116.226303 
L 65.321514 116.226303 
L 65.321514 116.397261 
L 65.750486 116.397261 
L 65.750486 113.162473 
L 66.179459 113.162473 
L 66.179459 108.218801 
L 66.608432 108.218801 
L 66.608432 105.780892 
L 67.037405 105.780892 
L 67.037405 115.236758 
L 67.466378 115.236758 
L 67.466378 122.859533 
L 67.895351 122.859533 
L 67.895351 113.259777 
L 68.324324 113.259777 
L 68.324324 100.230828 
L 68.753297 100.230828 
L 68.753297 81.640169 
L 69.18227 81.640169 
L 69.18227 99.933505 
L 69.611243 99.933505 
L 69.611243 113.494459 
L 70.040216 113.494459 
L 70.040216 128.118352 
L 70.469189 128.118352 
L 70.469189 121.966628 
L 70.898162 121.966628 
L 70.898162 108.545576 
L 71.327135 108.545576 
L 71.327135 107.59141 
L 71.756108 107.59141 
L 71.756108 114.031861 
L 72.185081 114.031861 
L 72.185081 119.439116 
L 72.614054 119.439116 
L 72.614054 124.049082 
L 73.043027 124.049082 
L 73.043027 128.778263 
L 73.472 128.778263 
L 73.472 126.581506 
L 73.900973 126.581506 
L 73.900973 132.573454 
L 74.329946 132.573454 
L 74.329946 131.345857 
L 74.758919 131.345857 
L 74.758919 125.676755 
L 75.187892 125.676755 
L 75.187892 120.025876 
L 75.616865 120.025876 
L 75.616865 127.192159 
L 76.045838 127.192159 
L 76.045838 135.892201 
L 76.474811 135.892201 
L 76.474811 135.302869 
L 76.903784 135.302869 
L 76.903784 126.670984 
L 77.332757 126.670984 
L 77.332757 105.277223 
L 77.76173 105.277223 
L 77.76173 88.142869 
L 78.190703 88.142869 
L 78.190703 105.052874 
L 78.619676 105.052874 
L 78.619676 134.727726 
L 79.048649 134.727726 
L 79.048649 134.886459 
L 79.477622 134.886459 
L 79.477622 135.666458 
L 79.906595 135.666458 
L 79.906595 139.346213 
L 80.335568 139.346213 
L 80.335568 146.45575 
L 80.764541 146.45575 
L 80.764541 144.729286 
L 81.193514 144.729286 
L 81.193514 140.345966 
L 81.622486 140.345966 
L 81.622486 142.769382 
L 82.051459 142.769382 
L 82.051459 145.554845 
L 82.480432 145.554845 
L 82.480432 139.498667 
L 82.909405 139.498667 
L 82.909405 132.004082 
L 83.338378 132.004082 
L 83.338378 130.363332 
L 83.767351 130.363332 
L 83.767351 133.997776 
L 84.196324 133.997776 
L 84.196324 146.254597 
L 84.625297 146.254597 
L 84.625297 157.026345 
L 85.05427 157.026345 
L 85.05427 148.803072 
L 85.483243 148.803072 
L 85.483243 136.572695 
L 85.912216 136.572695 
L 85.912216 142.901979 
L 86.341189 142.901979 
L 86.341189 157.362269 
L 86.770162 157.362269 
L 86.770162 166.993426 
L 87.199135 166.993426 
L 87.199135 175.592898 
L 87.628108 175.592898 
L 87.628108 170.339821 
L 88.057081 170.339821 
L 88.057081 194.292837 
L 88.486054 194.292837 
L 88.486054 179.05413 
L 88.915027 179.05413 
L 88.915027 158.801272 
L 89.344 158.801272 
L 89.344 157.793473 
L 89.772973 157.793473 
L 89.772973 162.869889 
L 90.201946 162.869889 
L 90.201946 153.433437 
L 90.630919 153.433437 
L 90.630919 167.992013 
L 91.059892 167.992013 
L 91.059892 179.399681 
L 91.488865 179.399681 
L 91.488865 149.366636 
L 91.917838 149.366636 
L 91.917838 185.254149 
L 92.346811 185.254149 
L 92.346811 228.320876 
L 92.775784 228.320876 
L 92.775784 201.098253 
L 93.204757 201.098253 
L 93.204757 206.295571 
L 93.63373 206.295571 
L 93.63373 211.040822 
L 94.062703 211.040822 
L 94.062703 231.234736 
L 94.491676 231.234736 
L 94.491676 239.313634 
L 94.920649 239.313634 
L 94.920649 238.729177 
L 95.349622 238.729177 
L 95.349622 234.471091 
L 95.778595 234.471091 
L 95.778595 226.718148 
L 96.207568 226.718148 
L 96.207568 211.292865 
L 96.636541 211.292865 
L 96.636541 196.055817 
L 97.065514 196.055817 
L 97.065514 206.582635 
L 97.494486 206.582635 
L 97.494486 206.021199 
L 97.923459 206.021199 
L 97.923459 206.710488 
L 98.352432 206.710488 
L 98.352432 213.200143 
L 98.781405 213.200143 
L 98.781405 217.300826 
L 99.210378 217.300826 
L 99.210378 220.92212 
L 99.639351 220.92212 
L 99.639351 219.043529 
L 100.068324 219.043529 
L 100.068324 214.972205 
L 100.497297 214.972205 
L 100.497297 197.325074 
L 100.92627 197.325074 
L 100.92627 199.379287 
L 101.355243 199.379287 
L 101.355243 197.904931 
L 101.784216 197.904931 
L 101.784216 202.067021 
L 102.213189 202.067021 
L 102.213189 198.961637 
L 102.642162 198.961637 
L 102.642162 201.928267 
L 103.071135 201.928267 
L 103.071135 213.298595 
L 103.500108 213.298595 
L 103.500108 216.378063 
L 103.929081 216.378063 
L 103.929081 230.941916 
L 104.358054 230.941916 
L 104.358054 235.250128 
L 104.787027 235.250128 
L 104.787027 205.771829 
L 105.216 205.771829 
L 105.216 167.322459 
L 105.644973 167.322459 
L 105.644973 157.388544 
L 106.073946 157.388544 
L 106.073946 163.833112 
L 106.502919 163.833112 
L 106.502919 166.212235 
L 106.931892 166.212235 
L 106.931892 168.4664 
L 107.360865 168.4664 
L 107.360865 171.079509 
L 107.789838 171.079509 
L 107.789838 179.899098 
L 108.218811 179.899098 
L 108.218811 178.465713 
L 108.647784 178.465713 
L 108.647784 171.990242 
L 109.076757 171.990242 
L 109.076757 161.770703 
L 109.50573 161.770703 
L 109.50573 152.758731 
L 109.934703 152.758731 
L 109.934703 148.771304 
L 110.363676 148.771304 
L 110.363676 147.521497 
L 110.792649 147.521497 
L 110.792649 138.5726 
L 111.221622 138.5726 
L 111.221622 129.290454 
L 111.650595 129.290454 
L 111.650595 138.277412 
L 112.079568 138.277412 
L 112.079568 140.265738 
L 112.508541 140.265738 
L 112.508541 135.544527 
L 112.937514 135.544527 
L 112.937514 124.020986 
L 113.366486 124.020986 
L 113.366486 113.266923 
L 113.795459 113.266923 
L 113.795459 106.209437 
L 114.224432 106.209437 
L 114.224432 109.401012 
L 114.653405 109.401012 
L 114.653405 115.52628 
L 115.082378 115.52628 
L 115.082378 111.906523 
L 115.511351 111.906523 
L 115.511351 105.714549 
L 115.940324 105.714549 
L 115.940324 107.659149 
L 116.369297 107.659149 
L 116.369297 113.258115 
L 116.79827 113.258115 
L 116.79827 117.580784 
L 117.227243 117.580784 
L 117.227243 119.92952 
L 117.656216 119.92952 
L 117.656216 117.640964 
L 118.085189 117.640964 
L 118.085189 115.700618 
L 118.514162 115.700618 
L 118.514162 121.458295 
L 118.943135 121.458295 
L 118.943135 129.333011 
L 119.372108 129.333011 
L 119.372108 132.629516 
L 119.801081 132.629516 
L 119.801081 130.684174 
L 120.230054 130.684174 
L 120.230054 122.50408 
L 120.659027 122.50408 
L 120.659027 113.575389 
L 121.088 113.575389 
L 121.088 111.2779 
L 121.516973 111.2779 
L 121.516973 114.215496 
L 121.945946 114.215496 
L 121.945946 119.676582 
L 122.374919 119.676582 
L 122.374919 125.95404 
L 122.803892 125.95404 
L 122.803892 129.687294 
L 123.232865 129.687294 
L 123.232865 131.541004 
L 123.661838 131.541004 
L 123.661838 134.694697 
L 124.090811 134.694697 
L 124.090811 135.792159 
L 124.519784 135.792159 
L 124.519784 130.353281 
L 124.948757 130.353281 
L 124.948757 123.286806 
L 125.37773 123.286806 
L 125.37773 119.394038 
L 125.806703 119.394038 
L 125.806703 118.875842 
L 126.235676 118.875842 
L 126.235676 124.653324 
L 126.664649 124.653324 
L 126.664649 130.347548 
L 127.093622 130.347548 
L 127.093622 123.6974 
L 127.522595 123.6974 
L 127.522595 115.195061 
L 127.951568 115.195061 
L 127.951568 120.422765 
L 128.380541 120.422765 
L 128.380541 127.956319 
L 128.809514 127.956319 
L 128.809514 129.504372 
L 129.238486 129.504372 
L 129.238486 112.401185 
L 129.667459 112.401185 
L 129.667459 105.631428 
L 130.096432 105.631428 
L 130.096432 101.208111 
L 130.525405 101.208111 
L 130.525405 100.785174 
L 130.954378 100.785174 
L 130.954378 103.506955 
L 131.383351 103.506955 
L 131.383351 105.274896 
L 131.812324 105.274896 
L 131.812324 107.618087 
L 132.241297 107.618087 
L 132.241297 116.773032 
L 132.67027 116.773032 
L 132.67027 124.224799 
L 133.099243 124.224799 
L 133.099243 115.849292 
L 133.528216 115.849292 
L 133.528216 103.395892 
L 133.957189 103.395892 
L 133.957189 104.985303 
L 134.386162 104.985303 
L 134.386162 112.949157 
L 134.815135 112.949157 
L 134.815135 114.923873 
L 135.244108 114.923873 
L 135.244108 113.916648 
L 135.673081 113.916648 
L 135.673081 114.856223 
L 136.102054 114.856223 
L 136.102054 116.035145 
L 136.531027 116.035145 
L 136.531027 114.574612 
L 136.96 114.574612 
L 136.96 112.146502 
L 137.388973 112.146502 
L 137.388973 113.668432 
L 137.817946 113.668432 
L 137.817946 117.808585 
L 138.246919 117.808585 
L 138.246919 110.660888 
L 138.675892 110.660888 
L 138.675892 122.547014 
L 139.104865 122.547014 
L 139.104865 114.420401 
L 139.533838 114.420401 
L 139.533838 107.482884 
L 139.962811 107.482884 
L 139.962811 112.209226 
L 140.391784 112.209226 
L 140.391784 120.645806 
L 140.820757 120.645806 
L 140.820757 120.147804 
L 141.24973 120.147804 
L 141.24973 115.32897 
L 141.678703 115.32897 
L 141.678703 112.367464 
L 142.536649 112.263301 
L 142.536649 116.317841 
L 142.965622 116.317841 
L 142.965622 121.351898 
L 143.394595 121.351898 
L 143.394595 124.126078 
L 143.823568 124.126078 
L 143.823568 124.687086 
L 144.252541 124.687086 
L 144.252541 117.843339 
L 144.681514 117.843339 
L 144.681514 118.429838 
L 145.110486 118.429838 
L 145.110486 112.886307 
L 145.539459 112.886307 
L 145.539459 108.136143 
L 145.968432 108.136143 
L 145.968432 105.908919 
L 146.397405 105.908919 
L 146.397405 102.406857 
L 146.826378 102.406857 
L 146.826378 105.614922 
L 147.255351 105.614922 
L 147.255351 110.947909 
L 147.684324 110.947909 
L 147.684324 113.042526 
L 148.113297 113.042526 
L 148.113297 113.337075 
L 148.54227 113.337075 
L 148.54227 119.081717 
L 148.971243 119.081717 
L 148.971243 122.63783 
L 149.400216 122.63783 
L 149.400216 109.311038 
L 149.829189 109.311038 
L 149.829189 93.74399 
L 150.258162 93.74399 
L 150.258162 98.557532 
L 150.687135 98.557532 
L 150.687135 110.283386 
L 151.116108 110.283386 
L 151.116108 110.445178 
L 151.545081 110.445178 
L 151.545081 105.411887 
L 151.974054 105.411887 
L 151.974054 99.070465 
L 152.403027 99.070465 
L 152.403027 96.285162 
L 152.832 96.285162 
L 152.832 111.159099 
L 153.260973 111.159099 
L 153.260973 125.44194 
L 153.689946 125.44194 
L 153.689946 109.294316 
L 154.118919 109.294316 
L 154.118919 84.941554 
L 154.547892 84.941554 
L 154.547892 83.804778 
L 154.976865 83.804778 
L 154.976865 97.309423 
L 155.405838 97.309423 
L 155.405838 106.901355 
L 155.834811 106.901355 
L 155.834811 112.878175 
L 156.263784 112.878175 
L 156.263784 112.249728 
L 156.692757 112.249728 
L 156.692757 109.183198 
L 157.12173 109.183198 
L 157.12173 112.282485 
L 157.550703 112.282485 
L 157.550703 116.378047 
L 157.979676 116.378047 
L 157.979676 114.887704 
L 158.408649 114.887704 
L 158.408649 113.461772 
L 158.837622 113.461772 
L 158.837622 109.559803 
L 159.266595 109.559803 
L 159.266595 123.592827 
L 159.695568 123.592827 
L 159.695568 124.625556 
L 160.124541 124.625556 
L 160.124541 123.92684 
L 160.553514 123.92684 
L 160.553514 121.745446 
L 160.982486 121.745446 
L 160.982486 120.598003 
L 161.411459 120.598003 
L 161.411459 120.208789 
L 161.840432 120.208789 
L 161.840432 120.035049 
L 162.269405 120.035049 
L 162.269405 126.691854 
L 162.698378 126.691854 
L 162.698378 130.566783 
L 163.127351 130.566783 
L 163.127351 109.647823 
L 163.556324 109.647823 
L 163.556324 88.824854 
L 163.985297 88.824854 
L 163.985297 108.286977 
L 164.41427 108.286977 
L 164.41427 140.642779 
L 164.843243 140.642779 
L 164.843243 144.49925 
L 165.272216 144.49925 
L 165.272216 134.372754 
L 165.701189 134.372754 
L 165.701189 131.966017 
L 166.130162 131.966017 
L 166.130162 134.489457 
L 166.559135 134.489457 
L 166.559135 138.850727 
L 166.988108 138.850727 
L 166.988108 143.078698 
L 167.417081 143.078698 
L 167.417081 142.833327 
L 167.846054 142.833327 
L 167.846054 137.896371 
L 168.275027 137.896371 
L 168.275027 133.588391 
L 168.704 133.588391 
L 168.704 125.863602 
L 169.132973 125.863602 
L 169.132973 120.349914 
L 169.561946 120.349914 
L 169.561946 120.019164 
L 169.990919 120.019164 
L 169.990919 138.236508 
L 170.419892 138.236508 
L 170.419892 158.350937 
L 170.848865 158.350937 
L 170.848865 153.105724 
L 171.277838 153.105724 
L 171.277838 140.003224 
L 171.706811 140.003224 
L 171.706811 147.104206 
L 172.135784 147.104206 
L 172.135784 162.425349 
L 172.564757 162.425349 
L 172.564757 167.621716 
L 172.99373 167.621716 
L 172.99373 169.526945 
L 173.422703 169.526945 
L 173.422703 169.841675 
L 173.851676 169.841675 
L 173.851676 199.641122 
L 174.280649 199.641122 
L 174.280649 167.053444 
L 174.709622 167.053444 
L 174.709622 169.892405 
L 175.138595 169.892405 
L 175.138595 156.481232 
L 175.567568 156.481232 
L 175.567568 153.767961 
L 175.996541 153.767961 
L 175.996541 153.369844 
L 176.425514 153.369844 
L 176.425514 160.242674 
L 176.854486 160.242674 
L 176.854486 173.184109 
L 177.283459 173.184109 
L 177.283459 189.507389 
L 177.712432 189.507389 
L 177.712432 213.630735 
L 178.141405 213.630735 
L 178.141405 227.950337 
L 178.570378 227.950337 
L 178.570378 210.288406 
L 178.999351 210.288406 
L 178.999351 188.735513 
L 179.428324 188.735513 
L 179.428324 177.281771 
L 179.857297 177.281771 
L 179.857297 228.232569 
L 180.28627 228.232569 
L 180.28627 230.559571 
L 180.715243 230.559571 
L 180.715243 220.228195 
L 181.144216 220.228195 
L 181.144216 241.898559 
L 181.573189 241.898559 
L 181.573189 214.409702 
L 182.002162 214.409702 
L 182.002162 208.250933 
L 182.431135 208.250933 
L 182.431135 196.331 
L 182.860108 196.331 
L 182.860108 225.51635 
L 183.289081 225.51635 
L 183.289081 217.682063 
L 183.718054 217.682063 
L 183.718054 213.322367 
L 184.147027 213.322367 
L 184.147027 201.9586 
L 184.576 201.9586 
L 184.576 220.172211 
L 185.004973 220.172211 
L 185.004973 238.049587 
L 185.433946 238.049587 
L 185.433946 216.155611 
L 185.862919 216.155611 
L 185.862919 173.044359 
L 186.291892 173.044359 
L 186.291892 171.807471 
L 186.720865 171.807471 
L 186.720865 182.270635 
L 187.149838 182.270635 
L 187.149838 204.362377 
L 187.578811 204.362377 
L 187.578811 205.368459 
L 188.007784 205.368459 
L 188.007784 207.564179 
L 188.436757 207.564179 
L 188.436757 210.387673 
L 188.86573 210.387673 
L 188.86573 191.191832 
L 189.294703 191.191832 
L 189.294703 220.800639 
L 189.723676 220.800639 
L 189.723676 223.191635 
L 190.152649 223.191635 
L 190.152649 226.511688 
L 190.581622 226.511688 
L 190.581622 163.188852 
L 191.010595 163.188852 
L 191.010595 166.186918 
L 191.439568 166.186918 
L 191.439568 166.450101 
L 191.868541 166.450101 
L 191.868541 188.69567 
L 192.297514 188.69567 
L 192.297514 168.402873 
L 192.726486 168.402873 
L 192.726486 168.007653 
L 193.155459 168.007653 
L 193.155459 172.486516 
L 193.584432 172.486516 
L 193.584432 152.702178 
L 194.013405 152.702178 
L 194.013405 158.5392 
L 194.442378 158.5392 
L 194.442378 150.140213 
L 194.871351 150.140213 
L 194.871351 127.682225 
L 195.300324 127.682225 
L 195.300324 129.767958 
L 195.729297 129.767958 
L 195.729297 124.825003 
L 196.15827 124.825003 
L 196.15827 129.513563 
L 196.587243 129.513563 
L 196.587243 135.979739 
L 197.016216 135.979739 
L 197.016216 140.690176 
L 197.445189 140.690176 
L 197.445189 158.534547 
L 197.874162 158.534547 
L 197.874162 124.454517 
L 198.303135 124.454517 
L 198.303135 149.767077 
L 198.732108 149.767077 
L 198.732108 147.175481 
L 199.161081 147.175481 
L 199.161081 123.996969 
L 199.590054 123.996969 
L 199.590054 91.703884 
L 200.019027 91.703884 
L 200.019027 116.457768 
L 200.448 116.457768 
L 200.448 131.524743 
L 200.876973 131.524743 
L 200.876973 131.799276 
L 201.305946 131.799276 
L 201.305946 117.302969 
L 201.734919 117.302969 
L 201.734919 112.7207 
L 202.163892 112.7207 
L 202.163892 113.497822 
L 202.592865 113.497822 
L 202.592865 116.090144 
L 203.021838 116.090144 
L 203.021838 118.269793 
L 203.450811 118.269793 
L 203.450811 115.182869 
L 203.879784 115.182869 
L 203.879784 110.51423 
L 204.308757 110.51423 
L 204.308757 109.023386 
L 204.73773 109.023386 
L 204.73773 111.18603 
L 205.166703 111.18603 
L 205.166703 111.782667 
L 205.595676 111.782667 
L 205.595676 111.579859 
L 206.024649 111.579859 
L 206.024649 110.16905 
L 206.453622 110.16905 
L 206.453622 109.30222 
L 206.882595 109.30222 
L 206.882595 109.987254 
L 207.311568 109.987254 
L 207.311568 112.728344 
L 207.740541 112.728344 
L 207.740541 120.43217 
L 208.169514 120.43217 
L 208.169514 128.313164 
L 208.598486 128.313164 
L 208.598486 126.438081 
L 209.027459 126.438081 
L 209.027459 122.224916 
L 209.456432 122.224916 
L 209.456432 129.547084 
L 209.885405 129.547084 
L 209.885405 137.776814 
L 210.314378 137.776814 
L 210.314378 131.28168 
L 210.743351 131.28168 
L 210.743351 119.214029 
L 211.172324 119.214029 
L 211.172324 113.427909 
L 211.601297 113.427909 
L 211.601297 113.201786 
L 212.03027 113.201786 
L 212.03027 117.949284 
L 212.459243 117.949284 
L 212.459243 123.489935 
L 212.888216 123.489935 
L 212.888216 121.450112 
L 213.317189 121.450112 
L 213.317189 117.922737 
L 213.746162 117.922737 
L 213.746162 113.735867 
L 214.175135 113.735867 
L 214.175135 124.285721 
L 214.604108 124.285721 
L 214.604108 116.515097 
L 215.033081 116.515097 
L 215.033081 105.406692 
L 215.462054 105.406692 
L 215.462054 96.880717 
L 215.891027 96.880717 
L 215.891027 92.63702 
L 216.32 92.63702 
L 216.32 94.412162 
L 216.748973 94.412162 
L 216.748973 100.585172 
L 217.177946 100.585172 
L 217.177946 105.410197 
L 217.606919 105.410197 
L 217.606919 109.837963 
L 218.035892 109.837963 
L 218.035892 120.220475 
L 218.464865 120.220475 
L 218.464865 127.119664 
L 218.893838 127.119664 
L 218.893838 116.235604 
L 219.322811 116.235604 
L 219.322811 96.639046 
L 219.751784 96.639046 
L 219.751784 101.907458 
L 220.180757 101.907458 
L 220.180757 115.038641 
L 220.60973 115.038641 
L 220.60973 111.904398 
L 221.038703 111.904398 
L 221.038703 102.849005 
L 221.467676 102.849005 
L 221.467676 108.690269 
L 221.896649 108.690269 
L 221.896649 113.493274 
L 222.325622 113.493274 
L 222.325622 115.589814 
L 222.754595 115.589814 
L 222.754595 119.886132 
L 223.183568 119.886132 
L 223.183568 121.369545 
L 223.612541 121.369545 
L 223.612541 122.574605 
L 224.041514 122.574605 
L 224.041514 123.342006 
L 224.470486 123.342006 
L 224.470486 123.628001 
L 224.899459 123.628001 
L 224.899459 123.036325 
L 225.328432 123.036325 
L 225.328432 120.806109 
L 225.757405 120.806109 
L 225.757405 122.538478 
L 226.186378 122.538478 
L 226.186378 123.909173 
L 226.615351 123.909173 
L 226.615351 120.829672 
L 227.044324 120.829672 
L 227.044324 115.661988 
L 227.473297 115.661988 
L 227.473297 111.130738 
L 227.90227 111.130738 
L 227.90227 109.080058 
L 228.331243 109.080058 
L 228.331243 112.170237 
L 228.760216 112.170237 
L 228.760216 117.788011 
L 229.189189 117.788011 
L 229.189189 121.215216 
L 229.618162 121.215216 
L 229.618162 123.58561 
L 230.047135 123.58561 
L 230.047135 125.757111 
L 230.476108 125.757111 
L 230.476108 123.661529 
L 230.905081 123.661529 
L 230.905081 122.076866 
L 231.334054 122.076866 
L 231.334054 105.806799 
L 231.763027 105.806799 
L 231.763027 92.994259 
L 232.192 92.994259 
L 232.192 85.036755 
L 232.620973 85.036755 
L 232.620973 93.454765 
L 233.049946 93.454765 
L 233.049946 114.367089 
L 233.478919 114.367089 
L 233.478919 116.618415 
L 233.907892 116.618415 
L 233.907892 112.196059 
L 234.336865 112.196059 
L 234.336865 118.398289 
L 234.765838 118.398289 
L 234.765838 123.755515 
L 235.194811 123.755515 
L 235.194811 109.788671 
L 235.623784 109.788671 
L 235.623784 91.684351 
L 236.052757 91.684351 
L 236.052757 90.383289 
L 236.48173 90.383289 
L 236.48173 98.412012 
L 236.910703 98.412012 
L 236.910703 105.510869 
L 237.339676 105.510869 
L 237.339676 111.222217 
L 238.197622 111.249028 
L 238.197622 109.5064 
L 238.626595 109.5064 
L 238.626595 117.679412 
L 239.055568 117.679412 
L 239.055568 123.683648 
L 239.484541 123.683648 
L 239.484541 108.798384 
L 239.913514 108.798384 
L 239.913514 89.51983 
L 240.342486 89.51983 
L 240.342486 86.143832 
L 240.771459 86.143832 
L 240.771459 94.42586 
L 241.200432 94.42586 
L 241.200432 110.384584 
L 241.629405 110.384584 
L 241.629405 122.737874 
L 242.058378 122.737874 
L 242.058378 115.490641 
L 242.487351 115.490641 
L 242.487351 99.318107 
L 242.916324 99.318107 
L 242.916324 90.798525 
L 243.77427 90.748047 
L 243.77427 97.328389 
L 244.203243 97.328389 
L 244.203243 108.900686 
L 244.632216 108.900686 
L 244.632216 123.329263 
L 245.061189 123.329263 
L 245.061189 133.142908 
L 245.490162 133.142908 
L 245.490162 136.103845 
L 245.919135 136.103845 
L 245.919135 132.063691 
L 246.348108 132.063691 
L 246.348108 122.97062 
L 246.777081 122.97062 
L 246.777081 115.13967 
L 247.206054 115.13967 
L 247.206054 112.977095 
L 247.635027 112.977095 
L 247.635027 114.440078 
L 248.064 114.440078 
L 248.064 124.529752 
L 248.492973 124.529752 
L 248.492973 131.378152 
L 248.921946 131.378152 
L 248.921946 107.30997 
L 249.350919 107.30997 
L 249.350919 84.917756 
L 249.779892 84.917756 
L 249.779892 103.105798 
L 250.208865 103.105798 
L 250.208865 136.032772 
L 250.637838 136.032772 
L 250.637838 139.630772 
L 251.066811 139.630772 
L 251.066811 129.226894 
L 251.495784 129.226894 
L 251.495784 129.369928 
L 251.924757 129.369928 
L 251.924757 133.748656 
L 252.35373 133.748656 
L 252.35373 132.50091 
L 252.782703 132.50091 
L 252.782703 130.122764 
L 253.211676 130.122764 
L 253.211676 132.7671 
L 253.640649 132.7671 
L 253.640649 134.224824 
L 254.069622 134.224824 
L 254.069622 129.08962 
L 254.498595 129.08962 
L 254.498595 122.117706 
L 254.927568 122.117706 
L 254.927568 110.726931 
L 255.356541 110.726931 
L 255.356541 111.637297 
L 255.785514 111.637297 
L 255.785514 127.030523 
L 256.214486 127.030523 
L 256.214486 146.088992 
L 256.643459 146.088992 
L 256.643459 142.962578 
L 257.072432 142.962578 
L 257.072432 133.37466 
L 257.501405 133.37466 
L 257.501405 141.229578 
L 257.930378 141.229578 
L 257.930378 156.485783 
L 258.359351 156.485783 
L 258.359351 165.90164 
L 258.788324 165.90164 
L 258.788324 171.59438 
L 259.217297 171.59438 
L 259.217297 171.031622 
L 259.64627 171.031622 
L 259.64627 165.377863 
L 260.075243 165.377863 
L 260.075243 178.139867 
L 260.504216 178.139867 
L 260.504216 160.798485 
L 260.933189 160.798485 
L 260.933189 160.107689 
L 261.362162 160.107689 
L 261.362162 155.307472 
L 261.791135 155.307472 
L 261.791135 153.726828 
L 262.220108 153.726828 
L 262.220108 157.967852 
L 262.649081 157.967852 
L 262.649081 145.965613 
L 263.078054 145.965613 
L 263.078054 175.122731 
L 263.507027 175.122731 
L 263.507027 185.168821 
L 263.936 185.168821 
L 263.936 196.582644 
L 264.364973 196.582644 
L 264.364973 198.063282 
L 264.793946 198.063282 
L 264.793946 196.241997 
L 265.222919 196.241997 
L 265.222919 206.314719 
L 265.651892 206.314719 
L 265.651892 211.302052 
L 266.080865 211.302052 
L 266.080865 217.768587 
L 266.509838 217.768587 
L 266.509838 218.205836 
L 266.938811 218.205836 
L 266.938811 231.431513 
L 267.367784 231.431513 
L 267.367784 181.783706 
L 267.796757 181.783706 
L 267.796757 223.129598 
L 268.22573 223.129598 
L 268.22573 203.492851 
L 268.654703 203.492851 
L 268.654703 189.218505 
L 269.083676 189.218505 
L 269.083676 199.76521 
L 269.512649 199.76521 
L 269.512649 209.517355 
L 269.941622 209.517355 
L 269.941622 202.795487 
L 270.370595 202.795487 
L 270.370595 195.691588 
L 270.799568 195.691588 
L 270.799568 223.108495 
L 271.228541 223.108495 
L 271.228541 211.356626 
L 271.657514 211.356626 
L 271.657514 177.839243 
L 272.086486 177.839243 
L 272.086486 172.316124 
L 272.515459 172.316124 
L 272.515459 177.484102 
L 272.944432 177.484102 
L 272.944432 180.161207 
L 273.373405 180.161207 
L 273.373405 183.591488 
L 273.802378 183.591488 
L 273.802378 191.474102 
L 274.231351 191.474102 
L 274.231351 200.405417 
L 274.660324 200.405417 
L 274.660324 207.80421 
L 275.089297 207.80421 
L 275.089297 209.101788 
L 275.51827 209.101788 
L 275.51827 203.261709 
L 275.947243 203.261709 
L 275.947243 196.328567 
L 276.376216 196.328567 
L 276.376216 179.284429 
L 276.805189 179.284429 
L 276.805189 170.276836 
L 277.234162 170.276836 
L 277.234162 202.773128 
L 277.663135 202.773128 
L 277.663135 151.008201 
L 278.092108 151.008201 
L 278.092108 201.763779 
L 278.521081 201.763779 
L 278.521081 168.966127 
L 278.950054 168.966127 
L 278.950054 191.749035 
L 279.379027 191.749035 
L 279.379027 199.723287 
L 279.808 199.723287 
L 279.808 164.941495 
L 280.236973 164.941495 
L 280.236973 133.246198 
L 280.665946 133.246198 
L 280.665946 132.317515 
L 281.094919 132.317515 
L 281.094919 148.264445 
L 281.523892 148.264445 
L 281.523892 145.817305 
L 281.952865 145.817305 
L 281.952865 134.688028 
L 282.381838 134.688028 
L 282.381838 133.17274 
L 282.810811 133.17274 
L 282.810811 138.169632 
L 283.239784 138.169632 
L 283.239784 142.399309 
L 283.668757 142.399309 
L 283.668757 144.005356 
L 284.09773 144.005356 
L 284.09773 157.172179 
L 284.526703 157.172179 
L 284.526703 147.088071 
L 284.955676 147.088071 
L 284.955676 127.538368 
L 285.384649 127.538368 
L 285.384649 104.12072 
L 285.813622 104.12072 
L 285.813622 104.795972 
L 286.242595 104.795972 
L 286.242595 115.00836 
L 286.671568 115.00836 
L 286.671568 113.076313 
L 287.100541 113.076313 
L 287.100541 106.148257 
L 287.529514 106.148257 
L 287.529514 102.922866 
L 287.958486 102.922866 
L 287.958486 102.317911 
L 288.387459 102.317911 
L 288.387459 108.172571 
L 288.816432 108.172571 
L 288.816432 110.834294 
L 289.245405 110.834294 
L 289.245405 108.208016 
L 289.674378 108.208016 
L 289.674378 104.223861 
L 290.103351 104.223861 
L 290.103351 110.982604 
L 290.532324 110.982604 
L 290.532324 119.908814 
L 290.961297 119.908814 
L 290.961297 117.799106 
L 291.39027 117.799106 
L 291.39027 111.184207 
L 291.819243 111.184207 
L 291.819243 110.533315 
L 292.248216 110.533315 
L 292.248216 113.214062 
L 292.677189 113.214062 
L 292.677189 112.203145 
L 293.106162 112.203145 
L 293.106162 114.23351 
L 293.964108 114.219025 
L 293.964108 114.428201 
L 294.393081 114.428201 
L 294.393081 111.438098 
L 294.822054 111.438098 
L 294.822054 111.049712 
L 295.251027 111.049712 
L 295.251027 120.843159 
L 295.68 120.843159 
L 295.68 130.036285 
L 296.108973 130.036285 
L 296.108973 134.666943 
L 296.537946 134.666943 
L 296.537946 115.669603 
L 296.966919 115.669603 
L 296.966919 114.272142 
L 297.395892 114.272142 
L 297.395892 116.082878 
L 297.824865 116.082878 
L 297.824865 120.143593 
L 298.253838 120.143593 
L 298.253838 122.582063 
L 298.682811 122.582063 
L 298.682811 117.577351 
L 299.111784 117.577351 
L 299.111784 110.620257 
L 299.540757 110.620257 
L 299.540757 109.179297 
L 299.96973 109.179297 
L 299.96973 110.763679 
L 300.398703 110.763679 
L 300.398703 112.448265 
L 300.827676 112.448265 
L 300.827676 110.44285 
L 301.256649 110.44285 
L 301.256649 102.347724 
L 301.685622 102.347724 
L 301.685622 93.580108 
L 302.114595 93.580108 
L 302.114595 80.765864 
L 302.543568 80.765864 
L 302.543568 89.291194 
L 302.972541 89.291194 
L 302.972541 95.5001 
L 303.401514 95.5001 
L 303.401514 104.433994 
L 303.830486 104.433994 
L 303.830486 112.677987 
L 304.259459 112.677987 
L 304.259459 114.788013 
L 304.688432 114.788013 
L 304.688432 99.05112 
L 305.117405 99.05112 
L 305.117405 80.890191 
L 305.546378 80.890191 
L 305.546378 85.579476 
L 305.975351 85.579476 
L 305.975351 99.187447 
L 306.404324 99.187447 
L 306.404324 98.828848 
L 306.833297 98.828848 
L 306.833297 94.397338 
L 307.26227 94.397338 
L 307.26227 99.303026 
L 307.691243 99.303026 
L 307.691243 108.6595 
L 308.120216 108.6595 
L 308.120216 118.597751 
L 308.549189 118.597751 
L 308.549189 125.768046 
L 308.978162 125.768046 
L 308.978162 122.467927 
L 309.407135 122.467927 
L 309.407135 116.591028 
L 309.836108 116.591028 
L 309.836108 122.792576 
L 310.265081 122.792576 
L 310.265081 132.070362 
L 310.694054 132.070362 
L 310.694054 128.45853 
L 311.123027 128.45853 
L 311.123027 120.705178 
L 311.552 120.705178 
L 311.552 122.453813 
L 311.980973 122.453813 
L 311.980973 125.062618 
L 312.409946 125.062618 
L 312.409946 119.379843 
L 312.838919 119.379843 
L 312.838919 109.134153 
L 313.267892 109.134153 
L 313.267892 94.534113 
L 313.696865 94.534113 
L 313.696865 85.916879 
L 314.125838 85.916879 
L 314.125838 100.357236 
L 314.554811 100.357236 
L 314.554811 121.12886 
L 314.983784 121.12886 
L 314.983784 125.088249 
L 315.412757 125.088249 
L 315.412757 118.855755 
L 315.84173 118.855755 
L 315.84173 114.867296 
L 316.270703 114.867296 
L 316.270703 109.731399 
L 316.699676 109.731399 
L 316.699676 101.440861 
L 317.128649 101.440861 
L 317.128649 92.553228 
L 317.557622 92.553228 
L 317.557622 81.297975 
L 317.986595 81.297975 
L 317.986595 75.205974 
L 318.415568 75.205974 
L 318.415568 87.85487 
L 318.844541 87.85487 
L 318.844541 106.091488 
L 319.273514 106.091488 
L 319.273514 107.176365 
L 319.702486 107.176365 
L 319.702486 101.442633 
L 320.131459 101.442633 
L 320.131459 108.725727 
L 320.560432 108.725727 
L 320.560432 117.075026 
L 320.989405 117.075026 
L 320.989405 108.65695 
L 321.418378 108.65695 
L 321.418378 96.425106 
L 321.847351 96.425106 
L 321.847351 93.327909 
L 322.276324 93.327909 
L 322.276324 104.832516 
L 322.705297 104.832516 
L 322.705297 106.161977 
L 323.13427 106.161977 
L 323.13427 106.356192 
L 323.563243 106.356192 
L 323.563243 104.058491 
L 323.992216 104.058491 
L 323.992216 103.859577 
L 324.421189 103.859577 
L 324.421189 118.432267 
L 324.850162 118.432267 
L 324.850162 130.600115 
L 325.279135 130.600115 
L 325.279135 114.509821 
L 325.708108 114.509821 
L 325.708108 90.344818 
L 326.137081 90.344818 
L 326.137081 83.467259 
L 326.566054 83.467259 
L 326.566054 89.267692 
L 326.995027 89.267692 
L 326.995027 106.542266 
L 327.424 106.542266 
L 327.424 122.987434 
L 327.852973 122.987434 
L 327.852973 108.48304 
L 328.281946 108.48304 
L 328.281946 99.888095 
L 328.710919 99.888095 
L 328.710919 96.978111 
L 329.139892 96.978111 
L 329.139892 102.360431 
L 329.568865 102.360431 
L 329.568865 104.304366 
L 329.997838 104.304366 
L 329.997838 106.732032 
L 330.426811 106.732032 
L 330.426811 109.192996 
L 330.855784 109.192996 
L 330.855784 111.752436 
L 331.284757 111.752436 
L 331.284757 126.264406 
L 331.71373 126.264406 
L 331.71373 130.017729 
L 332.142703 130.017729 
L 332.142703 116.689082 
L 332.571676 116.689082 
L 332.571676 99.632899 
L 333.000649 99.632899 
L 333.000649 105.399606 
L 333.429622 105.399606 
L 333.429622 119.586695 
L 333.858595 119.586695 
L 333.858595 127.176186 
L 334.287568 127.176186 
L 334.287568 125.904227 
L 334.716541 125.904227 
L 334.716541 105.730662 
L 335.145514 105.730662 
L 335.145514 87.323945 
L 335.574486 87.323945 
L 335.574486 104.360998 
L 336.003459 104.360998 
L 336.003459 133.271074 
L 336.432432 133.271074 
L 336.432432 138.625224 
L 336.861405 138.625224 
L 336.861405 131.855302 
L 337.290378 131.855302 
L 337.290378 128.208958 
L 337.719351 128.208958 
L 337.719351 126.582107 
L 338.148324 126.582107 
L 338.148324 135.531226 
L 338.577297 135.531226 
L 338.577297 128.709427 
L 339.00627 128.709427 
L 339.00627 136.416732 
L 339.435243 136.416732 
L 339.435243 139.596405 
L 339.864216 139.596405 
L 339.864216 128.089392 
L 340.293189 128.089392 
L 340.293189 113.182716 
L 340.722162 113.182716 
L 340.722162 110.179062 
L 341.151135 110.179062 
L 341.151135 115.762079 
L 341.580108 115.762079 
L 341.580108 126.345931 
L 342.009081 126.345931 
L 342.009081 135.058851 
L 342.438054 135.058851 
L 342.438054 133.111977 
L 342.867027 133.111977 
L 342.867027 130.628969 
L 343.296 130.628969 
L 343.296 129.383105 
L 343.724973 129.383105 
L 343.724973 158.122174 
L 344.153946 158.122174 
L 344.153946 160.362091 
L 344.582919 160.362091 
L 344.582919 161.110263 
L 345.011892 161.110263 
L 345.011892 171.4635 
L 345.440865 171.4635 
L 345.440865 190.788355 
L 345.869838 190.788355 
L 345.869838 170.734898 
L 346.298811 170.734898 
L 346.298811 145.464425 
L 346.727784 145.464425 
L 346.727784 140.551438 
L 347.156757 140.551438 
L 347.156757 147.038279 
L 347.58573 147.038279 
L 347.58573 152.148876 
L 348.014703 152.148876 
L 348.014703 159.263268 
L 348.443676 159.263268 
L 348.443676 149.922847 
L 348.872649 149.922847 
L 348.872649 175.644244 
L 349.301622 175.644244 
L 349.301622 181.643677 
L 349.730595 181.643677 
L 349.730595 187.043634 
L 350.159568 187.043634 
L 350.159568 200.957944 
L 350.588541 200.957944 
L 350.588541 189.073235 
L 351.017514 189.073235 
L 351.017514 200.036885 
L 351.446486 200.036885 
L 351.446486 209.545929 
L 351.875459 209.545929 
L 351.875459 213.222232 
L 352.304432 213.222232 
L 352.304432 213.970809 
L 352.733405 213.970809 
L 352.733405 201.228401 
L 353.162378 201.228401 
L 353.162378 206.038071 
L 353.591351 206.038071 
L 353.591351 208.801507 
L 354.020324 208.801507 
L 354.020324 199.255118 
L 354.449297 199.255118 
L 354.449297 192.166842 
L 354.87827 192.166842 
L 354.87827 198.05001 
L 355.307243 198.05001 
L 355.307243 189.705236 
L 355.736216 189.705236 
L 355.736216 187.623082 
L 356.165189 187.623082 
L 356.165189 207.875647 
L 356.594162 207.875647 
L 356.594162 223.334153 
L 357.023135 223.334153 
L 357.023135 227.743948 
L 357.452108 227.743948 
L 357.452108 168.340689 
L 357.881081 168.340689 
L 357.881081 161.18157 
L 358.310054 161.18157 
L 358.310054 163.195322 
L 358.739027 163.195322 
L 358.739027 187.879381 
L 359.168 187.879381 
L 359.168 173.998774 
L 359.596973 173.998774 
L 359.596973 195.302939 
L 360.025946 195.302939 
L 360.025946 215.27346 
L 360.454919 215.27346 
L 360.454919 215.488804 
L 360.883892 215.488804 
L 360.883892 222.567221 
L 361.312865 222.567221 
L 361.312865 207.100664 
L 361.741838 207.100664 
L 361.741838 189.654525 
L 362.170811 189.654525 
L 362.170811 178.41719 
L 362.599784 178.41719 
L 362.599784 140.732686 
L 363.028757 140.732686 
L 363.028757 177.405701 
L 363.45773 177.405701 
L 363.45773 136.759393 
L 363.886703 136.759393 
L 363.886703 127.736728 
L 364.315676 127.736728 
L 364.315676 141.100475 
L 364.744649 141.100475 
L 364.744649 180.337518 
L 365.173622 180.337518 
L 365.173622 159.728775 
L 365.602595 159.728775 
L 365.602595 162.673473 
L 366.031568 162.673473 
L 366.031568 154.415741 
L 366.460541 154.415741 
L 366.460541 157.798363 
L 366.889514 157.798363 
L 366.889514 151.322075 
L 367.318486 151.322075 
L 367.318486 135.932462 
L 367.747459 135.932462 
L 367.747459 158.657796 
L 368.176432 158.657796 
L 368.176432 161.252542 
L 368.605405 161.252542 
L 368.605405 151.449428 
L 369.034378 151.449428 
L 369.034378 141.952765 
L 369.463351 141.952765 
L 369.463351 163.616243 
L 369.892324 163.616243 
L 369.892324 126.771173 
L 370.321297 126.771173 
L 370.321297 136.918178 
L 370.75027 136.918178 
L 370.75027 134.236466 
L 371.179243 134.236466 
L 371.179243 111.276643 
L 371.608216 111.276643 
L 371.608216 105.253859 
L 372.037189 105.253859 
L 372.037189 100.557331 
L 372.466162 100.557331 
L 372.466162 97.66729 
L 372.895135 97.66729 
L 372.895135 97.528421 
L 373.324108 97.528421 
L 373.324108 103.396917 
L 373.753081 103.396917 
L 373.753081 109.904449 
L 374.182054 109.904449 
L 374.182054 111.622075 
L 374.611027 111.622075 
L 374.611027 109.371759 
L 375.04 109.371759 
L 375.04 102.57135 
L 375.468973 102.57135 
L 375.468973 97.468358 
L 375.897946 97.468358 
L 375.897946 103.296229 
L 376.326919 103.296229 
L 376.326919 111.91665 
L 376.755892 111.91665 
L 376.755892 114.017924 
L 377.184865 114.017924 
L 377.184865 112.508581 
L 377.613838 112.508581 
L 377.613838 102.477862 
L 378.042811 102.477862 
L 378.042811 106.064873 
L 378.471784 106.064873 
L 378.471784 108.781999 
L 378.900757 108.781999 
L 378.900757 114.46279 
L 379.32973 114.46279 
L 379.32973 115.256878 
L 379.758703 115.256878 
L 379.758703 113.969779 
L 380.616649 113.980765 
L 380.616649 114.846863 
L 381.045622 114.846863 
L 381.045622 116.711426 
L 381.474595 116.711426 
L 381.474595 118.188096 
L 381.903568 118.188096 
L 381.903568 116.952016 
L 382.332541 116.952016 
L 382.332541 115.083424 
L 383.190486 115.154112 
L 383.190486 116.704026 
L 383.619459 116.704026 
L 383.619459 118.806045 
L 384.048432 118.806045 
L 384.048432 118.971369 
L 384.477405 118.971369 
L 384.477405 117.57202 
L 384.906378 117.57202 
L 384.906378 116.385006 
L 385.335351 116.385006 
L 385.335351 104.195573 
L 385.764324 104.195573 
L 385.764324 108.57326 
L 386.193297 108.57326 
L 386.193297 114.011644 
L 386.62227 114.011644 
L 386.62227 119.092102 
L 387.051243 119.092102 
L 387.051243 104.958087 
L 387.480216 104.958087 
L 387.480216 85.807416 
L 387.909189 85.807416 
L 387.909189 80.491938 
L 388.338162 80.491938 
L 388.338162 86.512589 
L 388.767135 86.512589 
L 388.767135 97.325519 
L 389.196108 97.325519 
L 389.196108 108.27383 
L 389.625081 108.27383 
L 389.625081 118.103265 
L 390.054054 118.103265 
L 390.054054 121.204391 
L 390.483027 121.204391 
L 390.483027 104.332668 
L 390.912 104.332668 
L 390.912 84.520173 
L 391.340973 84.520173 
L 391.340973 95.14876 
L 391.769946 95.14876 
L 391.769946 110.82673 
L 392.198919 110.82673 
L 392.198919 100.822966 
L 392.627892 100.822966 
L 392.627892 82.087313 
L 393.056865 82.087313 
L 393.056865 94.754887 
L 393.485838 94.754887 
L 393.485838 102.252499 
L 393.914811 102.252499 
L 393.914811 109.329796 
L 394.343784 109.329796 
L 394.343784 111.207531 
L 394.772757 111.207531 
L 394.772757 114.720873 
L 395.20173 114.720873 
L 395.20173 119.000492 
L 395.630703 119.000492 
L 395.630703 126.7255 
L 396.059676 126.7255 
L 396.059676 133.353535 
L 396.488649 133.353535 
L 396.488649 129.707171 
L 396.917622 129.707171 
L 396.917622 123.044694 
L 397.346595 123.044694 
L 397.346595 125.574246 
L 397.775568 125.574246 
L 397.775568 129.504894 
L 398.204541 129.504894 
L 398.204541 124.014076 
L 398.633514 124.014076 
L 398.633514 114.249502 
L 399.062486 114.249502 
L 399.062486 106.027118 
L 399.491459 106.027118 
L 399.491459 101.403343 
L 399.920432 101.403343 
L 399.920432 105.526786 
L 400.349405 105.526786 
L 400.349405 108.957317 
L 400.778378 108.957317 
L 400.778378 114.933032 
L 401.207351 114.933032 
L 401.207351 118.25853 
L 401.636324 118.25853 
L 401.636324 117.769046 
L 402.065297 117.769046 
L 402.065297 113.047928 
L 402.49427 113.047928 
L 402.49427 105.214862 
L 402.923243 105.214862 
L 402.923243 97.524501 
L 403.352216 97.524501 
L 403.352216 91.915473 
L 403.781189 91.915473 
L 403.781189 91.324004 
L 404.210162 91.324004 
L 404.210162 100.337291 
L 404.639135 100.337291 
L 404.639135 111.7537 
L 405.068108 111.7537 
L 405.068108 114.397871 
L 405.497081 114.397871 
L 405.497081 111.893533 
L 405.926054 111.893533 
L 405.926054 112.009166 
L 406.784 111.930485 
L 406.784 106.464844 
L 407.212973 106.464844 
L 407.212973 100.528916 
L 407.641946 100.528916 
L 407.641946 101.202318 
L 408.070919 101.202318 
L 408.070919 104.247056 
L 408.928865 104.334515 
L 408.928865 104.097367 
L 409.357838 104.097367 
L 409.357838 103.270882 
L 409.786811 103.270882 
L 409.786811 104.571811 
L 410.215784 104.571811 
L 410.215784 117.102992 
L 410.644757 117.102992 
L 410.644757 127.253621 
L 411.07373 127.253621 
L 411.07373 113.749762 
L 411.502703 113.749762 
L 411.502703 93.217607 
L 411.931676 93.217607 
L 411.931676 88.640166 
L 412.360649 88.640166 
L 412.360649 93.230017 
L 412.789622 93.230017 
L 412.789622 100.801073 
L 413.218595 100.801073 
L 413.218595 101.7725 
L 413.647568 101.7725 
L 413.647568 98.588094 
L 414.076541 98.588094 
L 414.076541 94.083531 
L 414.934486 94.149733 
L 414.934486 96.827191 
L 415.363459 96.827191 
L 415.363459 94.854753 
L 415.792432 94.854753 
L 415.792432 94.698864 
L 416.221405 94.698864 
L 416.221405 104.896993 
L 416.650378 104.896993 
L 416.650378 116.275951 
L 417.079351 116.275951 
L 417.079351 121.001531 
L 417.508324 121.001531 
L 417.508324 118.529662 
L 417.937297 118.529662 
L 417.937297 102.589193 
L 418.36627 102.589193 
L 418.36627 89.988732 
L 418.795243 89.988732 
L 418.795243 105.771135 
L 419.224216 105.771135 
L 419.224216 128.675428 
L 419.653189 128.675428 
L 419.653189 133.040271 
L 420.082162 133.040271 
L 420.082162 123.494 
L 420.511135 123.494 
L 420.511135 100.065285 
L 420.940108 100.065285 
L 420.940108 82.622953 
L 421.369081 82.622953 
L 421.369081 103.895112 
L 421.798054 103.895112 
L 421.798054 137.571408 
L 422.227027 137.571408 
L 422.227027 142.69387 
L 422.656 142.69387 
L 422.656 132.680519 
L 423.084973 132.680519 
L 423.084973 129.432852 
L 423.513946 129.432852 
L 423.513946 129.724102 
L 423.942919 129.724102 
L 423.942919 129.502935 
L 424.371892 129.502935 
L 424.371892 132.335777 
L 424.800865 132.335777 
L 424.800865 131.352577 
L 425.229838 131.352577 
L 425.229838 150.877197 
L 425.658811 150.877197 
L 425.658811 129.053003 
L 426.087784 129.053003 
L 426.087784 103.23546 
L 426.516757 103.23546 
L 426.516757 100.229722 
L 426.94573 100.229722 
L 426.94573 113.692976 
L 427.374703 113.692976 
L 427.374703 120.377982 
L 427.803676 120.377982 
L 427.803676 123.603727 
L 428.232649 123.603727 
L 428.232649 123.011102 
L 428.661622 123.011102 
L 428.661622 124.009918 
L 429.090595 124.009918 
L 429.090595 134.402528 
L 429.519568 134.402528 
L 429.519568 147.928492 
L 429.948541 147.928492 
L 429.948541 159.538317 
L 430.377514 159.538317 
L 430.377514 166.713655 
L 430.806486 166.713655 
L 430.806486 157.938992 
L 431.235459 157.938992 
L 431.235459 157.827299 
L 431.664432 157.827299 
L 431.664432 162.975546 
L 432.093405 162.975546 
L 432.093405 164.173466 
L 432.522378 164.173466 
L 432.522378 182.336167 
L 432.951351 182.336167 
L 432.951351 153.238355 
L 433.380324 153.238355 
L 433.380324 162.269199 
L 433.809297 162.269199 
L 433.809297 159.799466 
L 434.23827 159.799466 
L 434.23827 160.683593 
L 434.667243 160.683593 
L 434.667243 159.765442 
L 435.096216 159.765442 
L 435.096216 182.173953 
L 435.525189 182.173953 
L 435.525189 211.423533 
L 435.954162 211.423533 
L 435.954162 171.517447 
L 436.383135 171.517447 
L 436.383135 205.175319 
L 436.812108 205.175319 
L 436.812108 184.013816 
L 437.241081 184.013816 
L 437.241081 191.073492 
L 437.670054 191.073492 
L 437.670054 199.09886 
L 438.099027 199.09886 
L 438.099027 225.379197 
L 438.528 225.379197 
L 438.528 214.810709 
L 438.956973 214.810709 
L 438.956973 193.692122 
L 439.385946 193.692122 
L 439.385946 181.206472 
L 439.814919 181.206472 
L 439.814919 178.173706 
L 440.243892 178.173706 
L 440.243892 174.375571 
L 440.672865 174.375571 
L 440.672865 172.21905 
L 441.101838 172.21905 
L 441.101838 201.09444 
L 441.530811 201.09444 
L 441.530811 185.559509 
L 441.959784 185.559509 
L 441.959784 206.917474 
L 442.388757 206.917474 
L 442.388757 218.328338 
L 442.81773 218.328338 
L 442.81773 198.965461 
L 443.246703 198.965461 
L 443.246703 169.784469 
L 443.675676 169.784469 
L 443.675676 163.684268 
L 444.104649 163.684268 
L 444.104649 172.502805 
L 444.533622 172.502805 
L 444.533622 171.605241 
L 444.962595 171.605241 
L 444.962595 172.353251 
L 445.391568 172.353251 
L 445.391568 171.861613 
L 445.820541 171.861613 
L 445.820541 190.671155 
L 446.249514 190.671155 
L 446.249514 206.856363 
L 446.678486 206.856363 
L 446.678486 194.810254 
L 447.107459 194.810254 
L 447.107459 202.255827 
L 447.536432 202.255827 
L 447.536432 203.581955 
L 447.965405 203.581955 
L 447.965405 184.370485 
L 448.394378 184.370485 
L 448.394378 160.805082 
L 448.823351 160.805082 
L 448.823351 156.910261 
L 449.252324 156.910261 
L 449.252324 160.793897 
L 449.681297 160.793897 
L 449.681297 162.542767 
L 450.11027 162.542767 
L 450.11027 155.527573 
L 450.539243 155.527573 
L 450.539243 148.526804 
L 450.968216 148.526804 
L 450.968216 134.972292 
L 451.397189 134.972292 
L 451.397189 173.18089 
L 451.826162 173.18089 
L 451.826162 149.750183 
L 452.255135 149.750183 
L 452.255135 134.783589 
L 452.684108 134.783589 
L 452.684108 119.12736 
L 453.113081 119.12736 
L 453.113081 120.859178 
L 453.542054 120.859178 
L 453.542054 133.993864 
L 453.971027 133.993864 
L 453.971027 140.105387 
L 454.4 140.105387 
L 454.4 143.350071 
L 454.828973 143.350071 
L 454.828973 152.204155 
L 455.257946 152.204155 
L 455.257946 159.367971 
L 455.686919 159.367971 
L 455.686919 147.176935 
L 456.115892 147.176935 
L 456.115892 143.235243 
L 456.544865 143.235243 
L 456.544865 117.831916 
L 456.973838 117.831916 
L 456.973838 94.493597 
L 457.402811 94.493597 
L 457.402811 86.281552 
L 457.831784 86.281552 
L 457.831784 90.17312 
L 458.260757 90.17312 
L 458.260757 94.564778 
L 458.68973 94.564778 
L 458.68973 98.458895 
L 459.118703 98.458895 
L 459.118703 98.215656 
L 459.547676 98.215656 
L 459.547676 97.10283 
L 459.976649 97.10283 
L 459.976649 101.953252 
L 460.405622 101.953252 
L 460.405622 108.947053 
L 460.834595 108.947053 
L 460.834595 111.116402 
L 461.692541 111.101547 
L 461.692541 114.450192 
L 461.8 114.450192 
" clip-path="url(#pfbc64161fd)" style="fill: none; stroke: #000000; stroke-width: 0.4; stroke-linecap: square"/>
   </g>
   <g id="patch_3">
    <path d="M 57.6 307.584 
L 57.6 41.472 
" style="fill: none; stroke: #000000; stroke-width: 0.8; stroke-linejoin: miter; stroke-linecap: square"/>
   </g>
   <g id="patch_4">
    <path d="M 414.72 307.584 
L 414.72 41.472 
" style="fill: none; stroke: #000000; stroke-width: 0.8; stroke-linejoin: miter; stroke-linecap: square"/>
   </g>
   <g id="patch_5">
    <path d="M 57.6 307.584 
L 414.72 307.584 
" style="fill: none; stroke: #000000; stroke-width: 0.8; stroke-linejoin: miter; stroke-linecap: square"/>
   </g>
   <g id="patch_6">
    <path d="M 57.6 41.472 
L 414.72 41.472 
" style="fill: none; stroke: #000000; stroke-width: 0.8; stroke-linejoin: miter; stroke-linecap: square"/>
   </g>
  </g>
 </g>
 <defs>
  <clipPath id="pfbc64161fd">
   <rect x="57.6" y="41.472" width="357.12" height="266.112"/>
  </clipPath>
 </defs>
</svg>
