<?xml version="1.0" encoding="utf-8" standalone="no"?>
<!DOCTYPE svg PUBLIC "-//W3C//DTD SVG 1.1//EN"
  "http://www.w3.org/Graphics/SVG/1.1/DTD/svg11.dtd">
<svg xmlns:xlink="http://www.w3.org/1999/xlink" width="460.8pt" height="345.6pt" viewBox="0 0 460.8 345.6" xmlns="http://www.w3.org/2000/svg" version="1.1">
 <metadata>
  <rdf:RDF xmlns:dc="http://purl.org/dc/elements/1.1/" xmlns:cc="http://creativecommons.org/ns#" xmlns:rdf="http://www.w3.org/1999/02/22-rdf-syntax-ns#">
   <cc:Work>
    <dc:type rdf:resource="http://purl.org/dc/dcmitype/StillImage"/>
    <dc:date>2024-05-11T22:27:30.123813</dc:date>
    <dc:format>image/svg+xml</dc:format>
    <dc:creator>
     <cc:Agent>
      <dc:title>Matplotlib v3.8.4, https://matplotlib.org/</dc:title>
     </cc:Agent>
    </dc:creator>
   </cc:Work>
  </rdf:RDF>
 </metadata>
 <defs>
  <style type="text/css">*{stroke-linejoin: round; stroke-linecap: butt}</style>
 </defs>
 <g id="figure_1">
  <g id="patch_1">
   <path d="M 0 345.6 
L 460.8 345.6 
L 460.8 0 
L 0 0 
z
" style="fill: #ffffff"/>
  </g>
  <g id="axes_1">
   <g id="patch_2">
    <path d="M 57.6 307.584 
L 414.72 307.584 
L 414.72 41.472 
L 57.6 41.472 
z
" style="fill: #ffffff"/>
   </g>
   <g id="matplotlib.axis_1">
    <g id="xtick_1">
     <g id="line2d_1">
      <path d="M 57.6 307.584 
L 57.6 41.472 
" clip-path="url(#p1efcdf3606)" style="fill: none; stroke: #b0b0b0; stroke-width: 0.8; stroke-linecap: square"/>
     </g>
     <g id="line2d_2">
      <defs>
       <path id="me3575458b8" d="M 0 0 
L 0 3.5 
" style="stroke: #000000; stroke-width: 0.8"/>
      </defs>
      <g>
       <use xlink:href="#me3575458b8" x="57.6" y="307.584" style="stroke: #000000; stroke-width: 0.8"/>
      </g>
     </g>
    </g>
    <g id="xtick_2">
     <g id="line2d_3">
      <path d="M 87.36 307.584 
L 87.36 41.472 
" clip-path="url(#p1efcdf3606)" style="fill: none; stroke: #b0b0b0; stroke-width: 0.8; stroke-linecap: square"/>
     </g>
     <g id="line2d_4">
      <g>
       <use xlink:href="#me3575458b8" x="87.36" y="307.584" style="stroke: #000000; stroke-width: 0.8"/>
      </g>
     </g>
     <g id="text_1">
      <!-- 16h -->
      <g transform="translate(77.82875 322.182437) scale(0.1 -0.1)">
       <defs>
        <path id="DejaVuSans-31" d="M 794 531 
L 1825 531 
L 1825 4091 
L 703 3866 
L 703 4441 
L 1819 4666 
L 2450 4666 
L 2450 531 
L 3481 531 
L 3481 0 
L 794 0 
L 794 531 
z
" transform="scale(0.015625)"/>
        <path id="DejaVuSans-36" d="M 2113 2584 
Q 1688 2584 1439 2293 
Q 1191 2003 1191 1497 
Q 1191 994 1439 701 
Q 1688 409 2113 409 
Q 2538 409 2786 701 
Q 3034 994 3034 1497 
Q 3034 2003 2786 2293 
Q 2538 2584 2113 2584 
z
M 3366 4563 
L 3366 3988 
Q 3128 4100 2886 4159 
Q 2644 4219 2406 4219 
Q 1781 4219 1451 3797 
Q 1122 3375 1075 2522 
Q 1259 2794 1537 2939 
Q 1816 3084 2150 3084 
Q 2853 3084 3261 2657 
Q 3669 2231 3669 1497 
Q 3669 778 3244 343 
Q 2819 -91 2113 -91 
Q 1303 -91 875 529 
Q 447 1150 447 2328 
Q 447 3434 972 4092 
Q 1497 4750 2381 4750 
Q 2619 4750 2861 4703 
Q 3103 4656 3366 4563 
z
" transform="scale(0.015625)"/>
        <path id="DejaVuSans-68" d="M 3513 2113 
L 3513 0 
L 2938 0 
L 2938 2094 
Q 2938 2591 2744 2837 
Q 2550 3084 2163 3084 
Q 1697 3084 1428 2787 
Q 1159 2491 1159 1978 
L 1159 0 
L 581 0 
L 581 4863 
L 1159 4863 
L 1159 2956 
Q 1366 3272 1645 3428 
Q 1925 3584 2291 3584 
Q 2894 3584 3203 3211 
Q 3513 2838 3513 2113 
z
" transform="scale(0.015625)"/>
       </defs>
       <use xlink:href="#DejaVuSans-31"/>
       <use xlink:href="#DejaVuSans-36" x="63.623047"/>
       <use xlink:href="#DejaVuSans-68" x="127.246094"/>
      </g>
     </g>
    </g>
    <g id="xtick_3">
     <g id="line2d_5">
      <path d="M 117.12 307.584 
L 117.12 41.472 
" clip-path="url(#p1efcdf3606)" style="fill: none; stroke: #b0b0b0; stroke-width: 0.8; stroke-linecap: square"/>
     </g>
     <g id="line2d_6">
      <g>
       <use xlink:href="#me3575458b8" x="117.12" y="307.584" style="stroke: #000000; stroke-width: 0.8"/>
      </g>
     </g>
     <g id="text_2">
      <!-- 18h -->
      <g transform="translate(107.58875 322.182437) scale(0.1 -0.1)">
       <defs>
        <path id="DejaVuSans-38" d="M 2034 2216 
Q 1584 2216 1326 1975 
Q 1069 1734 1069 1313 
Q 1069 891 1326 650 
Q 1584 409 2034 409 
Q 2484 409 2743 651 
Q 3003 894 3003 1313 
Q 3003 1734 2745 1975 
Q 2488 2216 2034 2216 
z
M 1403 2484 
Q 997 2584 770 2862 
Q 544 3141 544 3541 
Q 544 4100 942 4425 
Q 1341 4750 2034 4750 
Q 2731 4750 3128 4425 
Q 3525 4100 3525 3541 
Q 3525 3141 3298 2862 
Q 3072 2584 2669 2484 
Q 3125 2378 3379 2068 
Q 3634 1759 3634 1313 
Q 3634 634 3220 271 
Q 2806 -91 2034 -91 
Q 1263 -91 848 271 
Q 434 634 434 1313 
Q 434 1759 690 2068 
Q 947 2378 1403 2484 
z
M 1172 3481 
Q 1172 3119 1398 2916 
Q 1625 2713 2034 2713 
Q 2441 2713 2670 2916 
Q 2900 3119 2900 3481 
Q 2900 3844 2670 4047 
Q 2441 4250 2034 4250 
Q 1625 4250 1398 4047 
Q 1172 3844 1172 3481 
z
" transform="scale(0.015625)"/>
       </defs>
       <use xlink:href="#DejaVuSans-31"/>
       <use xlink:href="#DejaVuSans-38" x="63.623047"/>
       <use xlink:href="#DejaVuSans-68" x="127.246094"/>
      </g>
     </g>
    </g>
    <g id="xtick_4">
     <g id="line2d_7">
      <path d="M 146.88 307.584 
L 146.88 41.472 
" clip-path="url(#p1efcdf3606)" style="fill: none; stroke: #b0b0b0; stroke-width: 0.8; stroke-linecap: square"/>
     </g>
     <g id="line2d_8">
      <g>
       <use xlink:href="#me3575458b8" x="146.88" y="307.584" style="stroke: #000000; stroke-width: 0.8"/>
      </g>
     </g>
     <g id="text_3">
      <!-- 20h -->
      <g transform="translate(137.34875 322.182437) scale(0.1 -0.1)">
       <defs>
        <path id="DejaVuSans-32" d="M 1228 531 
L 3431 531 
L 3431 0 
L 469 0 
L 469 531 
Q 828 903 1448 1529 
Q 2069 2156 2228 2338 
Q 2531 2678 2651 2914 
Q 2772 3150 2772 3378 
Q 2772 3750 2511 3984 
Q 2250 4219 1831 4219 
Q 1534 4219 1204 4116 
Q 875 4013 500 3803 
L 500 4441 
Q 881 4594 1212 4672 
Q 1544 4750 1819 4750 
Q 2544 4750 2975 4387 
Q 3406 4025 3406 3419 
Q 3406 3131 3298 2873 
Q 3191 2616 2906 2266 
Q 2828 2175 2409 1742 
Q 1991 1309 1228 531 
z
" transform="scale(0.015625)"/>
        <path id="DejaVuSans-30" d="M 2034 4250 
Q 1547 4250 1301 3770 
Q 1056 3291 1056 2328 
Q 1056 1369 1301 889 
Q 1547 409 2034 409 
Q 2525 409 2770 889 
Q 3016 1369 3016 2328 
Q 3016 3291 2770 3770 
Q 2525 4250 2034 4250 
z
M 2034 4750 
Q 2819 4750 3233 4129 
Q 3647 3509 3647 2328 
Q 3647 1150 3233 529 
Q 2819 -91 2034 -91 
Q 1250 -91 836 529 
Q 422 1150 422 2328 
Q 422 3509 836 4129 
Q 1250 4750 2034 4750 
z
" transform="scale(0.015625)"/>
       </defs>
       <use xlink:href="#DejaVuSans-32"/>
       <use xlink:href="#DejaVuSans-30" x="63.623047"/>
       <use xlink:href="#DejaVuSans-68" x="127.246094"/>
      </g>
     </g>
    </g>
    <g id="xtick_5">
     <g id="line2d_9">
      <path d="M 176.64 307.584 
L 176.64 41.472 
" clip-path="url(#p1efcdf3606)" style="fill: none; stroke: #b0b0b0; stroke-width: 0.8; stroke-linecap: square"/>
     </g>
     <g id="line2d_10">
      <g>
       <use xlink:href="#me3575458b8" x="176.64" y="307.584" style="stroke: #000000; stroke-width: 0.8"/>
      </g>
     </g>
     <g id="text_4">
      <!-- 22h -->
      <g transform="translate(167.10875 322.182437) scale(0.1 -0.1)">
       <use xlink:href="#DejaVuSans-32"/>
       <use xlink:href="#DejaVuSans-32" x="63.623047"/>
       <use xlink:href="#DejaVuSans-68" x="127.246094"/>
      </g>
     </g>
    </g>
    <g id="xtick_6">
     <g id="line2d_11">
      <path d="M 206.4 307.584 
L 206.4 41.472 
" clip-path="url(#p1efcdf3606)" style="fill: none; stroke: #b0b0b0; stroke-width: 0.8; stroke-linecap: square"/>
     </g>
     <g id="line2d_12">
      <g>
       <use xlink:href="#me3575458b8" x="206.4" y="307.584" style="stroke: #000000; stroke-width: 0.8"/>
      </g>
     </g>
     <g id="text_5">
      <!-- 00h -->
      <g transform="translate(196.86875 322.182437) scale(0.1 -0.1)">
       <use xlink:href="#DejaVuSans-30"/>
       <use xlink:href="#DejaVuSans-30" x="63.623047"/>
       <use xlink:href="#DejaVuSans-68" x="127.246094"/>
      </g>
     </g>
    </g>
    <g id="xtick_7">
     <g id="line2d_13">
      <path d="M 236.16 307.584 
L 236.16 41.472 
" clip-path="url(#p1efcdf3606)" style="fill: none; stroke: #b0b0b0; stroke-width: 0.8; stroke-linecap: square"/>
     </g>
     <g id="line2d_14">
      <g>
       <use xlink:href="#me3575458b8" x="236.16" y="307.584" style="stroke: #000000; stroke-width: 0.8"/>
      </g>
     </g>
     <g id="text_6">
      <!-- 02h -->
      <g transform="translate(226.62875 322.182437) scale(0.1 -0.1)">
       <use xlink:href="#DejaVuSans-30"/>
       <use xlink:href="#DejaVuSans-32" x="63.623047"/>
       <use xlink:href="#DejaVuSans-68" x="127.246094"/>
      </g>
     </g>
    </g>
    <g id="xtick_8">
     <g id="line2d_15">
      <path d="M 265.92 307.584 
L 265.92 41.472 
" clip-path="url(#p1efcdf3606)" style="fill: none; stroke: #b0b0b0; stroke-width: 0.8; stroke-linecap: square"/>
     </g>
     <g id="line2d_16">
      <g>
       <use xlink:href="#me3575458b8" x="265.92" y="307.584" style="stroke: #000000; stroke-width: 0.8"/>
      </g>
     </g>
     <g id="text_7">
      <!-- 04h -->
      <g transform="translate(256.38875 322.182437) scale(0.1 -0.1)">
       <defs>
        <path id="DejaVuSans-34" d="M 2419 4116 
L 825 1625 
L 2419 1625 
L 2419 4116 
z
M 2253 4666 
L 3047 4666 
L 3047 1625 
L 3713 1625 
L 3713 1100 
L 3047 1100 
L 3047 0 
L 2419 0 
L 2419 1100 
L 313 1100 
L 313 1709 
L 2253 4666 
z
" transform="scale(0.015625)"/>
       </defs>
       <use xlink:href="#DejaVuSans-30"/>
       <use xlink:href="#DejaVuSans-34" x="63.623047"/>
       <use xlink:href="#DejaVuSans-68" x="127.246094"/>
      </g>
     </g>
    </g>
    <g id="xtick_9">
     <g id="line2d_17">
      <path d="M 295.68 307.584 
L 295.68 41.472 
" clip-path="url(#p1efcdf3606)" style="fill: none; stroke: #b0b0b0; stroke-width: 0.8; stroke-linecap: square"/>
     </g>
     <g id="line2d_18">
      <g>
       <use xlink:href="#me3575458b8" x="295.68" y="307.584" style="stroke: #000000; stroke-width: 0.8"/>
      </g>
     </g>
     <g id="text_8">
      <!-- 06h -->
      <g transform="translate(286.14875 322.182437) scale(0.1 -0.1)">
       <use xlink:href="#DejaVuSans-30"/>
       <use xlink:href="#DejaVuSans-36" x="63.623047"/>
       <use xlink:href="#DejaVuSans-68" x="127.246094"/>
      </g>
     </g>
    </g>
    <g id="xtick_10">
     <g id="line2d_19">
      <path d="M 325.44 307.584 
L 325.44 41.472 
" clip-path="url(#p1efcdf3606)" style="fill: none; stroke: #b0b0b0; stroke-width: 0.8; stroke-linecap: square"/>
     </g>
     <g id="line2d_20">
      <g>
       <use xlink:href="#me3575458b8" x="325.44" y="307.584" style="stroke: #000000; stroke-width: 0.8"/>
      </g>
     </g>
     <g id="text_9">
      <!-- 08h -->
      <g transform="translate(315.90875 322.182437) scale(0.1 -0.1)">
       <use xlink:href="#DejaVuSans-30"/>
       <use xlink:href="#DejaVuSans-38" x="63.623047"/>
       <use xlink:href="#DejaVuSans-68" x="127.246094"/>
      </g>
     </g>
    </g>
    <g id="xtick_11">
     <g id="line2d_21">
      <path d="M 355.2 307.584 
L 355.2 41.472 
" clip-path="url(#p1efcdf3606)" style="fill: none; stroke: #b0b0b0; stroke-width: 0.8; stroke-linecap: square"/>
     </g>
     <g id="line2d_22">
      <g>
       <use xlink:href="#me3575458b8" x="355.2" y="307.584" style="stroke: #000000; stroke-width: 0.8"/>
      </g>
     </g>
     <g id="text_10">
      <!-- 10h -->
      <g transform="translate(345.66875 322.182437) scale(0.1 -0.1)">
       <use xlink:href="#DejaVuSans-31"/>
       <use xlink:href="#DejaVuSans-30" x="63.623047"/>
       <use xlink:href="#DejaVuSans-68" x="127.246094"/>
      </g>
     </g>
    </g>
    <g id="xtick_12">
     <g id="line2d_23">
      <path d="M 384.96 307.584 
L 384.96 41.472 
" clip-path="url(#p1efcdf3606)" style="fill: none; stroke: #b0b0b0; stroke-width: 0.8; stroke-linecap: square"/>
     </g>
     <g id="line2d_24">
      <g>
       <use xlink:href="#me3575458b8" x="384.96" y="307.584" style="stroke: #000000; stroke-width: 0.8"/>
      </g>
     </g>
     <g id="text_11">
      <!-- 12h -->
      <g transform="translate(375.42875 322.182437) scale(0.1 -0.1)">
       <use xlink:href="#DejaVuSans-31"/>
       <use xlink:href="#DejaVuSans-32" x="63.623047"/>
       <use xlink:href="#DejaVuSans-68" x="127.246094"/>
      </g>
     </g>
    </g>
    <g id="xtick_13">
     <g id="line2d_25">
      <path d="M 414.72 307.584 
L 414.72 41.472 
" clip-path="url(#p1efcdf3606)" style="fill: none; stroke: #b0b0b0; stroke-width: 0.8; stroke-linecap: square"/>
     </g>
     <g id="line2d_26">
      <g>
       <use xlink:href="#me3575458b8" x="414.72" y="307.584" style="stroke: #000000; stroke-width: 0.8"/>
      </g>
     </g>
     <g id="text_12">
      <!-- 14h -->
      <g transform="translate(405.18875 322.182437) scale(0.1 -0.1)">
       <use xlink:href="#DejaVuSans-31"/>
       <use xlink:href="#DejaVuSans-34" x="63.623047"/>
       <use xlink:href="#DejaVuSans-68" x="127.246094"/>
      </g>
     </g>
    </g>
   </g>
   <g id="matplotlib.axis_2">
    <g id="ytick_1">
     <g id="line2d_27">
      <path d="M 57.6 307.584 
L 414.72 307.584 
" clip-path="url(#p1efcdf3606)" style="fill: none; stroke: #b0b0b0; stroke-width: 0.8; stroke-linecap: square"/>
     </g>
     <g id="line2d_28">
      <defs>
       <path id="m50b85faa96" d="M 0 0 
L -3.5 0 
" style="stroke: #000000; stroke-width: 0.8"/>
      </defs>
      <g>
       <use xlink:href="#m50b85faa96" x="57.6" y="307.584" style="stroke: #000000; stroke-width: 0.8"/>
      </g>
     </g>
     <g id="text_13">
      <!-- 35 -->
      <g transform="translate(37.875 311.383219) scale(0.1 -0.1)">
       <defs>
        <path id="DejaVuSans-33" d="M 2597 2516 
Q 3050 2419 3304 2112 
Q 3559 1806 3559 1356 
Q 3559 666 3084 287 
Q 2609 -91 1734 -91 
Q 1441 -91 1130 -33 
Q 819 25 488 141 
L 488 750 
Q 750 597 1062 519 
Q 1375 441 1716 441 
Q 2309 441 2620 675 
Q 2931 909 2931 1356 
Q 2931 1769 2642 2001 
Q 2353 2234 1838 2234 
L 1294 2234 
L 1294 2753 
L 1863 2753 
Q 2328 2753 2575 2939 
Q 2822 3125 2822 3475 
Q 2822 3834 2567 4026 
Q 2313 4219 1838 4219 
Q 1578 4219 1281 4162 
Q 984 4106 628 3988 
L 628 4550 
Q 988 4650 1302 4700 
Q 1616 4750 1894 4750 
Q 2613 4750 3031 4423 
Q 3450 4097 3450 3541 
Q 3450 3153 3228 2886 
Q 3006 2619 2597 2516 
z
" transform="scale(0.015625)"/>
        <path id="DejaVuSans-35" d="M 691 4666 
L 3169 4666 
L 3169 4134 
L 1269 4134 
L 1269 2991 
Q 1406 3038 1543 3061 
Q 1681 3084 1819 3084 
Q 2600 3084 3056 2656 
Q 3513 2228 3513 1497 
Q 3513 744 3044 326 
Q 2575 -91 1722 -91 
Q 1428 -91 1123 -41 
Q 819 9 494 109 
L 494 744 
Q 775 591 1075 516 
Q 1375 441 1709 441 
Q 2250 441 2565 725 
Q 2881 1009 2881 1497 
Q 2881 1984 2565 2268 
Q 2250 2553 1709 2553 
Q 1456 2553 1204 2497 
Q 953 2441 691 2322 
L 691 4666 
z
" transform="scale(0.015625)"/>
       </defs>
       <use xlink:href="#DejaVuSans-33"/>
       <use xlink:href="#DejaVuSans-35" x="63.623047"/>
      </g>
     </g>
    </g>
    <g id="ytick_2">
     <g id="line2d_29">
      <path d="M 57.6 278.016 
L 414.72 278.016 
" clip-path="url(#p1efcdf3606)" style="fill: none; stroke: #b0b0b0; stroke-width: 0.8; stroke-linecap: square"/>
     </g>
     <g id="line2d_30">
      <g>
       <use xlink:href="#m50b85faa96" x="57.6" y="278.016" style="stroke: #000000; stroke-width: 0.8"/>
      </g>
     </g>
     <g id="text_14">
      <!-- 40 -->
      <g transform="translate(37.875 281.815219) scale(0.1 -0.1)">
       <use xlink:href="#DejaVuSans-34"/>
       <use xlink:href="#DejaVuSans-30" x="63.623047"/>
      </g>
     </g>
    </g>
    <g id="ytick_3">
     <g id="line2d_31">
      <path d="M 57.6 248.448 
L 414.72 248.448 
" clip-path="url(#p1efcdf3606)" style="fill: none; stroke: #b0b0b0; stroke-width: 0.8; stroke-linecap: square"/>
     </g>
     <g id="line2d_32">
      <g>
       <use xlink:href="#m50b85faa96" x="57.6" y="248.448" style="stroke: #000000; stroke-width: 0.8"/>
      </g>
     </g>
     <g id="text_15">
      <!-- 45 -->
      <g transform="translate(37.875 252.247219) scale(0.1 -0.1)">
       <use xlink:href="#DejaVuSans-34"/>
       <use xlink:href="#DejaVuSans-35" x="63.623047"/>
      </g>
     </g>
    </g>
    <g id="ytick_4">
     <g id="line2d_33">
      <path d="M 57.6 218.88 
L 414.72 218.88 
" clip-path="url(#p1efcdf3606)" style="fill: none; stroke: #b0b0b0; stroke-width: 0.8; stroke-linecap: square"/>
     </g>
     <g id="line2d_34">
      <g>
       <use xlink:href="#m50b85faa96" x="57.6" y="218.88" style="stroke: #000000; stroke-width: 0.8"/>
      </g>
     </g>
     <g id="text_16">
      <!-- 50 -->
      <g transform="translate(37.875 222.679219) scale(0.1 -0.1)">
       <use xlink:href="#DejaVuSans-35"/>
       <use xlink:href="#DejaVuSans-30" x="63.623047"/>
      </g>
     </g>
    </g>
    <g id="ytick_5">
     <g id="line2d_35">
      <path d="M 57.6 189.312 
L 414.72 189.312 
" clip-path="url(#p1efcdf3606)" style="fill: none; stroke: #b0b0b0; stroke-width: 0.8; stroke-linecap: square"/>
     </g>
     <g id="line2d_36">
      <g>
       <use xlink:href="#m50b85faa96" x="57.6" y="189.312" style="stroke: #000000; stroke-width: 0.8"/>
      </g>
     </g>
     <g id="text_17">
      <!-- 55 -->
      <g transform="translate(37.875 193.111219) scale(0.1 -0.1)">
       <use xlink:href="#DejaVuSans-35"/>
       <use xlink:href="#DejaVuSans-35" x="63.623047"/>
      </g>
     </g>
    </g>
    <g id="ytick_6">
     <g id="line2d_37">
      <path d="M 57.6 159.744 
L 414.72 159.744 
" clip-path="url(#p1efcdf3606)" style="fill: none; stroke: #b0b0b0; stroke-width: 0.8; stroke-linecap: square"/>
     </g>
     <g id="line2d_38">
      <g>
       <use xlink:href="#m50b85faa96" x="57.6" y="159.744" style="stroke: #000000; stroke-width: 0.8"/>
      </g>
     </g>
     <g id="text_18">
      <!-- 60 -->
      <g transform="translate(37.875 163.543219) scale(0.1 -0.1)">
       <use xlink:href="#DejaVuSans-36"/>
       <use xlink:href="#DejaVuSans-30" x="63.623047"/>
      </g>
     </g>
    </g>
    <g id="ytick_7">
     <g id="line2d_39">
      <path d="M 57.6 130.176 
L 414.72 130.176 
" clip-path="url(#p1efcdf3606)" style="fill: none; stroke: #b0b0b0; stroke-width: 0.8; stroke-linecap: square"/>
     </g>
     <g id="line2d_40">
      <g>
       <use xlink:href="#m50b85faa96" x="57.6" y="130.176" style="stroke: #000000; stroke-width: 0.8"/>
      </g>
     </g>
     <g id="text_19">
      <!-- 65 -->
      <g transform="translate(37.875 133.975219) scale(0.1 -0.1)">
       <use xlink:href="#DejaVuSans-36"/>
       <use xlink:href="#DejaVuSans-35" x="63.623047"/>
      </g>
     </g>
    </g>
    <g id="ytick_8">
     <g id="line2d_41">
      <path d="M 57.6 100.608 
L 414.72 100.608 
" clip-path="url(#p1efcdf3606)" style="fill: none; stroke: #b0b0b0; stroke-width: 0.8; stroke-linecap: square"/>
     </g>
     <g id="line2d_42">
      <g>
       <use xlink:href="#m50b85faa96" x="57.6" y="100.608" style="stroke: #000000; stroke-width: 0.8"/>
      </g>
     </g>
     <g id="text_20">
      <!-- 70 -->
      <g transform="translate(37.875 104.407219) scale(0.1 -0.1)">
       <defs>
        <path id="DejaVuSans-37" d="M 525 4666 
L 3525 4666 
L 3525 4397 
L 1831 0 
L 1172 0 
L 2766 4134 
L 525 4134 
L 525 4666 
z
" transform="scale(0.015625)"/>
       </defs>
       <use xlink:href="#DejaVuSans-37"/>
       <use xlink:href="#DejaVuSans-30" x="63.623047"/>
      </g>
     </g>
    </g>
    <g id="ytick_9">
     <g id="line2d_43">
      <path d="M 57.6 71.04 
L 414.72 71.04 
" clip-path="url(#p1efcdf3606)" style="fill: none; stroke: #b0b0b0; stroke-width: 0.8; stroke-linecap: square"/>
     </g>
     <g id="line2d_44">
      <g>
       <use xlink:href="#m50b85faa96" x="57.6" y="71.04" style="stroke: #000000; stroke-width: 0.8"/>
      </g>
     </g>
     <g id="text_21">
      <!-- 75 -->
      <g transform="translate(37.875 74.839219) scale(0.1 -0.1)">
       <use xlink:href="#DejaVuSans-37"/>
       <use xlink:href="#DejaVuSans-35" x="63.623047"/>
      </g>
     </g>
    </g>
    <g id="ytick_10">
     <g id="line2d_45">
      <path d="M 57.6 41.472 
L 414.72 41.472 
" clip-path="url(#p1efcdf3606)" style="fill: none; stroke: #b0b0b0; stroke-width: 0.8; stroke-linecap: square"/>
     </g>
     <g id="line2d_46">
      <g>
       <use xlink:href="#m50b85faa96" x="57.6" y="41.472" style="stroke: #000000; stroke-width: 0.8"/>
      </g>
     </g>
     <g id="text_22">
      <!-- 80 -->
      <g transform="translate(37.875 45.271219) scale(0.1 -0.1)">
       <use xlink:href="#DejaVuSans-38"/>
       <use xlink:href="#DejaVuSans-30" x="63.623047"/>
      </g>
     </g>
    </g>
   </g>
   <g id="line2d_47">
    <path d="M 57.6 77.552081 
L 57.6 78.32667 
L 58.110901 78.32667 
L 58.110901 78.480811 
L 58.621803 78.480811 
L 58.621803 74.253542 
L 59.132704 74.253542 
L 59.132704 70.202066 
L 59.643605 70.202066 
L 59.643605 73.227523 
L 60.154506 73.227523 
L 60.154506 79.392567 
L 60.665408 79.392567 
L 60.665408 83.033805 
L 61.176309 83.033805 
L 61.176309 86.291928 
L 61.68721 86.291928 
L 61.68721 89.630314 
L 62.198112 89.630314 
L 62.198112 92.893822 
L 62.709013 92.893822 
L 62.709013 103.643394 
L 63.219914 103.643394 
L 63.219914 116.557083 
L 63.730815 116.557083 
L 63.730815 100.500919 
L 64.241717 100.500919 
L 64.241717 115.375171 
L 64.752618 115.375171 
L 64.752618 110.347531 
L 65.263519 110.347531 
L 65.263519 116.649278 
L 65.774421 116.649278 
L 65.774421 112.956396 
L 66.285322 112.956396 
L 66.285322 118.0781 
L 66.796223 118.0781 
L 66.796223 112.542588 
L 67.307124 112.542588 
L 67.307124 104.272864 
L 67.818026 104.272864 
L 67.818026 116.181095 
L 68.328927 116.181095 
L 68.328927 100.971338 
L 68.839828 100.971338 
L 68.839828 106.498106 
L 69.35073 106.498106 
L 69.35073 110.986814 
L 69.861631 110.986814 
L 69.861631 115.15327 
L 70.372532 115.15327 
L 70.372532 117.879381 
L 70.883433 117.879381 
L 70.883433 115.963434 
L 71.394335 115.963434 
L 71.394335 114.805421 
L 71.905236 114.805421 
L 71.905236 113.076651 
L 72.416137 113.076651 
L 72.416137 96.346221 
L 72.927039 96.346221 
L 72.927039 98.925285 
L 73.43794 98.925285 
L 73.43794 97.863311 
L 73.948841 97.863311 
L 73.948841 99.477464 
L 74.459742 99.477464 
L 74.459742 99.123213 
L 74.970644 99.123213 
L 74.970644 97.837147 
L 75.481545 97.837147 
L 75.481545 96.018216 
L 75.992446 96.018216 
L 75.992446 94.677097 
L 76.503348 94.677097 
L 76.503348 94.032521 
L 77.014249 94.032521 
L 77.014249 95.045379 
L 77.52515 95.045379 
L 77.52515 97.253764 
L 78.036052 97.253764 
L 78.036052 97.527777 
L 78.546953 97.527777 
L 78.546953 98.586313 
L 79.057854 98.586313 
L 79.057854 107.240073 
L 79.568755 107.240073 
L 79.568755 116.170078 
L 80.079657 116.170078 
L 80.079657 112.373517 
L 80.590558 112.373517 
L 80.590558 104.257109 
L 81.101459 104.257109 
L 81.101459 108.967103 
L 81.612361 108.967103 
L 81.612361 111.122367 
L 82.123262 111.122367 
L 82.123262 114.141715 
L 83.145064 114.102302 
L 83.145064 111.986915 
L 83.655966 111.986915 
L 83.655966 108.683675 
L 84.166867 108.683675 
L 84.166867 106.626884 
L 84.677768 106.626884 
L 84.677768 105.569031 
L 85.18867 105.569031 
L 85.18867 104.045345 
L 85.699571 104.045345 
L 85.699571 103.463532 
L 86.210472 103.463532 
L 86.210472 105.520264 
L 86.721373 105.520264 
L 86.721373 107.54176 
L 87.232275 107.54176 
L 87.232275 108.310641 
L 87.743176 108.310641 
L 87.743176 108.778583 
L 88.254077 108.778583 
L 88.254077 101.738562 
L 88.764979 101.738562 
L 88.764979 104.191513 
L 89.27588 104.191513 
L 89.27588 109.425603 
L 89.786781 109.425603 
L 89.786781 108.731484 
L 90.297682 108.731484 
L 90.297682 110.861513 
L 90.808584 110.861513 
L 90.808584 109.625597 
L 91.319485 109.625597 
L 91.319485 120.311308 
L 91.830386 120.311308 
L 91.830386 108.333294 
L 92.852189 108.382346 
L 92.852189 106.832757 
L 93.36309 106.832757 
L 93.36309 104.873337 
L 93.873991 104.873337 
L 93.873991 101.774434 
L 94.384893 101.774434 
L 94.384893 102.751968 
L 94.895794 102.751968 
L 94.895794 106.318261 
L 95.406695 106.318261 
L 95.406695 91.20131 
L 95.917597 91.20131 
L 95.917597 102.262349 
L 96.428498 102.262349 
L 96.428498 99.237769 
L 96.939399 99.237769 
L 96.939399 98.473771 
L 97.4503 98.473771 
L 97.4503 97.68613 
L 97.961202 97.68613 
L 97.961202 100.220251 
L 98.472103 100.220251 
L 98.472103 97.170535 
L 98.983004 97.170535 
L 98.983004 107.811569 
L 99.493906 107.811569 
L 99.493906 120.449689 
L 100.004807 120.449689 
L 100.004807 114.976906 
L 100.515708 114.976906 
L 100.515708 120.816888 
L 101.026609 120.816888 
L 101.026609 111.770794 
L 101.537511 111.770794 
L 101.537511 119.049609 
L 102.048412 119.049609 
L 102.048412 126.853913 
L 102.559313 126.853913 
L 102.559313 125.668025 
L 103.070215 125.668025 
L 103.070215 120.891102 
L 104.092017 120.966668 
L 104.092017 122.56261 
L 104.602918 122.56261 
L 104.602918 123.791296 
L 105.11382 123.791296 
L 105.11382 119.251381 
L 105.624721 119.251381 
L 105.624721 119.604977 
L 106.135622 119.604977 
L 106.135622 120.342549 
L 106.646524 120.342549 
L 106.646524 120.615706 
L 107.157425 120.615706 
L 107.157425 118.617189 
L 107.668326 118.617189 
L 107.668326 113.783918 
L 108.179227 113.783918 
L 108.179227 107.919803 
L 108.690129 107.919803 
L 108.690129 99.550823 
L 109.20103 99.550823 
L 109.20103 92.494596 
L 109.711931 92.494596 
L 109.711931 103.592686 
L 110.222833 103.592686 
L 110.222833 103.964371 
L 110.733734 103.964371 
L 110.733734 109.878889 
L 111.244635 109.878889 
L 111.244635 120.782614 
L 111.755536 120.782614 
L 111.755536 122.212055 
L 112.266438 122.212055 
L 112.266438 119.364757 
L 112.777339 119.364757 
L 112.777339 118.561811 
L 113.28824 118.561811 
L 113.28824 114.701716 
L 113.799142 114.701716 
L 113.799142 112.014119 
L 114.820944 112.00577 
L 114.820944 110.371436 
L 115.331845 110.371436 
L 115.331845 108.545888 
L 115.842747 108.545888 
L 115.842747 106.710137 
L 116.353648 106.710137 
L 116.353648 104.35934 
L 116.864549 104.35934 
L 116.864549 100.81139 
L 117.375451 100.81139 
L 117.375451 97.677373 
L 117.886352 97.677373 
L 117.886352 95.781404 
L 118.397253 95.781404 
L 118.397253 95.187625 
L 118.908155 95.187625 
L 118.908155 98.090766 
L 119.419056 98.090766 
L 119.419056 99.92573 
L 119.929957 99.92573 
L 119.929957 93.347009 
L 120.440858 93.347009 
L 120.440858 86.134438 
L 120.95176 86.134438 
L 120.95176 87.53225 
L 121.462661 87.53225 
L 121.462661 94.074119 
L 121.973562 94.074119 
L 121.973562 104.75041 
L 122.484464 104.75041 
L 122.484464 114.023194 
L 122.995365 114.023194 
L 122.995365 105.287241 
L 123.506266 105.287241 
L 123.506266 96.733828 
L 124.017167 96.733828 
L 124.017167 106.414821 
L 124.528069 106.414821 
L 124.528069 107.161338 
L 125.03897 107.161338 
L 125.03897 106.838963 
L 125.549871 106.838963 
L 125.549871 107.629716 
L 126.060773 107.629716 
L 126.060773 114.917003 
L 126.571674 114.917003 
L 126.571674 111.739818 
L 127.082575 111.739818 
L 127.082575 108.780626 
L 127.593476 108.780626 
L 127.593476 103.173445 
L 128.104378 103.173445 
L 128.104378 101.131275 
L 128.615279 101.131275 
L 128.615279 100.706813 
L 129.12618 100.706813 
L 129.12618 99.173069 
L 129.637082 99.173069 
L 129.637082 96.383249 
L 130.147983 96.383249 
L 130.147983 94.074926 
L 130.658884 94.074926 
L 130.658884 92.746868 
L 131.169785 92.746868 
L 131.169785 86.041481 
L 131.680687 86.041481 
L 131.680687 77.149786 
L 132.191588 77.149786 
L 132.191588 92.996621 
L 132.702489 92.996621 
L 132.702489 88.844873 
L 133.213391 88.844873 
L 133.213391 75.727621 
L 133.724292 75.727621 
L 133.724292 75.463512 
L 134.235193 75.463512 
L 134.235193 83.425383 
L 134.746094 83.425383 
L 134.746094 99.147856 
L 135.256996 99.147856 
L 135.256996 97.192275 
L 135.767897 97.192275 
L 135.767897 100.112999 
L 136.278798 100.112999 
L 136.278798 106.259247 
L 136.7897 106.259247 
L 136.7897 115.061093 
L 137.300601 115.061093 
L 137.300601 114.156481 
L 137.811502 114.156481 
L 137.811502 112.781379 
L 138.322403 112.781379 
L 138.322403 113.767213 
L 138.833305 113.767213 
L 138.833305 116.487795 
L 139.344206 116.487795 
L 139.344206 117.450818 
L 140.366009 117.346755 
L 140.366009 116.507759 
L 140.87691 116.507759 
L 140.87691 114.914882 
L 141.387811 114.914882 
L 141.387811 114.396495 
L 141.898712 114.396495 
L 141.898712 114.898386 
L 142.409614 114.898386 
L 142.409614 110.009809 
L 142.920515 110.009809 
L 142.920515 114.295508 
L 143.942318 114.223517 
L 143.942318 115.565694 
L 144.453219 115.565694 
L 144.453219 117.292106 
L 144.96412 117.292106 
L 144.96412 119.940819 
L 145.475021 119.940819 
L 145.475021 123.215826 
L 145.985923 123.215826 
L 145.985923 125.891727 
L 146.496824 125.891727 
L 146.496824 130.310082 
L 147.007725 130.310082 
L 147.007725 133.723046 
L 147.518627 133.723046 
L 147.518627 125.423557 
L 148.029528 125.423557 
L 148.029528 115.367667 
L 148.540429 115.367667 
L 148.540429 133.213899 
L 149.05133 133.213899 
L 149.05133 136.082005 
L 149.562232 136.082005 
L 149.562232 138.244475 
L 150.073133 138.244475 
L 150.073133 131.002742 
L 150.584034 131.002742 
L 150.584034 128.162679 
L 151.094936 128.162679 
L 151.094936 129.718944 
L 151.605837 129.718944 
L 151.605837 114.850837 
L 152.116738 114.850837 
L 152.116738 133.326635 
L 152.627639 133.326635 
L 152.627639 127.214185 
L 153.138541 127.214185 
L 153.138541 122.10613 
L 153.649442 122.10613 
L 153.649442 117.367314 
L 154.160343 117.367314 
L 154.160343 119.941318 
L 154.671245 119.941318 
L 154.671245 120.49801 
L 155.182146 120.49801 
L 155.182146 122.190417 
L 155.693047 122.190417 
L 155.693047 124.268048 
L 156.203948 124.268048 
L 156.203948 130.719304 
L 156.71485 130.719304 
L 156.71485 130.022395 
L 157.225751 130.022395 
L 157.225751 135.499603 
L 157.736652 135.499603 
L 157.736652 139.79183 
L 158.247554 139.79183 
L 158.247554 141.251462 
L 158.758455 141.251462 
L 158.758455 139.955002 
L 159.269356 139.955002 
L 159.269356 142.46573 
L 159.780258 142.46573 
L 159.780258 142.998453 
L 160.291159 142.998453 
L 160.291159 137.366122 
L 160.80206 137.366122 
L 160.80206 140.687878 
L 161.312961 140.687878 
L 161.312961 146.410919 
L 161.823863 146.410919 
L 161.823863 122.651093 
L 162.334764 122.651093 
L 162.334764 141.064431 
L 162.845665 141.064431 
L 162.845665 135.827122 
L 163.356567 135.827122 
L 163.356567 136.224577 
L 163.867468 136.224577 
L 163.867468 140.330314 
L 164.378369 140.330314 
L 164.378369 143.38064 
L 164.88927 143.38064 
L 164.88927 141.185174 
L 165.400172 141.185174 
L 165.400172 124.960547 
L 165.911073 124.960547 
L 165.911073 133.635127 
L 166.421974 133.635127 
L 166.421974 142.419412 
L 166.932876 142.419412 
L 166.932876 148.556964 
L 167.443777 148.556964 
L 167.443777 149.596909 
L 167.954678 149.596909 
L 167.954678 146.439108 
L 168.465579 146.439108 
L 168.465579 142.186622 
L 168.976481 142.186622 
L 168.976481 145.496471 
L 169.487382 145.496471 
L 169.487382 152.391402 
L 169.998283 152.391402 
L 169.998283 145.323469 
L 170.509185 145.323469 
L 170.509185 151.523938 
L 171.020086 151.523938 
L 171.020086 148.525764 
L 171.530987 148.525764 
L 171.530987 146.459094 
L 172.041888 146.459094 
L 172.041888 143.559557 
L 172.55279 143.559557 
L 172.55279 140.83686 
L 173.063691 140.83686 
L 173.063691 138.195173 
L 173.574592 138.195173 
L 173.574592 135.671414 
L 174.085494 135.671414 
L 174.085494 134.60096 
L 174.596395 134.60096 
L 174.596395 131.800246 
L 175.107296 131.800246 
L 175.107296 129.519272 
L 175.618197 129.519272 
L 175.618197 127.088963 
L 176.129099 127.088963 
L 176.129099 125.156843 
L 176.64 125.156843 
L 176.64 124.478573 
L 177.150901 124.478573 
L 177.150901 125.836845 
L 177.661803 125.836845 
L 177.661803 128.794134 
L 178.172704 128.794134 
L 178.172704 132.644039 
L 178.683605 132.644039 
L 178.683605 136.52599 
L 179.194506 136.52599 
L 179.194506 139.290825 
L 179.705408 139.290825 
L 179.705408 140.556719 
L 180.216309 140.556719 
L 180.216309 142.105558 
L 180.72721 142.105558 
L 180.72721 144.927126 
L 181.238112 144.927126 
L 181.238112 141.943685 
L 181.749013 141.943685 
L 181.749013 149.41542 
L 182.259914 149.41542 
L 182.259914 155.030779 
L 182.770815 155.030779 
L 182.770815 158.104989 
L 183.281717 158.104989 
L 183.281717 152.227462 
L 183.792618 152.227462 
L 183.792618 145.683569 
L 184.303519 145.683569 
L 184.303519 131.200171 
L 184.814421 131.200171 
L 184.814421 142.32961 
L 185.325322 142.32961 
L 185.325322 156.208906 
L 185.836223 156.208906 
L 185.836223 177.266864 
L 186.347124 177.266864 
L 186.347124 154.59309 
L 186.858026 154.59309 
L 186.858026 152.243255 
L 187.368927 152.243255 
L 187.368927 158.639694 
L 187.879828 158.639694 
L 187.879828 91.104191 
L 188.39073 91.104191 
L 188.39073 106.905726 
L 188.901631 106.905726 
L 188.901631 95.710361 
L 189.412532 95.710361 
L 189.412532 166.671489 
L 189.923433 166.671489 
L 189.923433 106.7416 
L 190.434335 106.7416 
L 190.434335 127.735868 
L 190.945236 127.735868 
L 190.945236 140.979589 
L 191.456137 140.979589 
L 191.456137 155.226818 
L 191.967039 155.226818 
L 191.967039 162.805248 
L 192.47794 162.805248 
L 192.47794 154.76946 
L 192.988841 154.76946 
L 192.988841 151.796245 
L 193.499742 151.796245 
L 193.499742 139.878437 
L 194.010644 139.878437 
L 194.010644 137.632474 
L 194.521545 137.632474 
L 194.521545 150.050615 
L 195.032446 150.050615 
L 195.032446 197.352853 
L 195.543348 197.352853 
L 195.543348 182.169453 
L 196.054249 182.169453 
L 196.054249 183.854181 
L 196.56515 183.854181 
L 196.56515 173.933075 
L 197.076052 173.933075 
L 197.076052 159.71075 
L 197.586953 159.71075 
L 197.586953 206.352133 
L 198.097854 206.352133 
L 198.097854 213.903321 
L 198.608755 213.903321 
L 198.608755 245.221377 
L 199.119657 245.221377 
L 199.119657 174.231206 
L 199.630558 174.231206 
L 199.630558 188.981718 
L 200.141459 188.981718 
L 200.141459 212.949588 
L 200.652361 212.949588 
L 200.652361 192.814053 
L 201.163262 192.814053 
L 201.163262 168.867776 
L 201.674163 168.867776 
L 201.674163 215.6425 
L 202.185064 215.6425 
L 202.185064 174.455733 
L 202.695966 174.455733 
L 202.695966 200.273436 
L 203.206867 200.273436 
L 203.206867 204.473498 
L 203.717768 204.473498 
L 203.717768 191.14956 
L 204.22867 191.14956 
L 204.22867 174.349064 
L 204.739571 174.349064 
L 204.739571 174.777719 
L 205.250472 174.777719 
L 205.250472 177.534491 
L 205.761373 177.534491 
L 205.761373 219.585001 
L 206.272275 219.585001 
L 206.272275 177.180827 
L 206.783176 177.180827 
L 206.783176 165.129797 
L 207.294077 165.129797 
L 207.294077 150.128324 
L 207.804979 150.128324 
L 207.804979 175.0989 
L 208.31588 175.0989 
L 208.31588 202.717124 
L 208.826781 202.717124 
L 208.826781 186.904383 
L 209.337682 186.904383 
L 209.337682 166.274655 
L 209.848584 166.274655 
L 209.848584 146.533354 
L 210.359485 146.533354 
L 210.359485 234.724115 
L 210.870386 234.724115 
L 210.870386 230.066275 
L 211.381288 230.066275 
L 211.381288 189.74449 
L 211.892189 189.74449 
L 211.892189 269.801888 
L 212.40309 269.801888 
L 212.40309 166.806111 
L 212.913991 166.806111 
L 212.913991 176.363599 
L 213.424893 176.363599 
L 213.424893 170.515684 
L 213.935794 170.515684 
L 213.935794 192.686523 
L 214.446695 192.686523 
L 214.446695 182.609839 
L 214.957597 182.609839 
L 214.957597 156.899004 
L 215.468498 156.899004 
L 215.468498 166.392366 
L 215.979399 166.392366 
L 215.979399 177.526236 
L 216.4903 177.526236 
L 216.4903 200.740691 
L 217.001202 200.740691 
L 217.001202 251.264563 
L 217.512103 251.264563 
L 217.512103 250.477987 
L 218.023004 250.477987 
L 218.023004 245.717412 
L 218.533906 245.717412 
L 218.533906 254.926521 
L 219.044807 254.926521 
L 219.044807 206.940371 
L 219.555708 206.940371 
L 219.555708 189.711135 
L 220.066609 189.711135 
L 220.066609 194.239922 
L 220.577511 194.239922 
L 220.577511 174.628208 
L 221.088412 174.628208 
L 221.088412 182.426135 
L 221.599313 182.426135 
L 221.599313 183.431309 
L 222.110215 183.431309 
L 222.110215 248.96394 
L 222.621116 248.96394 
L 222.621116 205.508341 
L 223.132017 205.508341 
L 223.132017 195.015487 
L 223.642918 195.015487 
L 223.642918 226.10105 
L 224.15382 226.10105 
L 224.15382 229.724568 
L 224.664721 229.724568 
L 224.664721 232.182948 
L 225.175622 232.182948 
L 225.175622 220.828813 
L 225.686524 220.828813 
L 225.686524 214.219342 
L 226.197425 214.219342 
L 226.197425 221.20587 
L 226.708326 221.20587 
L 226.708326 253.353164 
L 227.219227 253.353164 
L 227.219227 262.567962 
L 227.730129 262.567962 
L 227.730129 261.481044 
L 228.24103 261.481044 
L 228.24103 225.540676 
L 228.751931 225.540676 
L 228.751931 191.319906 
L 229.262833 191.319906 
L 229.262833 229.490997 
L 229.773734 229.490997 
L 229.773734 265.939028 
L 230.284635 265.939028 
L 230.284635 209.92882 
L 230.795536 209.92882 
L 230.795536 234.655726 
L 231.306438 234.655726 
L 231.306438 208.264015 
L 231.817339 208.264015 
L 231.817339 199.110247 
L 232.32824 199.110247 
L 232.32824 269.427109 
L 232.839142 269.427109 
L 232.839142 221.982535 
L 233.350043 221.982535 
L 233.350043 266.990045 
L 233.860944 266.990045 
L 233.860944 186.710823 
L 234.371845 186.710823 
L 234.371845 199.701227 
L 234.882747 199.701227 
L 234.882747 215.428447 
L 235.393648 215.428447 
L 235.393648 230.525107 
L 235.904549 230.525107 
L 235.904549 234.641156 
L 236.415451 234.641156 
L 236.415451 202.138097 
L 236.926352 202.138097 
L 236.926352 160.184712 
L 237.437253 160.184712 
L 237.437253 192.031126 
L 237.948155 192.031126 
L 237.948155 207.881844 
L 238.459056 207.881844 
L 238.459056 204.357546 
L 238.969957 204.357546 
L 238.969957 166.619639 
L 239.480858 166.619639 
L 239.480858 270.378714 
L 239.99176 270.378714 
L 239.99176 186.354248 
L 240.502661 186.354248 
L 240.502661 189.49597 
L 241.013562 189.49597 
L 241.013562 226.389817 
L 241.524464 226.389817 
L 241.524464 262.374697 
L 242.035365 262.374697 
L 242.035365 226.913034 
L 242.546266 226.913034 
L 242.546266 238.99432 
L 243.057167 238.99432 
L 243.057167 187.164919 
L 243.568069 187.164919 
L 243.568069 212.219151 
L 244.07897 212.219151 
L 244.07897 240.442593 
L 244.589871 240.442593 
L 244.589871 250.372188 
L 245.100773 250.372188 
L 245.100773 262.597356 
L 245.611674 262.597356 
L 245.611674 202.245846 
L 246.122575 202.245846 
L 246.122575 282.177269 
L 246.633476 282.177269 
L 246.633476 190.001811 
L 247.144378 190.001811 
L 247.144378 176.658713 
L 247.655279 176.658713 
L 247.655279 174.631324 
L 248.16618 174.631324 
L 248.16618 199.30924 
L 248.677082 199.30924 
L 248.677082 205.842867 
L 249.187983 205.842867 
L 249.187983 205.615348 
L 249.698884 205.615348 
L 249.698884 176.875567 
L 250.209785 176.875567 
L 250.209785 221.862098 
L 250.720687 221.862098 
L 250.720687 206.522808 
L 251.231588 206.522808 
L 251.231588 172.167622 
L 251.742489 172.167622 
L 251.742489 248.406474 
L 252.253391 248.406474 
L 252.253391 146.996918 
L 252.764292 146.996918 
L 252.764292 173.76807 
L 253.275193 173.76807 
L 253.275193 160.312139 
L 253.786094 160.312139 
L 253.786094 155.652268 
L 254.296996 155.652268 
L 254.296996 165.406721 
L 254.807897 165.406721 
L 254.807897 146.262635 
L 255.318798 146.262635 
L 255.318798 209.175905 
L 255.8297 209.175905 
L 255.8297 89.960149 
L 256.340601 89.960149 
L 256.340601 214.056072 
L 256.851502 214.056072 
L 256.851502 171.055092 
L 257.362403 171.055092 
L 257.362403 173.291723 
L 257.873305 173.291723 
L 257.873305 203.568223 
L 258.384206 203.568223 
L 258.384206 195.069617 
L 258.895107 195.069617 
L 258.895107 194.667866 
L 259.406009 194.667866 
L 259.406009 180.918816 
L 259.91691 180.918816 
L 259.91691 203.309982 
L 260.427811 203.309982 
L 260.427811 184.87786 
L 260.938712 184.87786 
L 260.938712 203.334797 
L 261.449614 203.334797 
L 261.449614 226.24535 
L 261.960515 226.24535 
L 261.960515 200.886428 
L 262.471416 200.886428 
L 262.471416 192.396945 
L 262.982318 192.396945 
L 262.982318 185.601575 
L 263.493219 185.601575 
L 263.493219 168.899188 
L 264.00412 168.899188 
L 264.00412 188.307941 
L 264.515021 188.307941 
L 264.515021 199.878006 
L 265.025923 199.878006 
L 265.025923 210.316414 
L 265.536824 210.316414 
L 265.536824 121.682343 
L 266.047725 121.682343 
L 266.047725 171.225494 
L 266.558627 171.225494 
L 266.558627 235.953796 
L 267.069528 235.953796 
L 267.069528 238.701099 
L 267.580429 238.701099 
L 267.580429 208.965824 
L 268.09133 208.965824 
L 268.09133 174.326578 
L 268.602232 174.326578 
L 268.602232 181.001998 
L 269.113133 181.001998 
L 269.113133 157.036018 
L 269.624034 157.036018 
L 269.624034 155.888819 
L 270.134936 155.888819 
L 270.134936 128.250578 
L 270.645837 128.250578 
L 270.645837 98.795201 
L 271.156738 98.795201 
L 271.156738 139.968211 
L 271.667639 139.968211 
L 271.667639 131.38623 
L 272.178541 131.38623 
L 272.178541 55.147479 
L 272.689442 55.147479 
L 272.689442 121.038536 
L 273.200343 121.038536 
L 273.200343 147.504263 
L 273.711245 147.504263 
L 273.711245 125.974602 
L 274.222146 125.974602 
L 274.222146 137.469267 
L 274.733047 137.469267 
L 274.733047 148.083478 
L 275.243948 148.083478 
L 275.243948 137.259737 
L 275.75485 137.259737 
L 275.75485 184.063157 
L 276.265751 184.063157 
L 276.265751 146.942631 
L 276.776652 146.942631 
L 276.776652 145.891613 
L 277.287554 145.891613 
L 277.287554 130.555348 
L 277.798455 130.555348 
L 277.798455 117.757567 
L 278.309356 117.757567 
L 278.309356 169.311344 
L 278.820258 169.311344 
L 278.820258 92.94729 
L 279.331159 92.94729 
L 279.331159 108.548575 
L 279.84206 108.548575 
L 279.84206 130.515354 
L 280.352961 130.515354 
L 280.352961 82.02848 
L 280.863863 82.02848 
L 280.863863 150.459589 
L 281.374764 150.459589 
L 281.374764 112.14209 
L 281.885665 112.14209 
L 281.885665 89.764932 
L 282.396567 89.764932 
L 282.396567 54.612536 
L 282.907468 54.612536 
L 282.907468 105.312657 
L 283.418369 105.312657 
L 283.418369 166.173153 
L 283.92927 166.173153 
L 283.92927 105.23135 
L 284.440172 105.23135 
L 284.440172 172.698632 
L 284.951073 172.698632 
L 284.951073 176.065507 
L 285.461974 176.065507 
L 285.461974 153.412245 
L 285.972876 153.412245 
L 285.972876 124.501439 
L 286.483777 124.501439 
L 286.483777 124.345757 
L 286.994678 124.345757 
L 286.994678 145.45794 
L 287.505579 145.45794 
L 287.505579 140.254331 
L 288.016481 140.254331 
L 288.016481 158.322521 
L 288.527382 158.322521 
L 288.527382 154.030683 
L 289.038283 154.030683 
L 289.038283 131.599351 
L 289.549185 131.599351 
L 289.549185 145.191611 
L 290.060086 145.191611 
L 290.060086 140.432572 
L 290.570987 140.432572 
L 290.570987 140.072195 
L 291.081888 140.072195 
L 291.081888 133.939408 
L 291.59279 133.939408 
L 291.59279 142.320885 
L 292.103691 142.320885 
L 292.103691 139.917773 
L 292.614592 139.917773 
L 292.614592 138.999839 
L 293.125494 138.999839 
L 293.125494 134.981937 
L 293.636395 134.981937 
L 293.636395 134.117723 
L 294.147296 134.117723 
L 294.147296 134.477913 
L 294.658197 134.477913 
L 294.658197 133.37265 
L 295.169099 133.37265 
L 295.169099 131.56345 
L 295.68 131.56345 
L 295.68 131.428227 
L 296.190901 131.428227 
L 296.190901 132.316408 
L 296.701803 132.316408 
L 296.701803 127.516607 
L 297.212704 127.516607 
L 297.212704 128.953286 
L 297.723605 128.953286 
L 297.723605 127.813414 
L 298.234506 127.813414 
L 298.234506 128.793726 
L 298.745408 128.793726 
L 298.745408 118.680325 
L 299.256309 118.680325 
L 299.256309 126.054275 
L 299.76721 126.054275 
L 299.76721 121.514255 
L 300.278112 121.514255 
L 300.278112 118.172831 
L 300.789013 118.172831 
L 300.789013 115.700447 
L 301.810815 115.79685 
L 301.810815 118.887181 
L 302.321717 118.887181 
L 302.321717 123.920323 
L 302.832618 123.920323 
L 302.832618 130.263568 
L 303.343519 130.263568 
L 303.343519 135.003135 
L 303.854421 135.003135 
L 303.854421 134.244319 
L 304.365322 134.244319 
L 304.365322 130.641367 
L 304.876223 130.641367 
L 304.876223 128.593059 
L 305.387124 128.593059 
L 305.387124 127.373932 
L 305.898026 127.373932 
L 305.898026 125.445434 
L 306.408927 125.445434 
L 306.408927 123.464322 
L 306.919828 123.464322 
L 306.919828 122.064784 
L 307.43073 122.064784 
L 307.43073 120.684449 
L 307.941631 120.684449 
L 307.941631 118.810028 
L 308.452532 118.810028 
L 308.452532 116.540871 
L 308.963433 116.540871 
L 308.963433 113.116841 
L 309.474335 113.116841 
L 309.474335 110.499903 
L 309.985236 110.499903 
L 309.985236 106.756963 
L 310.496137 106.756963 
L 310.496137 103.615648 
L 311.007039 103.615648 
L 311.007039 98.587936 
L 311.51794 98.587936 
L 311.51794 92.922637 
L 312.028841 92.922637 
L 312.028841 99.944825 
L 312.539742 99.944825 
L 312.539742 91.668988 
L 313.050644 91.668988 
L 313.050644 93.627062 
L 313.561545 93.627062 
L 313.561545 95.888986 
L 314.072446 95.888986 
L 314.072446 97.527512 
L 314.583348 97.527512 
L 314.583348 96.632384 
L 315.094249 96.632384 
L 315.094249 109.614695 
L 315.60515 109.614695 
L 315.60515 95.034323 
L 316.116052 95.034323 
L 316.116052 98.888644 
L 316.626953 98.888644 
L 316.626953 101.359165 
L 317.137854 101.359165 
L 317.137854 101.914453 
L 317.648755 101.914453 
L 317.648755 101.445883 
L 318.159657 101.445883 
L 318.159657 102.320264 
L 318.670558 102.320264 
L 318.670558 104.516433 
L 319.181459 104.516433 
L 319.181459 106.99873 
L 319.692361 106.99873 
L 319.692361 107.920074 
L 320.203262 107.920074 
L 320.203262 110.180324 
L 320.714163 110.180324 
L 320.714163 113.907297 
L 321.225064 113.907297 
L 321.225064 100.693833 
L 321.735966 100.693833 
L 321.735966 102.452589 
L 322.246867 102.452589 
L 322.246867 120.769036 
L 322.757768 120.769036 
L 322.757768 112.810518 
L 323.26867 112.810518 
L 323.26867 117.465046 
L 323.779571 117.465046 
L 323.779571 116.41633 
L 324.290472 116.41633 
L 324.290472 115.233317 
L 324.801373 115.233317 
L 324.801373 112.81738 
L 325.312275 112.81738 
L 325.312275 108.279366 
L 325.823176 108.279366 
L 325.823176 102.857235 
L 326.334077 102.857235 
L 326.334077 102.062174 
L 326.844979 102.062174 
L 326.844979 104.671559 
L 327.35588 104.671559 
L 327.35588 93.110415 
L 327.866781 93.110415 
L 327.866781 103.071335 
L 328.377682 103.071335 
L 328.377682 103.490611 
L 328.888584 103.490611 
L 328.888584 105.290226 
L 329.399485 105.290226 
L 329.399485 107.624279 
L 329.910386 107.624279 
L 329.910386 109.101048 
L 330.421288 109.101048 
L 330.421288 118.403903 
L 330.932189 118.403903 
L 330.932189 113.584584 
L 331.44309 113.584584 
L 331.44309 116.424728 
L 331.953991 116.424728 
L 331.953991 118.090934 
L 332.464893 118.090934 
L 332.464893 119.984059 
L 332.975794 119.984059 
L 332.975794 121.649753 
L 333.486695 121.649753 
L 333.486695 123.210382 
L 333.997597 123.210382 
L 333.997597 124.142239 
L 334.508498 124.142239 
L 334.508498 123.472278 
L 335.019399 123.472278 
L 335.019399 120.723831 
L 335.5303 120.723831 
L 335.5303 119.453346 
L 336.552103 119.556365 
L 336.552103 110.881281 
L 337.063004 110.881281 
L 337.063004 113.404563 
L 337.573906 113.404563 
L 337.573906 116.085354 
L 338.084807 116.085354 
L 338.084807 110.076122 
L 338.595708 110.076122 
L 338.595708 109.677349 
L 339.106609 109.677349 
L 339.106609 108.364522 
L 339.617511 108.364522 
L 339.617511 106.606095 
L 340.128412 106.606095 
L 340.128412 106.903185 
L 340.639313 106.903185 
L 340.639313 109.134437 
L 341.150215 109.134437 
L 341.150215 110.978747 
L 341.661116 110.978747 
L 341.661116 124.029203 
L 342.172017 124.029203 
L 342.172017 132.583973 
L 342.682918 132.583973 
L 342.682918 109.258062 
L 343.19382 109.258062 
L 343.19382 132.814618 
L 343.704721 132.814618 
L 343.704721 124.802357 
L 344.215622 124.802357 
L 344.215622 120.933937 
L 344.726524 120.933937 
L 344.726524 119.090553 
L 345.237425 119.090553 
L 345.237425 119.255294 
L 345.748326 119.255294 
L 345.748326 118.778416 
L 346.259227 118.778416 
L 346.259227 117.758468 
L 346.770129 117.758468 
L 346.770129 114.863162 
L 347.28103 114.863162 
L 347.28103 110.671006 
L 347.791931 110.671006 
L 347.791931 113.353471 
L 348.302833 113.353471 
L 348.302833 106.227083 
L 348.813734 106.227083 
L 348.813734 107.012969 
L 349.324635 107.012969 
L 349.324635 108.298222 
L 349.835536 108.298222 
L 349.835536 107.452573 
L 350.346438 107.452573 
L 350.346438 104.008031 
L 350.857339 104.008031 
L 350.857339 110.207838 
L 351.36824 110.207838 
L 351.36824 99.167411 
L 351.879142 99.167411 
L 351.879142 97.887327 
L 352.390043 97.887327 
L 352.390043 96.545247 
L 352.900944 96.545247 
L 352.900944 98.941034 
L 353.411845 98.941034 
L 353.411845 103.723264 
L 353.922747 103.723264 
L 353.922747 106.203676 
L 354.433648 106.203676 
L 354.433648 112.510513 
L 354.944549 112.510513 
L 354.944549 114.530722 
L 355.455451 114.530722 
L 355.455451 115.769788 
L 355.966352 115.769788 
L 355.966352 111.249768 
L 356.477253 111.249768 
L 356.477253 112.925503 
L 357.499056 112.827434 
L 357.499056 114.915922 
L 358.009957 114.915922 
L 358.009957 109.864616 
L 358.520858 109.864616 
L 358.520858 117.63757 
L 359.03176 117.63757 
L 359.03176 112.80723 
L 359.542661 112.80723 
L 359.542661 109.110763 
L 360.053562 109.110763 
L 360.053562 113.875754 
L 360.564464 113.875754 
L 360.564464 119.963254 
L 361.075365 119.963254 
L 361.075365 117.994233 
L 361.586266 117.994233 
L 361.586266 113.959446 
L 362.097167 113.959446 
L 362.097167 106.338926 
L 362.608069 106.338926 
L 362.608069 105.012323 
L 363.11897 105.012323 
L 363.11897 114.992677 
L 363.629871 114.992677 
L 363.629871 100.86018 
L 364.140773 100.86018 
L 364.140773 90.255188 
L 364.651674 90.255188 
L 364.651674 93.62165 
L 365.162575 93.62165 
L 365.162575 94.120473 
L 365.673476 94.120473 
L 365.673476 106.440466 
L 366.184378 106.440466 
L 366.184378 83.100879 
L 366.695279 83.100879 
L 366.695279 111.601824 
L 367.20618 111.601824 
L 367.20618 109.497458 
L 367.717082 109.497458 
L 367.717082 111.822802 
L 368.227983 111.822802 
L 368.227983 114.599843 
L 368.738884 114.599843 
L 368.738884 117.799965 
L 369.249785 117.799965 
L 369.249785 119.36988 
L 369.760687 119.36988 
L 369.760687 119.651714 
L 370.271588 119.651714 
L 370.271588 116.115723 
L 370.782489 116.115723 
L 370.782489 111.605158 
L 371.293391 111.605158 
L 371.293391 111.922337 
L 371.804292 111.922337 
L 371.804292 115.559505 
L 372.315193 115.559505 
L 372.315193 99.462453 
L 372.826094 99.462453 
L 372.826094 113.377087 
L 373.336996 113.377087 
L 373.336996 104.041194 
L 373.847897 104.041194 
L 373.847897 104.814431 
L 374.358798 104.814431 
L 374.358798 102.255234 
L 374.8697 102.255234 
L 374.8697 102.428822 
L 375.380601 102.428822 
L 375.380601 104.160039 
L 375.891502 104.160039 
L 375.891502 106.903852 
L 376.402403 106.903852 
L 376.402403 109.545688 
L 376.913305 109.545688 
L 376.913305 111.23739 
L 377.424206 111.23739 
L 377.424206 110.930446 
L 377.935107 110.930446 
L 377.935107 111.760591 
L 378.446009 111.760591 
L 378.446009 103.66339 
L 378.95691 103.66339 
L 378.95691 95.300898 
L 379.467811 95.300898 
L 379.467811 97.135305 
L 379.978712 97.135305 
L 379.978712 103.621021 
L 380.489614 103.621021 
L 380.489614 102.60632 
L 381.000515 102.60632 
L 381.000515 96.94523 
L 381.511416 96.94523 
L 381.511416 106.238243 
L 382.022318 106.238243 
L 382.022318 91.603484 
L 382.533219 91.603484 
L 382.533219 105.221927 
L 383.04412 105.221927 
L 383.04412 119.576841 
L 383.555021 119.576841 
L 383.555021 116.059718 
L 384.065923 116.059718 
L 384.065923 114.914983 
L 384.576824 114.914983 
L 384.576824 111.077787 
L 385.087725 111.077787 
L 385.087725 109.889412 
L 385.598627 109.889412 
L 385.598627 108.970833 
L 386.109528 108.970833 
L 386.109528 108.807136 
L 387.13133 108.882325 
L 387.13133 109.083512 
L 388.153133 109.174939 
L 388.153133 109.369046 
L 388.664034 109.369046 
L 388.664034 110.318485 
L 389.174936 110.318485 
L 389.174936 110.583204 
L 389.685837 110.583204 
L 389.685837 110.172954 
L 390.196738 110.172954 
L 390.196738 105.114995 
L 390.707639 105.114995 
L 390.707639 108.228227 
L 391.218541 108.228227 
L 391.218541 112.951034 
L 391.729442 112.951034 
L 391.729442 113.719566 
L 392.240343 113.719566 
L 392.240343 112.570733 
L 392.751245 112.570733 
L 392.751245 114.061687 
L 393.262146 114.061687 
L 393.262146 115.931295 
L 393.773047 115.931295 
L 393.773047 113.56167 
L 394.283948 113.56167 
L 394.283948 110.766873 
L 394.79485 110.766873 
L 394.79485 114.004931 
L 395.305751 114.004931 
L 395.305751 118.393124 
L 395.816652 118.393124 
L 395.816652 116.507338 
L 396.327554 116.507338 
L 396.327554 112.104957 
L 396.838455 112.104957 
L 396.838455 110.088093 
L 397.349356 110.088093 
L 397.349356 106.03733 
L 397.860258 106.03733 
L 397.860258 109.025313 
L 398.371159 109.025313 
L 398.371159 115.69938 
L 398.88206 115.69938 
L 398.88206 94.822433 
L 399.392961 94.822433 
L 399.392961 109.091203 
L 399.903863 109.091203 
L 399.903863 107.418137 
L 400.414764 107.418137 
L 400.414764 112.757108 
L 400.925665 112.757108 
L 400.925665 94.411733 
L 401.436567 94.411733 
L 401.436567 117.03831 
L 401.947468 117.03831 
L 401.947468 102.31701 
L 402.458369 102.31701 
L 402.458369 105.944043 
L 402.96927 105.944043 
L 402.96927 105.660814 
L 403.480172 105.660814 
L 403.480172 109.133037 
L 403.991073 109.133037 
L 403.991073 109.01833 
L 404.501974 109.01833 
L 404.501974 107.574346 
L 405.012876 107.574346 
L 405.012876 106.873499 
L 405.523777 106.873499 
L 405.523777 107.847087 
L 406.034678 107.847087 
L 406.034678 111.689238 
L 406.545579 111.689238 
L 406.545579 115.964402 
L 407.056481 115.964402 
L 407.056481 118.607206 
L 407.567382 118.607206 
L 407.567382 119.456575 
L 408.078283 119.456575 
L 408.078283 111.278262 
L 408.589185 111.278262 
L 408.589185 113.936986 
L 409.100086 113.936986 
L 409.100086 96.571849 
L 409.610987 96.571849 
L 409.610987 76.891728 
L 410.121888 76.891728 
L 410.121888 69.26371 
L 410.63279 69.26371 
L 410.63279 68.583796 
L 411.143691 68.583796 
L 411.143691 49.528585 
L 411.654592 49.528585 
L 411.654592 51.596996 
L 412.165494 51.596996 
L 412.165494 37.021637 
L 412.676395 37.021637 
L 412.676395 23.725347 
L 413.187296 23.725347 
L 413.187296 12.308404 
L 413.698197 12.308404 
L 413.698197 4.453961 
L 414.209099 4.453961 
L 414.209099 0.730921 
L 414.72 0.730921 
L 414.72 0.730921 
" clip-path="url(#p1efcdf3606)" style="fill: none; stroke: #000000; stroke-width: 0.4; stroke-linecap: square"/>
   </g>
   <g id="patch_3">
    <path d="M 57.6 307.584 
L 57.6 41.472 
" style="fill: none; stroke: #000000; stroke-width: 0.8; stroke-linejoin: miter; stroke-linecap: square"/>
   </g>
   <g id="patch_4">
    <path d="M 414.72 307.584 
L 414.72 41.472 
" style="fill: none; stroke: #000000; stroke-width: 0.8; stroke-linejoin: miter; stroke-linecap: square"/>
   </g>
   <g id="patch_5">
    <path d="M 57.6 307.584 
L 414.72 307.584 
" style="fill: none; stroke: #000000; stroke-width: 0.8; stroke-linejoin: miter; stroke-linecap: square"/>
   </g>
   <g id="patch_6">
    <path d="M 57.6 41.472 
L 414.72 41.472 
" style="fill: none; stroke: #000000; stroke-width: 0.8; stroke-linejoin: miter; stroke-linecap: square"/>
   </g>
  </g>
 </g>
 <defs>
  <clipPath id="p1efcdf3606">
   <rect x="57.6" y="41.472" width="357.12" height="266.112"/>
  </clipPath>
 </defs>
</svg>
